<svg width="542" height="427" viewBox="0 0 542 427" fill="none" xmlns="http://www.w3.org/2000/svg">
<rect width="542" height="427" fill="#0C1012"/>
<rect x="214" y="128" width="113" height="103" rx="12" fill="#181F23"/>
<g clip-path="url(#clip0_2102_9190)">
<path d="M266.291 160.109C268.871 157.421 272.463 155.754 276.436 155.754C281.717 155.754 286.324 158.699 288.778 163.07C290.91 162.117 293.27 161.587 295.753 161.587C305.278 161.587 313 169.377 313 178.985C313 188.594 305.278 196.383 295.753 196.383C294.612 196.384 293.474 196.27 292.356 196.044C290.196 199.898 286.078 202.503 281.352 202.503C279.374 202.503 277.503 202.046 275.837 201.233C273.646 206.385 268.543 209.998 262.595 209.998C256.402 209.998 251.123 206.079 249.097 200.582C248.211 200.77 247.294 200.868 246.353 200.868C238.978 200.868 233 194.829 233 187.377C233 182.383 235.686 178.023 239.677 175.69C238.855 173.799 238.398 171.713 238.398 169.519C238.398 160.949 245.356 154.002 253.937 154.002C258.975 154.002 263.452 156.398 266.291 160.109Z" fill="#00A1E0"/>
<path d="M244.587 183.04C244.537 183.171 244.605 183.199 244.621 183.221C244.772 183.331 244.925 183.409 245.078 183.497C245.894 183.93 246.665 184.057 247.47 184.057C249.111 184.057 250.13 183.184 250.13 181.779V181.751C250.13 180.452 248.98 179.98 247.901 179.64L247.761 179.594C246.947 179.33 246.245 179.102 246.245 178.566V178.538C246.245 178.079 246.656 177.742 247.292 177.742C247.998 177.742 248.837 177.977 249.377 178.275C249.377 178.275 249.535 178.378 249.594 178.224C249.625 178.142 249.899 177.406 249.927 177.326C249.958 177.24 249.904 177.176 249.848 177.141C249.231 176.767 248.379 176.51 247.497 176.51L247.333 176.511C245.831 176.511 244.782 177.418 244.782 178.719V178.746C244.782 180.117 245.939 180.561 247.023 180.871L247.197 180.925C247.987 181.168 248.667 181.376 248.667 181.932V181.96C248.667 182.468 248.225 182.846 247.512 182.846C247.235 182.846 246.351 182.841 245.398 182.238C245.282 182.17 245.215 182.122 245.126 182.068C245.08 182.038 244.962 181.987 244.911 182.142L244.587 183.04ZM268.611 183.04C268.561 183.171 268.629 183.199 268.645 183.221C268.796 183.331 268.948 183.409 269.102 183.497C269.918 183.93 270.689 184.057 271.494 184.057C273.135 184.057 274.154 183.184 274.154 181.779V181.751C274.154 180.452 273.004 179.98 271.925 179.64L271.785 179.594C270.971 179.33 270.269 179.102 270.269 178.566V178.538C270.269 178.079 270.679 177.742 271.315 177.742C272.022 177.742 272.861 177.977 273.401 178.275C273.401 178.275 273.559 178.378 273.617 178.224C273.649 178.142 273.923 177.406 273.951 177.326C273.982 177.24 273.927 177.176 273.871 177.141C273.255 176.767 272.402 176.51 271.52 176.51L271.356 176.511C269.854 176.511 268.806 177.418 268.806 178.719V178.746C268.806 180.117 269.963 180.561 271.046 180.871L271.221 180.925C272.01 181.168 272.692 181.376 272.692 181.932V181.96C272.692 182.468 272.249 182.846 271.535 182.846C271.258 182.846 270.375 182.841 269.421 182.238C269.306 182.17 269.238 182.124 269.151 182.068C269.122 182.049 268.983 181.995 268.935 182.142L268.611 183.04ZM285.012 180.288C285.012 181.082 284.863 181.708 284.572 182.15C284.283 182.587 283.847 182.801 283.238 182.801C282.629 182.801 282.195 182.589 281.911 182.15C281.623 181.709 281.478 181.082 281.478 180.288C281.478 179.495 281.623 178.87 281.911 178.432C282.195 177.999 282.629 177.789 283.238 177.789C283.847 177.789 284.283 177.999 284.573 178.432C284.863 178.87 285.012 179.495 285.012 180.288ZM286.381 178.815C286.247 178.361 286.037 177.96 285.758 177.626C285.479 177.291 285.126 177.022 284.706 176.826C284.288 176.631 283.793 176.532 283.238 176.532C282.682 176.532 282.188 176.631 281.769 176.826C281.35 177.022 280.997 177.291 280.716 177.626C280.438 177.961 280.229 178.362 280.093 178.815C279.96 179.268 279.892 179.762 279.892 180.288C279.892 180.813 279.96 181.309 280.093 181.76C280.229 182.214 280.437 182.615 280.718 182.95C280.997 183.285 281.351 183.553 281.769 183.743C282.189 183.933 282.682 184.03 283.238 184.03C283.793 184.03 284.287 183.933 284.706 183.743C285.124 183.553 285.479 183.285 285.758 182.95C286.037 182.616 286.247 182.215 286.381 181.76C286.516 181.308 286.583 180.812 286.583 180.288C286.583 179.764 286.516 179.268 286.381 178.815ZM297.63 182.588C297.584 182.455 297.456 182.505 297.456 182.505C297.256 182.582 297.044 182.652 296.819 182.688C296.589 182.723 296.338 182.741 296.068 182.741C295.404 182.741 294.878 182.544 294.501 182.154C294.122 181.765 293.91 181.134 293.913 180.282C293.915 179.506 294.102 178.922 294.438 178.478C294.772 178.036 295.28 177.809 295.958 177.809C296.523 177.809 296.954 177.874 297.405 178.016C297.405 178.016 297.514 178.063 297.565 177.922C297.685 177.589 297.773 177.351 297.901 176.985C297.938 176.881 297.849 176.837 297.817 176.824C297.639 176.755 297.22 176.642 296.903 176.594C296.607 176.549 296.26 176.525 295.875 176.525C295.299 176.525 294.787 176.623 294.348 176.819C293.91 177.014 293.539 177.282 293.245 177.618C292.951 177.953 292.727 178.354 292.578 178.807C292.43 179.26 292.355 179.756 292.355 180.282C292.355 181.418 292.661 182.337 293.266 183.009C293.873 183.684 294.783 184.027 295.971 184.027C296.673 184.027 297.393 183.884 297.91 183.68C297.91 183.68 298.01 183.632 297.966 183.517L297.63 182.588ZM300.027 179.527C300.092 179.086 300.214 178.719 300.402 178.433C300.685 177.999 301.118 177.761 301.727 177.761C302.336 177.761 302.738 178 303.026 178.433C303.218 178.719 303.301 179.102 303.334 179.527H300.027ZM304.639 178.557C304.522 178.118 304.234 177.675 304.045 177.472C303.746 177.151 303.455 176.926 303.165 176.801C302.787 176.639 302.333 176.532 301.836 176.532C301.258 176.532 300.732 176.629 300.306 176.829C299.879 177.03 299.52 177.303 299.238 177.644C298.957 177.984 298.745 178.388 298.61 178.848C298.475 179.305 298.406 179.803 298.406 180.328C298.406 180.862 298.477 181.36 298.617 181.808C298.758 182.26 298.984 182.657 299.289 182.987C299.594 183.318 299.986 183.578 300.455 183.759C300.921 183.939 301.488 184.033 302.138 184.031C303.477 184.027 304.183 183.728 304.473 183.568C304.525 183.539 304.574 183.489 304.512 183.346L304.209 182.496C304.164 182.37 304.035 182.417 304.035 182.417C303.703 182.54 303.231 182.761 302.132 182.759C301.412 182.758 300.879 182.546 300.545 182.214C300.202 181.874 300.035 181.375 300.005 180.671L304.642 180.675C304.642 180.675 304.764 180.673 304.777 180.555C304.781 180.505 304.936 179.602 304.639 178.557ZM262.891 179.527C262.957 179.086 263.078 178.719 263.266 178.433C263.549 177.999 263.982 177.761 264.591 177.761C265.2 177.761 265.602 178 265.891 178.433C266.082 178.719 266.165 179.102 266.198 179.527H262.891ZM267.502 178.557C267.385 178.118 267.098 177.675 266.909 177.472C266.61 177.151 266.319 176.926 266.029 176.801C265.651 176.639 265.197 176.532 264.7 176.532C264.123 176.532 263.596 176.629 263.17 176.829C262.743 177.03 262.384 177.303 262.102 177.644C261.821 177.984 261.609 178.388 261.474 178.848C261.34 179.305 261.27 179.803 261.27 180.328C261.27 180.862 261.341 181.36 261.481 181.808C261.623 182.26 261.848 182.657 262.154 182.987C262.458 183.318 262.85 183.578 263.319 183.759C263.785 183.939 264.352 184.033 265.003 184.031C266.342 184.027 267.047 183.728 267.338 183.568C267.389 183.539 267.438 183.489 267.376 183.346L267.074 182.496C267.028 182.37 266.899 182.417 266.899 182.417C266.567 182.54 266.097 182.761 264.995 182.759C264.277 182.758 263.743 182.546 263.409 182.214C263.066 181.874 262.899 181.375 262.869 180.671L267.506 180.675C267.506 180.675 267.628 180.673 267.641 180.555C267.645 180.505 267.8 179.602 267.502 178.557ZM252.868 182.563C252.687 182.418 252.662 182.382 252.6 182.288C252.509 182.146 252.462 181.943 252.462 181.686C252.462 181.278 252.597 180.985 252.876 180.788C252.872 180.789 253.275 180.44 254.221 180.452C254.885 180.462 255.479 180.56 255.479 180.56V182.668H255.48C255.48 182.668 254.891 182.794 254.227 182.834C253.284 182.891 252.864 182.562 252.868 182.563ZM254.713 179.305C254.525 179.291 254.281 179.283 253.989 179.283C253.591 179.283 253.207 179.333 252.847 179.43C252.485 179.527 252.159 179.679 251.879 179.879C251.599 180.079 251.369 180.341 251.206 180.644C251.042 180.949 250.959 181.309 250.959 181.713C250.959 182.123 251.03 182.48 251.171 182.772C251.312 183.064 251.516 183.308 251.776 183.496C252.034 183.684 252.352 183.822 252.721 183.905C253.084 183.989 253.497 184.031 253.948 184.031C254.423 184.031 254.897 183.992 255.357 183.913C255.811 183.836 256.37 183.723 256.525 183.688C256.633 183.662 256.742 183.634 256.85 183.605C256.965 183.576 256.956 183.453 256.956 183.453L256.953 179.213C256.953 178.283 256.705 177.593 256.216 177.166C255.729 176.74 255.012 176.524 254.086 176.524C253.738 176.524 253.179 176.572 252.844 176.639C252.844 176.639 251.831 176.835 251.414 177.161C251.414 177.161 251.322 177.218 251.373 177.346L251.701 178.228C251.742 178.342 251.852 178.303 251.852 178.303C251.852 178.303 251.888 178.29 251.929 178.266C252.821 177.78 253.949 177.795 253.949 177.795C254.451 177.795 254.836 177.895 255.096 178.095C255.349 178.288 255.477 178.581 255.477 179.199V179.395C255.079 179.338 254.713 179.305 254.713 179.305ZM292.113 176.916C292.148 176.811 292.074 176.761 292.043 176.749C291.964 176.719 291.57 176.635 291.266 176.616C290.683 176.581 290.36 176.679 290.07 176.809C289.783 176.938 289.464 177.148 289.286 177.386V176.822C289.286 176.744 289.23 176.681 289.153 176.681H287.964C287.887 176.681 287.831 176.743 287.831 176.822V183.738C287.831 183.816 287.895 183.88 287.972 183.88H289.191C289.228 183.88 289.264 183.865 289.29 183.838C289.316 183.812 289.331 183.776 289.331 183.738V180.283C289.331 179.819 289.382 179.357 289.485 179.066C289.585 178.779 289.722 178.549 289.89 178.383C290.06 178.219 290.253 178.104 290.464 178.039C290.679 177.973 290.917 177.952 291.086 177.952C291.328 177.952 291.595 178.014 291.595 178.014C291.684 178.024 291.734 177.97 291.764 177.889C291.844 177.677 292.069 177.042 292.113 176.916Z" fill="white"/>
<path d="M280.678 173.71C280.529 173.665 280.395 173.634 280.219 173.601C280.042 173.569 279.83 173.553 279.589 173.553C278.75 173.553 278.089 173.79 277.626 174.257C277.164 174.722 276.851 175.43 276.693 176.361L276.636 176.674H275.584C275.584 176.674 275.456 176.67 275.428 176.809L275.256 177.774C275.244 177.865 275.284 177.923 275.407 177.923H276.431L275.392 183.726C275.311 184.193 275.218 184.578 275.114 184.869C275.012 185.156 274.913 185.372 274.79 185.529C274.672 185.68 274.56 185.791 274.366 185.856C274.207 185.91 274.022 185.935 273.82 185.935C273.709 185.935 273.56 185.916 273.449 185.894C273.34 185.872 273.281 185.848 273.198 185.813C273.198 185.813 273.079 185.767 273.031 185.887C272.993 185.986 272.72 186.737 272.687 186.829C272.655 186.922 272.7 186.993 272.758 187.015C272.895 187.063 272.996 187.095 273.182 187.139C273.44 187.2 273.657 187.203 273.861 187.203C274.288 187.203 274.677 187.143 275 187.026C275.324 186.909 275.606 186.705 275.857 186.429C276.127 186.131 276.297 185.818 276.459 185.391C276.619 184.969 276.757 184.445 276.867 183.834L277.912 177.923H279.439C279.439 177.923 279.567 177.928 279.594 177.788L279.767 176.824C279.778 176.731 279.74 176.674 279.615 176.674H278.133C278.141 176.641 278.208 176.119 278.378 175.628C278.451 175.42 278.587 175.25 278.702 175.134C278.817 175.02 278.948 174.939 279.091 174.892C279.238 174.844 279.406 174.821 279.589 174.821C279.728 174.821 279.866 174.837 279.97 174.859C280.113 174.89 280.169 174.906 280.207 174.917C280.358 174.963 280.379 174.918 280.409 174.845L280.763 173.872C280.799 173.767 280.709 173.723 280.678 173.71ZM259.962 183.739C259.962 183.816 259.907 183.879 259.829 183.879H258.599C258.522 183.879 258.467 183.816 258.467 183.739V173.842C258.467 173.765 258.522 173.702 258.599 173.702H259.829C259.907 173.702 259.962 173.765 259.962 173.842V183.739Z" fill="white"/>
</g>
<rect x="61" y="128" width="113" height="103" rx="12" fill="#181F23"/>
<g clip-path="url(#clip1_2102_9190)">
<path fill-rule="evenodd" clip-rule="evenodd" d="M110.712 152.133C110.005 152.134 109.306 152.274 108.653 152.545C108 152.816 107.407 153.213 106.908 153.713C106.409 154.213 106.013 154.807 105.743 155.46C105.474 156.113 105.335 156.813 105.336 157.52C105.335 158.227 105.474 158.927 105.744 159.58C106.014 160.233 106.409 160.826 106.909 161.326C107.408 161.827 108.001 162.224 108.653 162.495C109.306 162.766 110.005 162.905 110.712 162.906H116.088V157.52C116.089 156.813 115.95 156.113 115.681 155.46C115.411 154.807 115.015 154.213 114.516 153.713C114.017 153.213 113.424 152.816 112.771 152.545C112.118 152.274 111.419 152.134 110.712 152.133ZM110.712 166.498H96.376C95.6694 166.499 94.9698 166.639 94.3172 166.91C93.6646 167.181 93.0717 167.578 92.5725 168.078C92.0733 168.578 91.6775 169.171 91.4077 169.824C91.1379 170.478 90.9993 171.177 91 171.884C90.9992 172.591 91.1377 173.291 91.4074 173.944C91.6772 174.597 92.073 175.191 92.5722 175.691C93.0714 176.191 93.6643 176.588 94.3169 176.859C94.9696 177.131 95.6693 177.27 96.376 177.271H110.712C111.419 177.27 112.118 177.131 112.771 176.859C113.424 176.588 114.017 176.191 114.516 175.691C115.015 175.191 115.411 174.597 115.681 173.944C115.95 173.291 116.089 172.591 116.088 171.884C116.089 171.177 115.95 170.478 115.68 169.824C115.41 169.171 115.015 168.578 114.515 168.078C114.016 167.578 113.423 167.181 112.771 166.91C112.118 166.639 111.419 166.499 110.712 166.498Z" fill="#36C5F0"/>
<path fill-rule="evenodd" clip-rule="evenodd" d="M144.76 171.884C144.761 171.177 144.622 170.478 144.352 169.824C144.083 169.171 143.687 168.578 143.188 168.078C142.688 167.578 142.096 167.181 141.443 166.91C140.79 166.639 140.091 166.499 139.384 166.498C138.677 166.499 137.978 166.639 137.325 166.91C136.673 167.181 136.08 167.578 135.581 168.078C135.081 168.578 134.686 169.171 134.416 169.824C134.146 170.478 134.007 171.177 134.008 171.884V177.271H139.384C140.091 177.27 140.791 177.131 141.443 176.859C142.096 176.588 142.689 176.191 143.188 175.691C143.687 175.191 144.083 174.597 144.353 173.944C144.622 173.291 144.761 172.591 144.76 171.884ZM130.424 171.884V157.52C130.425 156.813 130.286 156.113 130.017 155.46C129.747 154.807 129.351 154.213 128.852 153.713C128.353 153.213 127.76 152.816 127.107 152.545C126.455 152.274 125.755 152.134 125.048 152.133C124.341 152.134 123.642 152.274 122.989 152.545C122.336 152.816 121.744 153.213 121.244 153.713C120.745 154.213 120.349 154.807 120.08 155.46C119.81 156.113 119.671 156.813 119.672 157.52V171.884C119.671 172.591 119.81 173.291 120.08 173.944C120.349 174.597 120.745 175.191 121.244 175.691C121.744 176.191 122.336 176.588 122.989 176.859C123.642 177.131 124.341 177.27 125.048 177.271C125.755 177.27 126.455 177.131 127.107 176.859C127.76 176.588 128.353 176.191 128.852 175.691C129.351 175.191 129.747 174.597 130.017 173.944C130.286 173.291 130.425 172.591 130.424 171.884Z" fill="#2EB67D"/>
<path fill-rule="evenodd" clip-rule="evenodd" d="M125.048 206C125.755 205.999 126.455 205.86 127.107 205.588C127.76 205.317 128.353 204.92 128.852 204.42C129.351 203.92 129.747 203.326 130.017 202.673C130.286 202.02 130.425 201.32 130.424 200.613C130.425 199.906 130.286 199.207 130.016 198.553C129.747 197.9 129.351 197.307 128.852 196.807C128.352 196.307 127.76 195.91 127.107 195.639C126.454 195.368 125.755 195.228 125.048 195.227H119.672V200.613C119.671 201.32 119.81 202.02 120.08 202.673C120.349 203.326 120.745 203.92 121.244 204.42C121.744 204.92 122.336 205.317 122.989 205.588C123.642 205.86 124.341 205.999 125.048 206ZM125.048 191.635H139.384C140.091 191.634 140.79 191.495 141.443 191.224C142.096 190.953 142.688 190.556 143.188 190.055C143.687 189.555 144.083 188.962 144.352 188.309C144.622 187.656 144.761 186.956 144.76 186.249C144.761 185.542 144.622 184.842 144.353 184.189C144.083 183.536 143.687 182.942 143.188 182.442C142.689 181.942 142.096 181.545 141.443 181.274C140.791 181.003 140.091 180.863 139.384 180.862H125.048C124.341 180.863 123.642 181.003 122.989 181.274C122.336 181.545 121.744 181.942 121.244 182.442C120.745 182.942 120.349 183.536 120.08 184.189C119.81 184.842 119.671 185.542 119.672 186.249C119.671 186.956 119.81 187.656 120.08 188.309C120.35 188.962 120.745 189.555 121.245 190.055C121.744 190.556 122.337 190.953 122.989 191.224C123.642 191.495 124.341 191.634 125.048 191.635Z" fill="#ECB22E"/>
<path fill-rule="evenodd" clip-rule="evenodd" d="M91 186.249C90.9993 186.956 91.1379 187.656 91.4077 188.309C91.6775 188.962 92.0733 189.555 92.5725 190.055C93.0717 190.556 93.6646 190.953 94.3172 191.224C94.9698 191.495 95.6694 191.634 96.376 191.635C97.0826 191.634 97.7822 191.495 98.4348 191.224C99.0874 190.953 99.6803 190.556 100.179 190.055C100.679 189.555 101.075 188.962 101.344 188.309C101.614 187.656 101.753 186.956 101.752 186.249V180.862H96.376C95.6692 180.863 94.9694 181.003 94.3167 181.274C93.664 181.545 93.0711 181.942 92.5718 182.442C92.0726 182.943 91.6768 183.537 91.4071 184.19C91.1374 184.843 90.9991 185.542 91 186.249ZM105.336 186.249V200.613C105.335 201.32 105.474 202.02 105.743 202.673C106.013 203.326 106.409 203.92 106.908 204.42C107.407 204.92 108 205.317 108.653 205.588C109.306 205.86 110.005 205.999 110.712 206C111.419 205.999 112.118 205.86 112.771 205.588C113.424 205.317 114.017 204.92 114.516 204.42C115.015 203.92 115.411 203.326 115.681 202.673C115.95 202.02 116.089 201.32 116.088 200.613V186.25C116.089 185.543 115.95 184.843 115.681 184.19C115.411 183.537 115.015 182.943 114.516 182.443C114.017 181.943 113.424 181.546 112.771 181.275C112.118 181.004 111.419 180.864 110.712 180.863C110.005 180.864 109.306 181.004 108.653 181.275C108 181.546 107.407 181.943 106.908 182.443C106.409 182.943 106.013 183.537 105.743 184.19C105.474 184.843 105.335 185.542 105.336 186.249Z" fill="#E01E5A"/>
</g>
<rect x="367" y="128" width="113" height="103" rx="12" fill="#181F23"/>
<g clip-path="url(#clip2_2102_9190)">
<path fill-rule="evenodd" clip-rule="evenodd" d="M425.403 180.96C424.66 182.442 423.388 183.396 422.01 183.718C421.802 183.718 421.483 183.823 421.164 183.823C418.835 183.823 417.458 182.021 417.458 179.373C417.458 175.979 419.47 174.392 422.01 173.647C423.388 173.33 424.98 173.223 426.568 173.223V174.496C426.568 176.933 426.673 178.839 425.403 180.96ZM426.568 168.352C425.191 168.457 423.599 168.562 422.01 168.77C419.575 169.092 417.14 169.516 415.13 170.47C411.21 172.06 408.56 175.45 408.56 180.429C408.56 186.686 412.584 189.862 417.673 189.862C419.366 189.862 420.743 189.648 422.01 189.334C424.028 188.696 425.719 187.53 427.731 185.409C428.897 186.999 429.218 187.744 431.228 189.439C431.758 189.648 432.288 189.648 432.709 189.334C433.982 188.272 436.209 186.364 437.372 185.304C437.902 184.881 437.798 184.244 437.476 183.718C436.313 182.233 435.145 180.96 435.145 178.099V168.561C435.145 164.535 435.467 160.825 432.5 158.072C430.065 155.85 426.25 155 423.283 155H422.01C416.612 155.313 410.894 157.646 409.618 164.323C409.406 165.173 410.044 165.489 410.468 165.593L416.4 166.336C417.035 166.229 417.354 165.698 417.458 165.173C417.986 162.841 419.894 161.675 422.01 161.46H422.437C423.709 161.46 425.087 161.991 425.826 163.053C426.673 164.323 426.568 166.02 426.568 167.505V168.352Z" fill="white"/>
<path fill-rule="evenodd" clip-rule="evenodd" d="M447.994 190.946V190.944C447.972 190.444 447.867 190.063 447.659 189.746L447.636 189.716L447.611 189.684C447.399 189.453 447.196 189.365 446.976 189.269C446.318 189.015 445.361 188.879 444.21 188.877C443.383 188.877 442.471 188.956 441.554 189.157L441.551 189.094L440.628 189.402L440.611 189.41L440.089 189.58V189.602C439.492 189.85 438.927 190.167 438.405 190.548C438.083 190.788 437.818 191.108 437.803 191.596C437.803 191.739 437.834 191.88 437.895 192.01C437.955 192.139 438.043 192.254 438.153 192.346C438.273 192.442 438.411 192.512 438.559 192.551C438.708 192.591 438.862 192.6 439.014 192.578L439.059 192.576L439.093 192.57C439.545 192.474 440.203 192.409 440.973 192.302C441.633 192.228 442.333 192.175 442.94 192.175C443.369 192.172 443.755 192.203 444.02 192.259C444.134 192.28 444.245 192.317 444.348 192.369C444.369 192.456 444.377 192.546 444.373 192.635C444.379 193.143 444.165 194.086 443.868 195.007C443.58 195.927 443.23 196.85 442.999 197.463C442.938 197.611 442.907 197.769 442.906 197.929C442.9 198.175 443.002 198.474 443.216 198.672C443.426 198.869 443.696 198.948 443.922 198.948H443.933C444.272 198.945 444.56 198.81 444.808 198.615C447.151 196.509 447.966 193.143 448 191.248L447.994 190.946ZM441.049 193.866C440.802 193.865 440.558 193.92 440.335 194.026C440.078 194.128 439.815 194.247 439.567 194.352L439.203 194.504L438.729 194.694V194.699C433.579 196.789 428.169 198.014 423.162 198.121C422.978 198.127 422.792 198.127 422.614 198.127C414.74 198.132 408.317 194.479 401.837 190.879C401.627 190.764 401.392 190.702 401.152 190.698C400.861 190.698 400.562 190.808 400.344 191.011C400.235 191.115 400.148 191.24 400.089 191.378C400.03 191.516 400 191.665 400 191.816C399.997 192.208 400.209 192.57 400.505 192.804C406.587 198.087 413.253 202.994 422.22 203C422.395 203 422.573 202.994 422.75 202.992C428.454 202.864 434.903 200.936 439.91 197.791L439.94 197.771C440.612 197.37 441.256 196.925 441.868 196.438C442.252 196.153 442.518 195.707 442.518 195.244C442.501 194.422 441.802 193.866 441.049 193.866Z" fill="#FF9A00"/>
</g>
<rect x="214" y="262" width="113" height="103" rx="12" fill="#181F23"/>
<g clip-path="url(#clip3_2102_9190)">
<path d="M299.969 313.561C299.969 311.103 299.772 309.309 299.345 307.449H271.578V318.544H287.876C287.548 321.301 285.773 325.454 281.83 328.244L281.775 328.615L290.554 335.491L291.163 335.552C296.749 330.337 299.969 322.663 299.969 313.561Z" fill="#4285F4"/>
<path d="M271.578 342.794C279.563 342.794 286.266 340.136 291.163 335.552L281.83 328.244C279.333 330.005 275.981 331.234 271.578 331.234C263.757 331.234 257.119 326.018 254.753 318.81L254.406 318.84L245.277 325.982L245.157 326.317C250.021 336.084 260.011 342.794 271.578 342.794Z" fill="#34A853"/>
<path d="M254.753 318.81C254.128 316.95 253.767 314.956 253.767 312.897C253.767 310.837 254.128 308.844 254.72 306.984L254.703 306.588L245.46 299.331L245.157 299.476C243.153 303.529 242.003 308.08 242.003 312.897C242.003 317.714 243.153 322.264 245.157 326.317L254.753 318.81Z" fill="#FBBC05"/>
<path d="M271.578 294.56C277.131 294.56 280.877 296.985 283.013 299.012L291.36 290.773C286.234 285.956 279.563 283 271.578 283C260.011 283 250.021 289.71 245.157 299.476L254.72 306.984C257.119 299.775 263.757 294.56 271.578 294.56Z" fill="#EB4335"/>
</g>
<rect x="61" y="262" width="113" height="103" rx="12" fill="#181F23"/>
<g clip-path="url(#clip4_2102_9190)">
<path d="M122.999 286H101.749C100.761 286.024 99.8214 286.428 99.1235 287.127C98.4256 287.825 98.0233 288.766 98 289.753V337.252C98.0233 338.24 98.4262 339.181 99.1251 339.88C99.8239 340.579 100.765 340.982 101.753 341.005H134.247C135.235 340.982 136.176 340.579 136.875 339.88C137.574 339.181 137.977 338.24 138 337.252V301.004L129.251 294.749L122.999 286Z" fill="#4285F4"/>
<path d="M107.999 325.999H127.999V323.5H107.999V325.999ZM107.999 331H122.997V328.5H107.999V331ZM107.999 313.5V315.999H127.999V313.499L107.999 313.5ZM107.999 320.999H127.999V318.5H107.999V320.999Z" fill="#F1F1F1"/>
<path d="M122.999 286V297.25C123.023 298.237 123.426 299.177 124.123 299.874C124.821 300.572 125.761 300.975 126.748 300.999H137.998L122.999 286Z" fill="#A1C2FA"/>
</g>
<rect x="367" y="262" width="113" height="103" rx="12" fill="#181F23"/>
<path d="M424.158 289.594C411.846 289.594 401.875 299.565 401.875 311.876C401.875 316.837 403.499 321.419 406.238 325.124L400.56 337.406L402.044 336.719L413.479 331.44C416.647 333.173 420.283 334.159 424.148 334.159C436.449 334.159 446.43 324.188 446.43 311.876C446.44 299.565 436.459 289.594 424.158 289.594ZM436.041 321.389C435.911 322.007 435.642 322.594 435.254 323.112C434.776 323.75 434.158 324.228 433.451 324.527C432.744 324.826 431.967 324.945 431.19 324.846C429.108 324.596 427.096 323.929 425.293 322.853C423.211 321.618 420.412 319.696 418.3 316.946C416.049 314.307 414.824 311.219 414.047 308.918C413.38 306.936 413.141 304.824 413.33 302.742C413.4 301.955 413.679 301.218 414.117 300.591C414.555 299.963 415.163 299.455 415.88 299.126C416.468 298.847 417.105 298.718 417.733 298.718C418.629 298.718 419.725 298.708 420.482 299.246C421.657 300.073 422.155 301.706 422.155 303.141C422.155 303.27 422.145 303.41 422.135 303.539C422.066 304.326 421.996 305.013 421.548 305.641C421.109 306.268 420.303 306.816 419.585 307.155C420.133 310.103 421.08 312.295 422.384 313.709C422.942 314.486 423.699 315.223 424.666 315.911C425.632 316.598 426.797 317.225 428.182 317.803C428.66 317.176 429.367 316.498 430.074 316.199C430.772 315.901 431.469 315.97 432.246 316.07C432.375 316.09 432.515 316.11 432.644 316.14C434.039 316.438 435.533 317.265 436.101 318.59C436.459 319.447 436.23 320.513 436.041 321.389Z" fill="#68D895"/>
<path d="M174 105C174 109.418 170.418 113 166 113H69C64.5817 113 61 109.418 61 105V103H174V105Z" fill="#85DDCB"/>
<defs>
<clipPath id="clip0_2102_9190">
<rect width="80" height="56" fill="white" transform="translate(233 154)"/>
</clipPath>
<clipPath id="clip1_2102_9190">
<rect width="54" height="54" fill="white" transform="translate(91 152)"/>
</clipPath>
<clipPath id="clip2_2102_9190">
<rect width="48" height="48" fill="white" transform="translate(400 155)"/>
</clipPath>
<clipPath id="clip3_2102_9190">
<rect width="58" height="60" fill="white" transform="translate(242 283)"/>
</clipPath>
<clipPath id="clip4_2102_9190">
<rect width="40" height="55" fill="white" transform="translate(98 286)"/>
</clipPath>
</defs>
</svg>
