<svg width="542" height="427" viewBox="0 0 542 427" fill="none" xmlns="http://www.w3.org/2000/svg">
<rect width="542" height="427" fill="#0C1012"/>
<rect x="214" y="113" width="113" height="103" rx="12" fill="#181F23"/>
<g clip-path="url(#clip0_2102_9190)">
<path d="M266.291 145.109C268.871 142.421 272.463 140.754 276.436 140.754C281.717 140.754 286.324 143.699 288.778 148.07C290.91 147.117 293.27 146.587 295.753 146.587C305.278 146.587 313 154.377 313 163.985C313 173.594 305.278 181.383 295.753 181.383C294.612 181.384 293.474 181.27 292.356 181.044C290.196 184.898 286.078 187.503 281.352 187.503C279.374 187.503 277.503 187.046 275.837 186.233C273.646 191.385 268.543 194.998 262.595 194.998C256.402 194.998 251.123 191.079 249.097 185.582C248.211 185.77 247.294 185.868 246.353 185.868C238.978 185.868 233 179.829 233 172.377C233 167.383 235.686 163.023 239.677 160.69C238.855 158.799 238.398 156.713 238.398 154.519C238.398 145.949 245.356 139.002 253.937 139.002C258.975 139.002 263.452 141.398 266.291 145.109Z" fill="#00A1E0"/>
<path d="M244.587 168.04C244.537 168.171 244.605 168.199 244.621 168.221C244.772 168.331 244.925 168.409 245.078 168.497C245.894 168.93 246.665 169.057 247.47 169.057C249.111 169.057 250.13 168.184 250.13 166.779V166.751C250.13 165.452 248.98 164.98 247.901 164.64L247.761 164.594C246.947 164.33 246.245 164.102 246.245 163.566V163.538C246.245 163.079 246.656 162.742 247.292 162.742C247.998 162.742 248.837 162.977 249.377 163.275C249.377 163.275 249.535 163.378 249.594 163.224C249.625 163.142 249.899 162.406 249.927 162.326C249.958 162.24 249.904 162.176 249.848 162.141C249.231 161.767 248.379 161.51 247.497 161.51L247.333 161.511C245.831 161.511 244.782 162.418 244.782 163.719V163.746C244.782 165.117 245.939 165.561 247.023 165.871L247.197 165.925C247.987 166.168 248.667 166.376 248.667 166.932V166.96C248.667 167.468 248.225 167.846 247.512 167.846C247.235 167.846 246.351 167.841 245.398 167.238C245.282 167.17 245.215 167.122 245.126 167.068C245.08 167.038 244.962 166.987 244.911 167.142L244.587 168.04ZM268.611 168.04C268.561 168.171 268.629 168.199 268.645 168.221C268.796 168.331 268.948 168.409 269.102 168.497C269.918 168.93 270.689 169.057 271.494 169.057C273.135 169.057 274.154 168.184 274.154 166.779V166.751C274.154 165.452 273.004 164.98 271.925 164.64L271.785 164.594C270.971 164.33 270.269 164.102 270.269 163.566V163.538C270.269 163.079 270.679 162.742 271.315 162.742C272.022 162.742 272.861 162.977 273.401 163.275C273.401 163.275 273.559 163.378 273.617 163.224C273.649 163.142 273.923 162.406 273.951 162.326C273.982 162.24 273.927 162.176 273.871 162.141C273.255 161.767 272.402 161.51 271.52 161.51L271.356 161.511C269.854 161.511 268.806 162.418 268.806 163.719V163.746C268.806 165.117 269.963 165.561 271.046 165.871L271.221 165.925C272.01 166.168 272.692 166.376 272.692 166.932V166.96C272.692 167.468 272.249 167.846 271.535 167.846C271.258 167.846 270.375 167.841 269.421 167.238C269.306 167.17 269.238 167.124 269.151 167.068C269.122 167.049 268.983 166.995 268.935 167.142L268.611 168.04ZM285.012 165.288C285.012 166.082 284.863 166.708 284.572 167.15C284.283 167.587 283.847 167.801 283.238 167.801C282.629 167.801 282.195 167.589 281.911 167.15C281.623 166.709 281.478 166.082 281.478 165.288C281.478 164.495 281.623 163.87 281.911 163.432C282.195 162.999 282.629 162.789 283.238 162.789C283.847 162.789 284.283 162.999 284.573 163.432C284.863 163.87 285.012 164.495 285.012 165.288ZM286.381 163.815C286.247 163.361 286.037 162.96 285.758 162.626C285.479 162.291 285.126 162.022 284.706 161.826C284.288 161.631 283.793 161.532 283.238 161.532C282.682 161.532 282.188 161.631 281.769 161.826C281.35 162.022 280.997 162.291 280.716 162.626C280.438 162.961 280.229 163.362 280.093 163.815C279.96 164.268 279.892 164.762 279.892 165.288C279.892 165.813 279.96 166.309 280.093 166.76C280.229 167.214 280.437 167.615 280.718 167.95C280.997 168.285 281.351 168.553 281.769 168.743C282.189 168.933 282.682 169.03 283.238 169.03C283.793 169.03 284.287 168.933 284.706 168.743C285.124 168.553 285.479 168.285 285.758 167.95C286.037 167.616 286.247 167.215 286.381 166.76C286.516 166.308 286.583 165.812 286.583 165.288C286.583 164.764 286.516 164.268 286.381 163.815ZM297.63 167.588C297.584 167.455 297.456 167.505 297.456 167.505C297.256 167.582 297.044 167.652 296.819 167.688C296.589 167.723 296.338 167.741 296.068 167.741C295.404 167.741 294.878 167.544 294.501 167.154C294.122 166.765 293.91 166.134 293.913 165.282C293.915 164.506 294.102 163.922 294.438 163.478C294.772 163.036 295.28 162.809 295.958 162.809C296.523 162.809 296.954 162.874 297.405 163.016C297.405 163.016 297.514 163.063 297.565 162.922C297.685 162.589 297.773 162.351 297.901 161.985C297.938 161.881 297.849 161.837 297.817 161.824C297.639 161.755 297.22 161.642 296.903 161.594C296.607 161.549 296.26 161.525 295.875 161.525C295.299 161.525 294.787 161.623 294.348 161.819C293.91 162.014 293.539 162.282 293.245 162.618C292.951 162.953 292.727 163.354 292.578 163.807C292.43 164.26 292.355 164.756 292.355 165.282C292.355 166.418 292.661 167.337 293.266 168.009C293.873 168.684 294.783 169.027 295.971 169.027C296.673 169.027 297.393 168.884 297.91 168.68C297.91 168.68 298.01 168.632 297.966 168.517L297.63 167.588ZM300.027 164.527C300.092 164.086 300.214 163.719 300.402 163.433C300.685 162.999 301.118 162.761 301.727 162.761C302.336 162.761 302.738 163 303.026 163.433C303.218 163.719 303.301 164.102 303.334 164.527H300.027ZM304.639 163.557C304.522 163.118 304.234 162.675 304.045 162.472C303.746 162.151 303.455 161.926 303.165 161.801C302.787 161.639 302.333 161.532 301.836 161.532C301.258 161.532 300.732 161.629 300.306 161.829C299.879 162.03 299.52 162.303 299.238 162.644C298.957 162.984 298.745 163.388 298.61 163.848C298.475 164.305 298.406 164.803 298.406 165.328C298.406 165.862 298.477 166.36 298.617 166.808C298.758 167.26 298.984 167.657 299.289 167.987C299.594 168.318 299.986 168.578 300.455 168.759C300.921 168.939 301.488 169.033 302.138 169.031C303.477 169.027 304.183 168.728 304.473 168.568C304.525 168.539 304.574 168.489 304.512 168.346L304.209 167.496C304.164 167.37 304.035 167.417 304.035 167.417C303.703 167.54 303.231 167.761 302.132 167.759C301.412 167.758 300.879 167.546 300.545 167.214C300.202 166.874 300.035 166.375 300.005 165.671L304.642 165.675C304.642 165.675 304.764 165.673 304.777 165.555C304.781 165.505 304.936 164.602 304.639 163.557ZM262.891 164.527C262.957 164.086 263.078 163.719 263.266 163.433C263.549 162.999 263.982 162.761 264.591 162.761C265.2 162.761 265.602 163 265.891 163.433C266.082 163.719 266.165 164.102 266.198 164.527H262.891ZM267.502 163.557C267.385 163.118 267.098 162.675 266.909 162.472C266.61 162.151 266.319 161.926 266.029 161.801C265.651 161.639 265.197 161.532 264.7 161.532C264.123 161.532 263.596 161.629 263.17 161.829C262.743 162.03 262.384 162.303 262.102 162.644C261.821 162.984 261.609 163.388 261.474 163.848C261.34 164.305 261.27 164.803 261.27 165.328C261.27 165.862 261.341 166.36 261.481 166.808C261.623 167.26 261.848 167.657 262.154 167.987C262.458 168.318 262.85 168.578 263.319 168.759C263.785 168.939 264.352 169.033 265.003 169.031C266.342 169.027 267.047 168.728 267.338 168.568C267.389 168.539 267.438 168.489 267.376 168.346L267.074 167.496C267.028 167.37 266.899 167.417 266.899 167.417C266.567 167.54 266.097 167.761 264.995 167.759C264.277 167.758 263.743 167.546 263.409 167.214C263.066 166.874 262.899 166.375 262.869 165.671L267.506 165.675C267.506 165.675 267.628 165.673 267.641 165.555C267.645 165.505 267.8 164.602 267.502 163.557ZM252.868 167.563C252.687 167.418 252.662 167.382 252.6 167.288C252.509 167.146 252.462 166.943 252.462 166.686C252.462 166.278 252.597 165.985 252.876 165.788C252.872 165.789 253.275 165.44 254.221 165.452C254.885 165.462 255.479 165.56 255.479 165.56V167.668H255.48C255.48 167.668 254.891 167.794 254.227 167.834C253.284 167.891 252.864 167.562 252.868 167.563ZM254.713 164.305C254.525 164.291 254.281 164.283 253.989 164.283C253.591 164.283 253.207 164.333 252.847 164.43C252.485 164.527 252.159 164.679 251.879 164.879C251.599 165.079 251.369 165.341 251.206 165.644C251.042 165.949 250.959 166.309 250.959 166.713C250.959 167.123 251.03 167.48 251.171 167.772C251.312 168.064 251.516 168.308 251.776 168.496C252.034 168.684 252.352 168.822 252.721 168.905C253.084 168.989 253.497 169.031 253.948 169.031C254.423 169.031 254.897 168.992 255.357 168.913C255.811 168.836 256.37 168.723 256.525 168.688C256.633 168.662 256.742 168.634 256.85 168.605C256.965 168.576 256.956 168.453 256.956 168.453L256.953 164.213C256.953 163.283 256.705 162.593 256.216 162.166C255.729 161.74 255.012 161.524 254.086 161.524C253.738 161.524 253.179 161.572 252.844 161.639C252.844 161.639 251.831 161.835 251.414 162.161C251.414 162.161 251.322 162.218 251.373 162.346L251.701 163.228C251.742 163.342 251.852 163.303 251.852 163.303C251.852 163.303 251.888 163.29 251.929 163.266C252.821 162.78 253.949 162.795 253.949 162.795C254.451 162.795 254.836 162.895 255.096 163.095C255.349 163.288 255.477 163.581 255.477 164.199V164.395C255.079 164.338 254.713 164.305 254.713 164.305ZM292.113 161.916C292.148 161.811 292.074 161.761 292.043 161.749C291.964 161.719 291.57 161.635 291.266 161.616C290.683 161.581 290.36 161.679 290.07 161.809C289.783 161.938 289.464 162.148 289.286 162.386V161.822C289.286 161.744 289.23 161.681 289.153 161.681H287.964C287.887 161.681 287.831 161.743 287.831 161.822V168.738C287.831 168.816 287.895 168.88 287.972 168.88H289.191C289.228 168.88 289.264 168.865 289.29 168.838C289.316 168.812 289.331 168.776 289.331 168.738V165.283C289.331 164.819 289.382 164.357 289.485 164.066C289.585 163.779 289.722 163.549 289.89 163.383C290.06 163.219 290.253 163.104 290.464 163.039C290.679 162.973 290.917 162.952 291.086 162.952C291.328 162.952 291.595 163.014 291.595 163.014C291.684 163.024 291.734 162.97 291.764 162.889C291.844 162.677 292.069 162.042 292.113 161.916Z" fill="white"/>
<path d="M280.678 158.71C280.529 158.665 280.395 158.634 280.219 158.601C280.042 158.569 279.83 158.553 279.589 158.553C278.75 158.553 278.089 158.79 277.626 159.257C277.164 159.722 276.851 160.43 276.693 161.361L276.636 161.674H275.584C275.584 161.674 275.456 161.67 275.428 161.809L275.256 162.774C275.244 162.865 275.284 162.923 275.407 162.923H276.431L275.392 168.726C275.311 169.193 275.218 169.578 275.114 169.869C275.012 170.156 274.913 170.372 274.79 170.529C274.672 170.68 274.56 170.791 274.366 170.856C274.207 170.91 274.022 170.935 273.82 170.935C273.709 170.935 273.56 170.916 273.449 170.894C273.34 170.872 273.281 170.848 273.198 170.813C273.198 170.813 273.079 170.767 273.031 170.887C272.993 170.986 272.72 171.737 272.687 171.829C272.655 171.922 272.7 171.993 272.758 172.015C272.895 172.063 272.996 172.095 273.182 172.139C273.44 172.2 273.657 172.203 273.861 172.203C274.288 172.203 274.677 172.143 275 172.026C275.324 171.909 275.606 171.705 275.857 171.429C276.127 171.131 276.297 170.818 276.459 170.391C276.619 169.969 276.757 169.445 276.867 168.834L277.912 162.923H279.439C279.439 162.923 279.567 162.928 279.594 162.788L279.767 161.824C279.778 161.731 279.74 161.674 279.615 161.674H278.133C278.141 161.641 278.208 161.119 278.378 160.628C278.451 160.42 278.587 160.25 278.702 160.134C278.817 160.02 278.948 159.939 279.091 159.892C279.238 159.844 279.406 159.821 279.589 159.821C279.728 159.821 279.866 159.837 279.97 159.859C280.113 159.89 280.169 159.906 280.207 159.917C280.358 159.963 280.379 159.918 280.409 159.845L280.763 158.872C280.799 158.767 280.709 158.723 280.678 158.71ZM259.962 168.739C259.962 168.816 259.907 168.879 259.829 168.879H258.599C258.522 168.879 258.467 168.816 258.467 168.739V158.842C258.467 158.765 258.522 158.702 258.599 158.702H259.829C259.907 158.702 259.962 158.765 259.962 158.842V168.739Z" fill="white"/>
</g>
<rect x="61" y="113" width="113" height="103" rx="12" fill="#181F23"/>
<g clip-path="url(#clip1_2102_9190)">
<path fill-rule="evenodd" clip-rule="evenodd" d="M110.712 137.133C110.005 137.134 109.306 137.274 108.653 137.545C108 137.816 107.407 138.213 106.908 138.713C106.409 139.213 106.013 139.807 105.743 140.46C105.474 141.113 105.335 141.813 105.336 142.52C105.335 143.227 105.474 143.927 105.744 144.58C106.014 145.233 106.409 145.826 106.909 146.326C107.408 146.827 108.001 147.224 108.653 147.495C109.306 147.766 110.005 147.905 110.712 147.906H116.088V142.52C116.089 141.813 115.95 141.113 115.681 140.46C115.411 139.807 115.015 139.213 114.516 138.713C114.017 138.213 113.424 137.816 112.771 137.545C112.118 137.274 111.419 137.134 110.712 137.133ZM110.712 151.498H96.376C95.6694 151.499 94.9698 151.639 94.3172 151.91C93.6646 152.181 93.0717 152.578 92.5725 153.078C92.0733 153.578 91.6775 154.171 91.4077 154.824C91.1379 155.478 90.9993 156.177 91 156.884C90.9992 157.591 91.1377 158.291 91.4074 158.944C91.6772 159.597 92.073 160.191 92.5722 160.691C93.0714 161.191 93.6643 161.588 94.3169 161.859C94.9696 162.131 95.6693 162.27 96.376 162.271H110.712C111.419 162.27 112.118 162.131 112.771 161.859C113.424 161.588 114.017 161.191 114.516 160.691C115.015 160.191 115.411 159.597 115.681 158.944C115.95 158.291 116.089 157.591 116.088 156.884C116.089 156.177 115.95 155.478 115.68 154.824C115.41 154.171 115.015 153.578 114.515 153.078C114.016 152.578 113.423 152.181 112.771 151.91C112.118 151.639 111.419 151.499 110.712 151.498Z" fill="#36C5F0"/>
<path fill-rule="evenodd" clip-rule="evenodd" d="M144.76 156.884C144.761 156.177 144.622 155.478 144.352 154.824C144.083 154.171 143.687 153.578 143.188 153.078C142.688 152.578 142.096 152.181 141.443 151.91C140.79 151.639 140.091 151.499 139.384 151.498C138.677 151.499 137.978 151.639 137.325 151.91C136.673 152.181 136.08 152.578 135.581 153.078C135.081 153.578 134.686 154.171 134.416 154.824C134.146 155.478 134.007 156.177 134.008 156.884V162.271H139.384C140.091 162.27 140.791 162.131 141.443 161.859C142.096 161.588 142.689 161.191 143.188 160.691C143.687 160.191 144.083 159.597 144.353 158.944C144.622 158.291 144.761 157.591 144.76 156.884ZM130.424 156.884V142.52C130.425 141.813 130.286 141.113 130.017 140.46C129.747 139.807 129.351 139.213 128.852 138.713C128.353 138.213 127.76 137.816 127.107 137.545C126.455 137.274 125.755 137.134 125.048 137.133C124.341 137.134 123.642 137.274 122.989 137.545C122.336 137.816 121.744 138.213 121.244 138.713C120.745 139.213 120.349 139.807 120.08 140.46C119.81 141.113 119.671 141.813 119.672 142.52V156.884C119.671 157.591 119.81 158.291 120.08 158.944C120.349 159.597 120.745 160.191 121.244 160.691C121.744 161.191 122.336 161.588 122.989 161.859C123.642 162.131 124.341 162.27 125.048 162.271C125.755 162.27 126.455 162.131 127.107 161.859C127.76 161.588 128.353 161.191 128.852 160.691C129.351 160.191 129.747 159.597 130.017 158.944C130.286 158.291 130.425 157.591 130.424 156.884Z" fill="#2EB67D"/>
<path fill-rule="evenodd" clip-rule="evenodd" d="M125.048 191C125.755 190.999 126.455 190.86 127.107 190.588C127.76 190.317 128.353 189.92 128.852 189.42C129.351 188.92 129.747 188.326 130.017 187.673C130.286 187.02 130.425 186.32 130.424 185.613C130.425 184.906 130.286 184.207 130.016 183.553C129.747 182.9 129.351 182.307 128.852 181.807C128.352 181.307 127.76 180.91 127.107 180.639C126.454 180.368 125.755 180.228 125.048 180.227H119.672V185.613C119.671 186.32 119.81 187.02 120.08 187.673C120.349 188.326 120.745 188.92 121.244 189.42C121.744 189.92 122.336 190.317 122.989 190.588C123.642 190.86 124.341 190.999 125.048 191ZM125.048 176.635H139.384C140.091 176.634 140.79 176.495 141.443 176.224C142.096 175.953 142.688 175.556 143.188 175.055C143.687 174.555 144.083 173.962 144.352 173.309C144.622 172.656 144.761 171.956 144.76 171.249C144.761 170.542 144.622 169.842 144.353 169.189C144.083 168.536 143.687 167.942 143.188 167.442C142.689 166.942 142.096 166.545 141.443 166.274C140.791 166.003 140.091 165.863 139.384 165.862H125.048C124.341 165.863 123.642 166.003 122.989 166.274C122.336 166.545 121.744 166.942 121.244 167.442C120.745 167.942 120.349 168.536 120.08 169.189C119.81 169.842 119.671 170.542 119.672 171.249C119.671 171.956 119.81 172.656 120.08 173.309C120.35 173.962 120.745 174.555 121.245 175.055C121.744 175.556 122.337 175.953 122.989 176.224C123.642 176.495 124.341 176.634 125.048 176.635Z" fill="#ECB22E"/>
<path fill-rule="evenodd" clip-rule="evenodd" d="M91 171.249C90.9993 171.956 91.1379 172.656 91.4077 173.309C91.6775 173.962 92.0733 174.555 92.5725 175.055C93.0717 175.556 93.6646 175.953 94.3172 176.224C94.9698 176.495 95.6694 176.634 96.376 176.635C97.0826 176.634 97.7822 176.495 98.4348 176.224C99.0874 175.953 99.6803 175.556 100.179 175.055C100.679 174.555 101.075 173.962 101.344 173.309C101.614 172.656 101.753 171.956 101.752 171.249V165.862H96.376C95.6692 165.863 94.9694 166.003 94.3167 166.274C93.664 166.545 93.0711 166.942 92.5718 167.442C92.0726 167.943 91.6768 168.537 91.4071 169.19C91.1374 169.843 90.9991 170.542 91 171.249ZM105.336 171.249V185.613C105.335 186.32 105.474 187.02 105.743 187.673C106.013 188.326 106.409 188.92 106.908 189.42C107.407 189.92 108 190.317 108.653 190.588C109.306 190.86 110.005 190.999 110.712 191C111.419 190.999 112.118 190.86 112.771 190.588C113.424 190.317 114.017 189.92 114.516 189.42C115.015 188.92 115.411 188.326 115.681 187.673C115.95 187.02 116.089 186.32 116.088 185.613V171.25C116.089 170.543 115.95 169.843 115.681 169.19C115.411 168.537 115.015 167.943 114.516 167.443C114.017 166.943 113.424 166.546 112.771 166.275C112.118 166.004 111.419 165.864 110.712 165.863C110.005 165.864 109.306 166.004 108.653 166.275C108 166.546 107.407 166.943 106.908 167.443C106.409 167.943 106.013 168.537 105.743 169.19C105.474 169.843 105.335 170.542 105.336 171.249Z" fill="#E01E5A"/>
</g>
<rect x="367" y="113" width="113" height="103" rx="12" fill="#181F23"/>
<g clip-path="url(#clip2_2102_9190)">
<path fill-rule="evenodd" clip-rule="evenodd" d="M425.403 165.96C424.66 167.442 423.388 168.396 422.01 168.718C421.802 168.718 421.483 168.823 421.164 168.823C418.835 168.823 417.458 167.021 417.458 164.373C417.458 160.979 419.47 159.392 422.01 158.647C423.388 158.33 424.98 158.223 426.568 158.223V159.496C426.568 161.933 426.673 163.839 425.403 165.96ZM426.568 153.352C425.191 153.457 423.599 153.562 422.01 153.77C419.575 154.092 417.14 154.516 415.13 155.47C411.21 157.06 408.56 160.45 408.56 165.429C408.56 171.686 412.584 174.862 417.673 174.862C419.366 174.862 420.743 174.648 422.01 174.334C424.028 173.696 425.719 172.53 427.731 170.409C428.897 171.999 429.218 172.744 431.228 174.439C431.758 174.648 432.288 174.648 432.709 174.334C433.982 173.272 436.209 171.364 437.372 170.304C437.902 169.881 437.798 169.244 437.476 168.718C436.313 167.233 435.145 165.96 435.145 163.099V153.561C435.145 149.535 435.467 145.825 432.5 143.072C430.065 140.85 426.25 140 423.283 140H422.01C416.612 140.313 410.894 142.646 409.618 149.323C409.406 150.173 410.044 150.489 410.468 150.593L416.4 151.336C417.035 151.229 417.354 150.698 417.458 150.173C417.986 147.841 419.894 146.675 422.01 146.46H422.437C423.709 146.46 425.087 146.991 425.826 148.053C426.673 149.323 426.568 151.02 426.568 152.505V153.352Z" fill="white"/>
<path fill-rule="evenodd" clip-rule="evenodd" d="M447.994 175.946V175.944C447.972 175.444 447.867 175.063 447.659 174.746L447.636 174.716L447.611 174.684C447.399 174.453 447.196 174.365 446.976 174.269C446.318 174.015 445.361 173.879 444.21 173.877C443.383 173.877 442.471 173.956 441.554 174.157L441.551 174.094L440.628 174.402L440.611 174.41L440.089 174.58V174.602C439.492 174.85 438.927 175.167 438.405 175.548C438.083 175.788 437.818 176.108 437.803 176.596C437.803 176.739 437.834 176.88 437.895 177.01C437.955 177.139 438.043 177.254 438.153 177.346C438.273 177.442 438.411 177.512 438.559 177.551C438.708 177.591 438.862 177.6 439.014 177.578L439.059 177.576L439.093 177.57C439.545 177.474 440.203 177.409 440.973 177.302C441.633 177.228 442.333 177.175 442.94 177.175C443.369 177.172 443.755 177.203 444.02 177.259C444.134 177.28 444.245 177.317 444.348 177.369C444.369 177.456 444.377 177.546 444.373 177.635C444.379 178.143 444.165 179.086 443.868 180.007C443.58 180.927 443.23 181.85 442.999 182.463C442.938 182.611 442.907 182.769 442.906 182.929C442.9 183.175 443.002 183.474 443.216 183.672C443.426 183.869 443.696 183.948 443.922 183.948H443.933C444.272 183.945 444.56 183.81 444.808 183.615C447.151 181.509 447.966 178.143 448 176.248L447.994 175.946ZM441.049 178.866C440.802 178.865 440.558 178.92 440.335 179.026C440.078 179.128 439.815 179.247 439.567 179.352L439.203 179.504L438.729 179.694V179.699C433.579 181.789 428.169 183.014 423.162 183.121C422.978 183.127 422.792 183.127 422.614 183.127C414.74 183.132 408.317 179.479 401.837 175.879C401.627 175.764 401.392 175.702 401.152 175.698C400.861 175.698 400.562 175.808 400.344 176.011C400.235 176.115 400.148 176.24 400.089 176.378C400.03 176.516 400 176.665 400 176.816C399.997 177.208 400.209 177.57 400.505 177.804C406.587 183.087 413.253 187.994 422.22 188C422.395 188 422.573 187.994 422.75 187.992C428.454 187.864 434.903 185.936 439.91 182.791L439.94 182.771C440.612 182.37 441.256 181.925 441.868 181.438C442.252 181.153 442.518 180.707 442.518 180.244C442.501 179.422 441.802 178.866 441.049 178.866Z" fill="#FF9A00"/>
</g>
<rect x="214" y="247" width="113" height="103" rx="12" fill="#181F23"/>
<g clip-path="url(#clip3_2102_9190)">
<path d="M299.969 298.561C299.969 296.103 299.772 294.309 299.345 292.449H271.578V303.544H287.876C287.548 306.301 285.773 310.454 281.83 313.244L281.775 313.615L290.554 320.491L291.163 320.552C296.749 315.337 299.969 307.663 299.969 298.561Z" fill="#4285F4"/>
<path d="M271.578 327.794C279.563 327.794 286.266 325.136 291.163 320.552L281.83 313.244C279.333 315.005 275.981 316.234 271.578 316.234C263.757 316.234 257.119 311.018 254.753 303.81L254.406 303.84L245.277 310.982L245.157 311.317C250.021 321.084 260.011 327.794 271.578 327.794Z" fill="#34A853"/>
<path d="M254.753 303.81C254.128 301.95 253.767 299.956 253.767 297.897C253.767 295.837 254.128 293.844 254.72 291.984L254.703 291.588L245.46 284.331L245.157 284.476C243.153 288.529 242.003 293.08 242.003 297.897C242.003 302.714 243.153 307.264 245.157 311.317L254.753 303.81Z" fill="#FBBC05"/>
<path d="M271.578 279.56C277.131 279.56 280.877 281.985 283.013 284.012L291.36 275.773C286.234 270.956 279.563 268 271.578 268C260.011 268 250.021 274.71 245.157 284.476L254.72 291.984C257.119 284.775 263.757 279.56 271.578 279.56Z" fill="#EB4335"/>
</g>
<rect x="61" y="247" width="113" height="103" rx="12" fill="#181F23"/>
<g clip-path="url(#clip4_2102_9190)">
<path d="M122.999 271H101.749C100.761 271.024 99.8214 271.428 99.1235 272.127C98.4256 272.825 98.0233 273.766 98 274.753V322.252C98.0233 323.24 98.4262 324.181 99.1251 324.88C99.8239 325.579 100.765 325.982 101.753 326.005H134.247C135.235 325.982 136.176 325.579 136.875 324.88C137.574 324.181 137.977 323.24 138 322.252V286.004L129.251 279.749L122.999 271Z" fill="#4285F4"/>
<path d="M107.999 310.999H127.999V308.5H107.999V310.999ZM107.999 316H122.997V313.5H107.999V316ZM107.999 298.5V300.999H127.999V298.499L107.999 298.5ZM107.999 305.999H127.999V303.5H107.999V305.999Z" fill="#F1F1F1"/>
<path d="M122.999 271V282.25C123.023 283.237 123.426 284.177 124.123 284.874C124.821 285.572 125.761 285.975 126.748 285.999H137.998L122.999 271Z" fill="#A1C2FA"/>
</g>
<rect x="367" y="247" width="113" height="103" rx="12" fill="#181F23"/>
<path d="M424.158 274.594C411.846 274.594 401.875 284.565 401.875 296.876C401.875 301.837 403.499 306.419 406.238 310.124L400.56 322.406L402.044 321.719L413.479 316.44C416.647 318.173 420.283 319.159 424.148 319.159C436.449 319.159 446.43 309.188 446.43 296.876C446.44 284.565 436.459 274.594 424.158 274.594ZM436.041 306.389C435.911 307.007 435.642 307.594 435.254 308.112C434.776 308.75 434.158 309.228 433.451 309.527C432.744 309.826 431.967 309.945 431.19 309.846C429.108 309.596 427.096 308.929 425.293 307.853C423.211 306.618 420.412 304.696 418.3 301.946C416.049 299.307 414.824 296.219 414.047 293.918C413.38 291.936 413.141 289.824 413.33 287.742C413.4 286.955 413.679 286.218 414.117 285.591C414.555 284.963 415.163 284.455 415.88 284.126C416.468 283.847 417.105 283.718 417.733 283.718C418.629 283.718 419.725 283.708 420.482 284.246C421.657 285.073 422.155 286.706 422.155 288.141C422.155 288.27 422.145 288.41 422.135 288.539C422.066 289.326 421.996 290.013 421.548 290.641C421.109 291.268 420.303 291.816 419.585 292.155C420.133 295.103 421.08 297.295 422.384 298.709C422.942 299.486 423.699 300.223 424.666 300.911C425.632 301.598 426.797 302.225 428.182 302.803C428.66 302.176 429.367 301.498 430.074 301.199C430.772 300.901 431.469 300.97 432.246 301.07C432.375 301.09 432.515 301.11 432.644 301.14C434.039 301.438 435.533 302.265 436.101 303.59C436.459 304.447 436.23 305.513 436.041 306.389Z" fill="#68D895"/>
<path d="M174 90C174 94.4183 170.418 98 166 98H69C64.5817 98 61 94.4183 61 90V88H174V90Z" fill="#85DDCB"/>
<defs>
<clipPath id="clip0_2102_9190">
<rect width="80" height="56" fill="white" transform="translate(233 139)"/>
</clipPath>
<clipPath id="clip1_2102_9190">
<rect width="54" height="54" fill="white" transform="translate(91 137)"/>
</clipPath>
<clipPath id="clip2_2102_9190">
<rect width="48" height="48" fill="white" transform="translate(400 140)"/>
</clipPath>
<clipPath id="clip3_2102_9190">
<rect width="58" height="60" fill="white" transform="translate(242 268)"/>
</clipPath>
<clipPath id="clip4_2102_9190">
<rect width="40" height="55" fill="white" transform="translate(98 271)"/>
</clipPath>
</defs>
</svg>
