<svg width="542" height="427" viewBox="0 0 542 427" fill="none" xmlns="http://www.w3.org/2000/svg">
<rect width="542" height="427" fill="#0C1012"/>
<rect x="69" y="77" width="236" height="159" rx="16" fill="#181F23"/>
<rect x="69.5" y="77.5" width="235" height="158" rx="15.5" stroke="white" stroke-opacity="0.1"/>
<circle cx="128" cy="156" r="43" fill="white" fill-opacity="0.05"/>
<path d="M131.053 167.111V165.934C131.838 165.777 132.466 165.581 132.858 165.424C133.25 165.228 133.525 164.953 133.721 164.639C133.917 164.286 133.996 163.855 133.996 163.266C133.996 162.717 133.917 162.129 133.799 161.501C133.682 160.873 133.486 160.167 133.25 159.382L132.348 156.283H121.167L120.343 158.637C119.912 159.814 119.637 160.716 119.519 161.305C119.402 161.932 119.323 162.482 119.323 162.952C119.323 163.894 119.559 164.6 120.069 165.071C120.539 165.502 121.285 165.816 122.305 165.973V167.15H112.065V165.973C112.968 165.816 113.752 165.306 114.419 164.404C115.086 163.502 115.714 162.246 116.342 160.559L126.346 134H130.151L138.311 160.756C138.703 162.011 139.017 162.952 139.331 163.619C139.645 164.286 139.998 164.796 140.39 165.149C140.822 165.502 141.371 165.777 142.077 165.973V167.15H131.053V167.111ZM121.834 154.165H131.877L127.326 138.668L121.834 154.165ZM102.14 177.272C101.552 177.272 101.042 176.801 101.002 176.213C100.963 175.585 101.434 175.036 102.062 174.996L154.239 171.623C154.866 171.583 155.416 172.054 155.455 172.682C155.494 173.309 155.023 173.859 154.396 173.898L102.218 177.272C102.218 177.272 102.179 177.272 102.14 177.272Z" fill="#85DDCB"/>
<rect x="187" y="148" width="99" height="14" rx="7" fill="#242A2E"/>
<rect x="187" y="126" width="99" height="14" rx="7" fill="#242A2E"/>
<rect x="187" y="172" width="99" height="14" rx="7" fill="#242A2E"/>
<rect x="237" y="172" width="236" height="159" rx="16" fill="#181F23"/>
<rect x="237.5" y="172.5" width="235" height="158" rx="15.5" stroke="white" stroke-opacity="0.1"/>
<circle cx="296" cy="251" r="43" fill="white" fill-opacity="0.05"/>
<rect x="355" y="243" width="99" height="14" rx="7" fill="#242A2E"/>
<rect x="355" y="221" width="99" height="14" rx="7" fill="#242A2E"/>
<rect x="355" y="267" width="99" height="14" rx="7" fill="#242A2E"/>
<path d="M282.02 262.287V261.089C283.047 260.832 283.689 260.533 284.031 260.233C284.373 259.934 284.587 259.463 284.716 258.864C284.801 258.265 284.887 257.367 284.887 256.169V235.076C284.887 233.963 284.844 233.15 284.759 232.637C284.673 232.123 284.545 231.738 284.373 231.439C284.202 231.139 283.946 230.925 283.646 230.754C283.347 230.583 282.79 230.412 282.063 230.198V229H295.412C297.979 229 300.076 229.257 301.659 229.813C303.242 230.369 304.397 231.182 305.167 232.252C305.937 233.321 306.322 234.733 306.322 236.445C306.322 237.857 306.066 239.097 305.51 240.124C304.953 241.151 304.269 242.007 303.37 242.691C302.472 243.376 301.359 244.018 299.99 244.574V244.788C302.215 245.472 303.884 246.499 304.996 247.868C306.151 249.238 306.708 250.906 306.708 252.832C306.708 255.056 306.237 256.853 305.253 258.265C304.269 259.677 302.9 260.661 301.103 261.303C299.348 261.945 297.166 262.244 294.685 262.244H282.02V262.287ZM293.701 243.932C296.182 243.932 298.065 243.333 299.391 242.135C300.718 240.937 301.359 239.226 301.359 236.915C301.359 235.803 301.188 234.862 300.803 234.134C300.418 233.407 299.947 232.808 299.306 232.38C298.664 231.952 297.894 231.61 297.038 231.439C296.139 231.268 295.198 231.139 294.171 231.139C293.572 231.139 292.759 231.139 291.733 231.182C290.706 231.225 289.978 231.268 289.465 231.268V243.889H293.701V243.932ZM289.465 259.977C290.663 260.105 291.989 260.148 293.444 260.148C295.583 260.148 297.209 259.891 298.407 259.335C299.605 258.779 300.418 258.009 300.974 256.939C301.488 255.869 301.787 254.586 301.787 253.003C301.787 251.42 301.488 250.136 300.931 249.109C300.375 248.082 299.477 247.312 298.279 246.799C297.081 246.285 295.412 246.029 293.316 246.029H289.55V259.977H289.465ZM268.243 273.754C267.601 273.754 267.045 273.24 267.002 272.599C266.96 271.914 267.473 271.315 268.158 271.272L325.063 267.593C325.747 267.55 326.346 268.063 326.389 268.748C326.432 269.432 325.918 270.031 325.234 270.074L268.329 273.754C268.286 273.754 268.286 273.754 268.243 273.754Z" fill="#85DDCB"/>
<g clip-path="url(#clip0_2102_11392)">
<path d="M269.983 325.983C264.627 331.339 255.946 331.339 250.59 325.983L226.391 301.784C216.442 308.166 204.682 311.969 191.985 311.969C156.649 311.969 128 283.323 128 247.984C128 212.645 156.649 184 191.985 184C227.324 184 255.969 212.645 255.969 247.984C255.969 260.678 252.162 272.442 245.784 282.396L269.983 306.595C275.339 311.951 275.339 320.627 269.983 325.983ZM191.985 202.281C166.745 202.281 146.281 222.74 146.281 247.984C146.281 273.228 166.745 293.687 191.985 293.687C217.228 293.687 237.687 273.228 237.687 247.984C237.687 222.74 217.228 202.281 191.985 202.281Z" fill="#85DDCB"/>
</g>
<defs>
<clipPath id="clip0_2102_11392">
<rect width="146" height="146" fill="white" transform="translate(128 184)"/>
</clipPath>
</defs>
</svg>
