<svg width="517" height="204" viewBox="0 0 517 204" fill="none" xmlns="http://www.w3.org/2000/svg">
<rect width="517" height="204" fill="#0C1012"/>
<rect x="35" y="60" width="145" height="72" rx="16" fill="#85DDCB" fill-opacity="0.05"/>
<path d="M465.853 47.6633H444.904V173.968H465.853V47.6633Z" fill="white" fill-opacity="0.1"/>
<path d="M434.867 65.8918H413.919V173.973H434.867V65.8918Z" fill="white" fill-opacity="0.1"/>
<path d="M403.877 84.1204H382.929V173.973H403.877V84.1204Z" fill="white" fill-opacity="0.1"/>
<path d="M372.892 98.3387H351.944V173.968H372.892V98.3387Z" fill="white" fill-opacity="0.1"/>
<path d="M341.907 120.573H320.958V173.968H341.907V120.573Z" fill="white" fill-opacity="0.1"/>
<path d="M310.921 138.801H289.973V173.973H310.921V138.801Z" fill="white" fill-opacity="0.1"/>
<path d="M274.71 148.413L271 145.776L304.918 98.0983L330.866 107.317L382.73 57.0529L396.579 67.2333L446.32 24.8696L449.271 28.334L396.787 73.0335L383.133 62.9965L332.004 112.548L306.634 103.538L274.71 148.413Z" fill="#85DDCB"/>
<path d="M448.276 36.8816L446.542 27.0666L437.518 22.839L457.069 19L448.276 36.8816Z" fill="#85DDCB"/>
<path d="M55.0511 104.568V84.4545H60.1364V104.568H55.0511ZM47.5369 97.054V91.9688H67.6506V97.054H47.5369ZM82.3629 103.886V99.0426L94.5078 79.9091H98.6839V86.6136H96.2124L88.5561 98.7301V98.9574H105.815V103.886H82.3629ZM96.326 109V102.409L96.4396 100.264V79.9091H102.207V109H96.326ZM121.319 109.639C118.876 109.63 116.773 109.028 115.012 107.835C113.26 106.642 111.911 104.914 110.964 102.651C110.026 100.387 109.562 97.6648 109.572 94.483C109.572 91.3106 110.04 88.607 110.978 86.3722C111.925 84.1373 113.274 82.4375 115.026 81.2727C116.788 80.0985 118.885 79.5114 121.319 79.5114C123.753 79.5114 125.845 80.0985 127.597 81.2727C129.359 82.447 130.713 84.1515 131.66 86.3864C132.607 88.6117 133.076 91.3106 133.066 94.483C133.066 97.6742 132.593 100.402 131.646 102.665C130.708 104.928 129.363 106.656 127.612 107.849C125.86 109.043 123.762 109.639 121.319 109.639ZM121.319 104.54C122.986 104.54 124.316 103.702 125.31 102.026C126.305 100.349 126.797 97.8352 126.788 94.483C126.788 92.2765 126.56 90.4394 126.106 88.9716C125.661 87.5038 125.026 86.4006 124.202 85.6619C123.388 84.9233 122.427 84.554 121.319 84.554C119.662 84.554 118.336 85.3826 117.342 87.0398C116.347 88.697 115.845 91.178 115.836 94.483C115.836 96.7178 116.058 98.5833 116.504 100.08C116.958 101.566 117.597 102.684 118.421 103.432C119.245 104.17 120.211 104.54 121.319 104.54ZM153.375 103.545V102.011C153.375 100.847 153.621 99.7765 154.114 98.8011C154.616 97.8163 155.34 97.0303 156.287 96.4432C157.243 95.8466 158.408 95.5483 159.781 95.5483C161.173 95.5483 162.343 95.8419 163.29 96.429C164.246 97.0161 164.966 97.8021 165.449 98.7869C165.941 99.7623 166.188 100.837 166.188 102.011V103.545C166.188 104.71 165.941 105.785 165.449 106.77C164.956 107.745 164.232 108.527 163.276 109.114C162.319 109.71 161.154 110.009 159.781 110.009C158.389 110.009 157.22 109.71 156.273 109.114C155.326 108.527 154.606 107.745 154.114 106.77C153.621 105.785 153.375 104.71 153.375 103.545ZM157.509 102.011V103.545C157.509 104.218 157.67 104.852 157.991 105.449C158.323 106.045 158.92 106.344 159.781 106.344C160.643 106.344 161.23 106.05 161.543 105.463C161.865 104.876 162.026 104.237 162.026 103.545V102.011C162.026 101.32 161.874 100.676 161.571 100.08C161.268 99.483 160.671 99.1847 159.781 99.1847C158.929 99.1847 158.337 99.483 158.006 100.08C157.674 100.676 157.509 101.32 157.509 102.011ZM138.446 86.8977V85.3636C138.446 84.1894 138.697 83.1146 139.199 82.1392C139.701 81.1544 140.425 80.3684 141.372 79.7812C142.329 79.1941 143.484 78.9006 144.838 78.9006C146.24 78.9006 147.414 79.1941 148.361 79.7812C149.308 80.3684 150.027 81.1544 150.52 82.1392C151.012 83.1146 151.259 84.1894 151.259 85.3636V86.8977C151.259 88.072 151.008 89.1468 150.506 90.1222C150.013 91.0975 149.289 91.8788 148.332 92.4659C147.385 93.0436 146.221 93.3324 144.838 93.3324C143.455 93.3324 142.286 93.0388 141.33 92.4517C140.383 91.8551 139.663 91.0739 139.17 90.108C138.688 89.1326 138.446 88.0625 138.446 86.8977ZM142.608 85.3636V86.8977C142.608 87.589 142.769 88.2282 143.091 88.8153C143.422 89.4025 144.005 89.696 144.838 89.696C145.709 89.696 146.301 89.4025 146.614 88.8153C146.936 88.2282 147.097 87.589 147.097 86.8977V85.3636C147.097 84.6723 146.945 84.0284 146.642 83.4318C146.339 82.8352 145.738 82.5369 144.838 82.5369C143.995 82.5369 143.413 82.84 143.091 83.446C142.769 84.0521 142.608 84.6913 142.608 85.3636ZM140.321 109L160.321 79.9091H164.043L144.043 109H140.321Z" fill="#85DDCB"/>
</svg>
