<svg width="12" height="12" viewBox="0 0 12 12" fill="none" xmlns="http://www.w3.org/2000/svg">
<g clip-path="url(#clip0_2101_9073)">
<path fill-rule="evenodd" clip-rule="evenodd" d="M11.1846 8.838C10.4911 9.4675 9.59958 10.027 8.51858 10.5465C8.54058 10.5615 8.56158 10.575 8.58358 10.588L8.59258 10.593L8.60208 10.599C8.71008 10.6605 8.81208 10.691 8.92258 10.691C9.03358 10.691 9.13558 10.6605 9.24358 10.599L9.25258 10.5935L9.26208 10.588C9.33208 10.546 9.39508 10.499 9.50808 10.405L9.59708 10.331C9.73658 10.215 9.81008 10.16 9.90958 10.103C10.0616 10.016 10.2156 9.97 10.3841 9.97C10.5526 9.97 10.7066 10.016 10.8586 10.103L10.8701 10.11C10.9641 10.1645 11.0371 10.2195 11.1711 10.331L11.2601 10.405C11.3706 10.497 11.4331 10.544 11.5016 10.585L11.5156 10.5935L11.5246 10.5985C11.6296 10.6585 11.7281 10.689 11.8346 10.691H11.8456C11.8669 10.6893 11.8884 10.692 11.9086 10.699C11.9288 10.706 11.9474 10.7171 11.9631 10.7316C11.9789 10.7461 11.9914 10.7637 12 10.7833C12.0086 10.8029 12.013 10.8241 12.013 10.8455C12.013 10.8669 12.0086 10.8881 12 10.9077C11.9914 10.9273 11.9789 10.9449 11.9631 10.9594C11.9474 10.9739 11.9288 10.985 11.9086 10.992C11.8884 10.999 11.8669 11.0017 11.8456 11C11.6771 11 11.5231 10.954 11.3706 10.867C11.3554 10.8582 11.3404 10.8492 11.3256 10.84L11.3146 10.833L11.3036 10.8265L11.2936 10.8195C11.2084 10.7614 11.1266 10.6985 11.0486 10.631L10.9691 10.565C10.8934 10.4988 10.8127 10.4386 10.7276 10.385L10.7141 10.3765L10.7046 10.3715C10.608 10.3123 10.4973 10.2804 10.3841 10.279C10.2731 10.279 10.1711 10.3095 10.0636 10.371L10.0536 10.3765L10.0446 10.382C9.97458 10.424 9.91158 10.471 9.79858 10.565L9.71958 10.631C9.63874 10.7013 9.55357 10.7664 9.46458 10.826L9.45358 10.833L9.44258 10.84L9.39758 10.867C9.25403 10.9531 9.08997 10.999 8.92258 11C8.75408 11 8.60058 10.954 8.44808 10.867C8.43293 10.8582 8.41793 10.8492 8.40308 10.84L8.39208 10.833L8.38108 10.8265L8.36808 10.818C8.29433 10.7678 8.22339 10.7135 8.15558 10.6555C8.13162 10.6443 8.11095 10.627 8.09558 10.6055L8.04658 10.565C7.97092 10.4988 7.89017 10.4386 7.80508 10.385L7.79158 10.3765L7.78208 10.3715C7.68554 10.3123 7.5748 10.2804 7.46158 10.279C7.35058 10.279 7.24858 10.3095 7.14058 10.371L7.13158 10.3765L7.12208 10.382C7.05208 10.424 6.98908 10.471 6.87608 10.565L6.79708 10.631C6.71624 10.7013 6.63107 10.7664 6.54208 10.826L6.53058 10.833L6.51958 10.84L6.47458 10.867C6.33117 10.953 6.1673 10.9989 6.00008 11C5.83158 11 5.67758 10.954 5.52558 10.867C5.51043 10.8582 5.49543 10.8492 5.48058 10.84L5.46958 10.833L5.45858 10.8265L5.44808 10.8195C5.36285 10.7614 5.28105 10.6985 5.20308 10.631L5.12408 10.565C5.04842 10.4988 4.96768 10.4386 4.88258 10.385L4.86858 10.3765L4.85958 10.3715C4.76289 10.3122 4.65197 10.2803 4.53858 10.279C4.42808 10.279 4.32608 10.3095 4.21808 10.371L4.20858 10.3765L4.19958 10.382C4.12908 10.424 4.06658 10.471 3.95358 10.565L3.87458 10.631C3.79358 10.7013 3.70824 10.7664 3.61908 10.826L3.60808 10.833L3.59708 10.84L3.55208 10.867C3.40319 10.9559 3.23248 11.0016 3.05908 10.999C2.68608 10.954 2.39958 10.809 2.11408 10.566L2.09658 10.551C2.07308 10.5305 2.03758 10.498 2.00058 10.464L1.90258 10.3735L1.84908 10.3235L1.84358 10.3185C1.79367 10.2688 1.73713 10.2262 1.67558 10.192C1.66065 10.1845 1.64461 10.1794 1.62808 10.177H1.62558C1.56608 10.188 1.50658 10.2065 1.44508 10.232C1.43396 10.2442 1.42096 10.2545 1.40658 10.2625L1.40258 10.265C1.38303 10.2751 1.36155 10.2809 1.33958 10.282C1.20369 10.3576 1.07425 10.4442 0.952581 10.541L0.744581 10.703L0.717081 10.7245C0.664299 10.7655 0.610274 10.8048 0.555081 10.8425C0.402581 10.946 0.279081 11 0.155081 11C0.116158 10.9976 0.0795844 10.9805 0.0526542 10.9523C0.025724 10.9241 0.0104169 10.8868 0.00978593 10.8478C0.00915496 10.8088 0.0232465 10.771 0.04925 10.742C0.0752534 10.7129 0.111258 10.6947 0.150081 10.691H0.155081C0.200081 10.691 0.272581 10.66 0.374081 10.592L0.394081 10.5785C0.432581 10.5515 0.475581 10.52 0.529081 10.479L0.721581 10.3285L0.751581 10.305C0.885581 10.202 1.00458 10.1185 1.11658 10.0525L0.800081 9.4475C0.788218 9.4247 0.782228 9.39931 0.782652 9.37362C0.783077 9.34792 0.789903 9.32274 0.802513 9.30035C0.815122 9.27796 0.833117 9.25907 0.854868 9.24539C0.876619 9.23171 0.901439 9.22367 0.927081 9.222L11.0706 8.5695C11.1026 8.56741 11.1344 8.57531 11.1617 8.59211C11.189 8.60892 11.2104 8.63379 11.2229 8.66329C11.2354 8.69278 11.2384 8.72545 11.2316 8.75675C11.2247 8.78805 11.2083 8.81644 11.1846 8.838ZM10.6256 8.908L1.18458 9.515L1.39608 9.9195C1.46008 9.897 1.52408 9.8805 1.59008 9.8695C1.59866 9.86793 1.60736 9.8671 1.61608 9.867C1.68208 9.867 1.74608 9.883 1.80908 9.9135C1.88558 9.95 1.95608 10.003 2.05058 10.0885L2.05858 10.096L2.10458 10.139L2.17658 10.206L2.22508 10.2505C2.25758 10.2805 2.28758 10.3075 2.30508 10.3225C2.54758 10.5315 2.77908 10.6515 3.08208 10.6905H3.08758C3.19324 10.6877 3.29646 10.6581 3.38758 10.6045L3.39808 10.599L3.40758 10.5935L3.41658 10.588C3.48708 10.546 3.54958 10.499 3.66258 10.405L3.75158 10.331C3.89108 10.215 3.96458 10.16 4.06408 10.103C4.21658 10.016 4.37008 9.97 4.53908 9.97C4.70708 9.97 4.86108 10.016 5.01308 10.103L5.02458 10.11C5.11858 10.1645 5.19208 10.2195 5.32608 10.331L5.41458 10.405C5.52558 10.497 5.58758 10.544 5.65658 10.585L5.67008 10.5935L5.67958 10.5985C5.78708 10.6605 5.88958 10.691 6.00008 10.691C6.11108 10.691 6.21308 10.6605 6.32058 10.599L6.33008 10.5935L6.33908 10.588C6.40958 10.546 6.47258 10.499 6.58558 10.405L6.67408 10.331C6.81408 10.215 6.88758 10.16 6.98708 10.103C7.13908 10.016 7.29308 9.97 7.46158 9.97C7.63008 9.97 7.78358 10.016 7.93608 10.103L7.94858 10.1105C8.04208 10.165 8.11558 10.2205 8.25008 10.332C9.18358 9.893 9.97408 9.4265 10.6151 8.916L10.6256 8.908ZM1.82658 1.013C3.03658 1.53 4.34508 2.4705 5.40008 3.629C6.63008 4.979 7.45458 6.543 7.71858 8.2035C7.72272 8.23048 7.71965 8.25808 7.70969 8.2835C7.69974 8.30892 7.68324 8.33126 7.66188 8.34826C7.64052 8.36526 7.61504 8.37631 7.58804 8.38031C7.56103 8.3843 7.53345 8.38109 7.50808 8.371C6.33408 7.8985 5.23808 7.742 4.21308 7.861C3.34358 7.961 2.54458 8.257 1.80508 8.7125C1.65808 8.8035 1.49508 8.6215 1.60258 8.4855C2.53058 7.308 2.89308 5.9905 2.77408 4.5885C2.67658 3.4425 2.25858 2.2835 1.63208 1.234C1.61568 1.20591 1.60854 1.17337 1.61166 1.14099C1.61477 1.10862 1.628 1.07804 1.64946 1.0536C1.67091 1.02916 1.69952 1.01208 1.73122 1.00479C1.76292 0.997508 1.7961 1.00038 1.82608 1.013H1.82658ZM5.02008 2.225C5.90908 2.4965 6.96608 3.276 7.91108 4.3465C8.90308 5.4705 9.68708 6.8135 10.0846 8.1375C10.0927 8.16491 10.093 8.19404 10.0856 8.22164C10.0782 8.24925 10.0633 8.27427 10.0426 8.29394C10.0218 8.3136 9.99602 8.32714 9.96805 8.33307C9.94008 8.33899 9.91102 8.33706 9.88408 8.3275L9.87308 8.3225L9.68008 8.2455C9.63186 8.22612 9.58335 8.20745 9.53458 8.1895L9.52658 8.1865C9.18658 8.063 8.92708 8.041 8.55458 8.136C8.51528 8.14596 8.47364 8.14013 8.43859 8.11975C8.40354 8.09938 8.37787 8.06608 8.36708 8.027C7.68908 5.5615 6.53658 3.638 4.88758 2.5C4.74208 2.3995 4.85158 2.1735 5.02058 2.225H5.02008ZM2.13658 1.498L2.14058 1.5055C2.65458 2.4755 2.99458 3.521 3.08308 4.562C3.18958 5.8185 2.92808 7.015 2.24658 8.108L2.23658 8.1235L2.23808 8.123C2.83708 7.8325 3.47308 7.6385 4.15058 7.557L4.17808 7.554C5.16858 7.439 6.21958 7.5685 7.33258 7.9725L7.36558 7.985L7.36208 7.9655C7.06558 6.4905 6.30808 5.097 5.20708 3.876L5.17208 3.837C4.27958 2.857 3.20008 2.037 2.16508 1.512L2.13658 1.498ZM6.09658 3.117L6.12058 3.141C7.23908 4.2885 8.06308 5.8565 8.60758 7.7365L8.62658 7.8025L8.63758 7.8005C8.99258 7.734 9.27958 7.769 9.61908 7.8905L9.63258 7.8955L9.66558 7.9075L9.68858 7.9165L9.67608 7.88C9.27058 6.7265 8.57208 5.57 7.70808 4.583L7.67908 4.5505C7.16908 3.973 6.62758 3.4845 6.10408 3.1225L6.09658 3.117Z" fill="#384B4B"/>
</g>
<defs>
<clipPath id="clip0_2101_9073">
<rect width="12" height="12" fill="white"/>
</clipPath>
</defs>
</svg>
