<svg width="36" height="36" viewBox="0 0 36 36" fill="none" xmlns="http://www.w3.org/2000/svg">
<path d="M19 17H32V4.86667C32 4.63681 31.9087 4.41637 31.7462 4.25384C31.5836 4.09131 31.3632 4 31.1333 4H19V17Z" fill="#384B4B"/>
<path d="M17 17V4H4.86667C4.63681 4 4.41637 4.09131 4.25384 4.25384C4.09131 4.41637 4 4.63681 4 4.86667V17H17Z" fill="#384B4B"/>
<path d="M17 19H4V31.1333C4 31.3632 4.09131 31.5836 4.25384 31.7462C4.41637 31.9087 4.63681 32 4.86667 32H17V19Z" fill="#87AEAE"/>
<path d="M19 19V32H31.1333C31.3632 32 31.5836 31.9087 31.7462 31.7462C31.9087 31.5836 32 31.3632 32 31.1333V19H19Z" fill="#384B4B"/>
</svg>
