<svg width="12" height="12" viewBox="0 0 12 12" fill="none" xmlns="http://www.w3.org/2000/svg">
<path d="M1.71387 1.70001H3.42837V3.41401H1.71387V1.70001ZM8.57087 1.70001H10.2859V3.41401H8.57087V1.70001Z" fill="#384B4B"/>
<path d="M1.71387 3.414H5.14237V5.1285H1.71437L1.71387 3.414ZM6.85687 3.414H10.2854V5.1285H6.85687V3.414Z" fill="#384B4B"/>
<path d="M1.71387 5.12903H10.2859V6.84303H1.71387V5.12903Z" fill="#384B4B"/>
<path d="M1.71387 6.84302H3.42837V8.55702H1.71387V6.84302ZM5.14287 6.84302H6.85737V8.55702H5.14287V6.84302ZM8.57087 6.84302H10.2859V8.55702H8.57087V6.84302Z" fill="#384B4B"/>
<path d="M0 8.55701H5.143V10.2715H0V8.55701ZM6.857 8.55701H12V10.2715H6.857V8.55701Z" fill="#384B4B"/>
</svg>
