<svg width="800" height="800" viewBox="0 0 800 800" fill="none" xmlns="http://www.w3.org/2000/svg">
<path d="M407.44 757.282C582.061 757.282 723.62 615.723 723.62 441.102C723.62 266.48 582.061 124.922 407.44 124.922C232.818 124.922 91.2598 266.48 91.2598 441.102C91.2598 615.723 232.818 757.282 407.44 757.282Z" fill="#19262A"/>
<path d="M342.97 267.91L117.27 709.46H700.77L474.91 267.77L342.97 267.91Z" fill="url(#paint0_linear_4569_33192)"/>
<path d="M409.019 285.751C446.475 285.751 476.839 279.246 476.839 271.221C476.839 263.197 446.475 256.691 409.019 256.691C371.563 256.691 341.199 263.197 341.199 271.221C341.199 279.246 371.563 285.751 409.019 285.751Z" fill="#A0FDEA"/>
<path d="M476.839 271.221C476.839 263.221 446.469 256.691 409.019 256.691C371.569 256.691 341.199 263.191 341.199 271.221C341.199 275.501 349.839 279.351 363.589 282.011C368.286 278.554 373.334 275.601 378.649 273.201C401.429 263.031 430.499 263.511 452.309 276.601C454.478 277.974 456.55 279.494 458.509 281.151C469.869 278.551 476.839 275.061 476.839 271.221Z" fill="#85DDCB"/>
<path d="M408.999 288.639C390.689 288.639 373.439 287.109 360.439 284.319C345.539 281.129 338.289 276.839 338.289 271.219C338.289 265.599 345.539 261.309 360.439 258.109C373.439 255.329 390.689 253.789 408.999 253.789C427.309 253.789 444.559 255.329 457.559 258.109C472.459 261.309 479.709 265.589 479.709 271.219C479.709 276.849 472.459 281.129 457.559 284.319C444.579 287.109 427.329 288.639 408.999 288.639ZM408.999 259.579C391.079 259.579 374.269 261.069 361.649 263.769C347.059 266.899 344.079 270.439 344.079 271.219C344.079 271.999 347.079 275.539 361.649 278.669C374.269 281.369 391.079 282.859 408.999 282.859C426.919 282.859 443.729 281.369 456.349 278.669C470.939 275.539 473.919 271.999 473.919 271.219C473.919 270.439 470.919 266.899 456.349 263.769C443.749 261.069 426.939 259.579 408.999 259.579Z" fill="#0E2C26"/>
<path d="M409.02 277.48C422.136 277.48 432.77 266.847 432.77 253.73C432.77 240.614 422.136 229.98 409.02 229.98C395.903 229.98 385.27 240.614 385.27 253.73C385.27 266.847 395.903 277.48 409.02 277.48Z" fill="#E4FFF9"/>
<path d="M408.999 280.362C403.73 280.362 398.579 278.799 394.198 275.872C389.817 272.944 386.402 268.783 384.386 263.914C382.37 259.046 381.843 253.689 382.872 248.521C383.901 243.353 386.439 238.606 390.166 234.881C393.892 231.156 398.64 228.619 403.808 227.593C408.977 226.566 414.333 227.095 419.201 229.113C424.069 231.131 428.229 234.547 431.155 238.929C434.081 243.311 435.641 248.463 435.639 253.732C435.629 260.793 432.818 267.562 427.824 272.554C422.83 277.546 416.061 280.354 408.999 280.362ZM408.999 232.872C404.873 232.87 400.839 234.092 397.407 236.383C393.976 238.674 391.3 241.931 389.72 245.742C388.14 249.554 387.725 253.748 388.529 257.795C389.333 261.843 391.319 265.56 394.236 268.479C397.153 271.397 400.869 273.385 404.916 274.19C408.963 274.996 413.158 274.584 416.97 273.005C420.782 271.427 424.041 268.753 426.333 265.322C428.626 261.892 429.849 257.858 429.849 253.732C429.844 248.203 427.646 242.902 423.737 238.991C419.829 235.081 414.528 232.88 408.999 232.872Z" fill="#0E2C26"/>
<path d="M409.099 256.69C441.009 256.69 467.759 261.41 474.989 267.77L416.759 177C415.758 175.436 414.376 174.154 412.743 173.272C411.11 172.391 409.279 171.94 407.423 171.962C405.567 171.984 403.747 172.478 402.135 173.398C400.523 174.318 399.172 175.633 398.209 177.22L343.049 267.89C349.999 261.48 376.999 256.69 409.099 256.69Z" fill="#9DC3BB"/>
<path d="M438 227.751C440.37 232.621 440.69 237.361 438.7 238.321C436.71 239.281 433.19 236.121 430.82 231.241C428.45 226.361 428.13 221.641 430.11 220.671C432.09 219.701 435.6 222.871 438 227.751Z" fill="#D6E5E2"/>
<path d="M442 216.38L416.76 177C415.759 175.436 414.377 174.154 412.744 173.272C411.11 172.391 409.279 171.94 407.423 171.962C405.568 171.984 403.748 172.478 402.136 173.398C400.524 174.318 399.173 175.633 398.21 177.22L369.27 224.79C378.999 218.392 389.95 214.081 401.43 212.13C415.09 209.923 429.093 211.389 442 216.38Z" fill="#77AEA3"/>
<path d="M343.049 270.8C342.382 270.804 341.734 270.574 341.219 270.15C340.679 269.709 340.317 269.087 340.2 268.4C340.082 267.712 340.217 267.006 340.579 266.41L395.739 175.73C396.953 173.721 398.661 172.056 400.7 170.893C402.739 169.731 405.042 169.11 407.389 169.09H407.559C409.877 169.084 412.158 169.664 414.191 170.776C416.225 171.888 417.944 173.496 419.189 175.45L477.419 266.21C477.794 266.796 477.945 267.498 477.844 268.187C477.743 268.876 477.396 269.505 476.868 269.959C476.34 270.412 475.666 270.66 474.97 270.657C474.274 270.653 473.603 270.399 473.079 269.94C467.229 264.79 443.369 259.58 409.079 259.58C395.017 259.484 380.969 260.541 367.079 262.74C351.319 265.45 346.359 268.74 344.959 270.04C344.438 270.52 343.758 270.79 343.049 270.8ZM407.559 174.88H407.459C406.094 174.891 404.754 175.252 403.567 175.927C402.38 176.603 401.386 177.571 400.679 178.74L350.799 260.74C363.369 256.44 384.709 253.74 409.099 253.74C433.099 253.74 454.299 256.34 466.949 260.54L414.319 178.54C413.591 177.411 412.589 176.484 411.408 175.845C410.226 175.205 408.903 174.873 407.559 174.88Z" fill="#0E2C26"/>
<path d="M408.999 174.42C408.233 174.42 407.498 174.116 406.956 173.574C406.414 173.032 406.109 172.297 406.109 171.53V44.7103C406.109 43.9438 406.414 43.2088 406.956 42.6668C407.498 42.1248 408.233 41.8203 408.999 41.8203C409.766 41.8203 410.501 42.1248 411.043 42.6668C411.585 43.2088 411.889 43.9438 411.889 44.7103V171.53C411.889 172.297 411.585 173.032 411.043 173.574C410.501 174.116 409.766 174.42 408.999 174.42Z" fill="#0E2C26"/>
<path d="M409.019 758.18C573.815 758.18 707.409 739.484 707.409 716.42C707.409 693.357 573.815 674.66 409.019 674.66C244.223 674.66 110.629 693.357 110.629 716.42C110.629 739.484 244.223 758.18 409.019 758.18Z" fill="#5B9287"/>
<path d="M556.049 731.762C588.357 731.762 614.549 728.592 614.549 724.682C614.549 720.771 588.357 717.602 556.049 717.602C523.74 717.602 497.549 720.771 497.549 724.682C497.549 728.592 523.74 731.762 556.049 731.762Z" fill="#4A746B"/>
<path d="M326.949 720.311C350.333 720.311 369.289 717.194 369.289 713.351C369.289 709.507 350.333 706.391 326.949 706.391C303.566 706.391 284.609 709.507 284.609 713.351C284.609 717.194 303.566 720.311 326.949 720.311Z" fill="#4A746B"/>
<path d="M130 624.721C127.963 624.722 125.938 624.404 124 623.781C112.28 620.061 108.69 607.591 105.21 595.531C101.94 584.001 98.4995 572.051 88.3995 566.001C72.6995 556.631 45.5695 564.711 7.77954 590.001C7.46372 590.212 7.10934 590.359 6.73664 590.434C6.36394 590.508 5.98022 590.509 5.60739 590.435C5.23457 590.361 4.87993 590.214 4.56373 590.004C4.24754 589.793 3.97597 589.522 3.76454 589.206C3.55312 588.89 3.40597 588.536 3.33149 588.163C3.25702 587.79 3.25669 587.406 3.33051 587.034C3.40433 586.661 3.55087 586.306 3.76174 585.99C3.97262 585.674 4.24372 585.402 4.55954 585.191C26.8895 570.191 45.9795 561.011 61.3095 557.771C73.3795 555.221 83.4895 556.311 91.3695 561.011C103.37 568.211 107.37 581.851 110.82 593.891C114.16 605.461 117.03 615.451 125.82 618.231C133.48 620.661 140.61 616.101 150.48 609.791C161.71 602.611 175.67 593.681 196.18 592.331C208.803 591.605 221.432 593.653 233.18 598.331C233.853 598.637 234.384 599.19 234.664 599.875C234.943 600.561 234.95 601.327 234.683 602.017C234.416 602.707 233.895 603.269 233.227 603.588C232.559 603.907 231.794 603.958 231.09 603.731C220.137 599.349 208.356 597.427 196.58 598.101C177.58 599.351 164.28 607.841 153.58 614.651C145.29 620.001 137.91 624.721 130 624.721Z" fill="#0E2C26"/>
<path d="M293 642.14L249.12 637C244.733 636.487 240.49 635.116 236.634 632.963C232.777 630.811 229.382 627.92 226.642 624.455C223.903 620.99 221.873 617.02 220.668 612.771C219.463 608.522 219.107 604.077 219.62 599.69C220.133 595.302 221.505 591.058 223.658 587.201C225.811 583.343 228.703 579.948 232.169 577.208C235.634 574.469 239.606 572.439 243.856 571.234C248.107 570.03 252.553 569.675 256.94 570.19L300.79 575.32L293 642.14Z" fill="#85DDCB"/>
<path d="M256.939 570.191C250.068 569.391 243.117 570.728 237.033 574.021C230.949 577.313 226.028 582.401 222.939 588.591C231.399 597.721 243.939 599.431 255.649 600.301C269.649 601.151 283.649 601.81 297.649 602.04L300.779 575.321L256.939 570.191Z" fill="#A0EEDE"/>
<path d="M293.001 644.999H292.661L248.811 639.869C239.187 638.742 230.406 633.838 224.398 626.236C218.39 618.634 215.648 608.957 216.776 599.334C217.903 589.711 222.807 580.929 230.408 574.921C238.01 568.914 247.687 566.172 257.311 567.299L301.161 572.439C301.538 572.482 301.903 572.6 302.235 572.785C302.567 572.97 302.858 573.219 303.094 573.517C303.329 573.816 303.503 574.158 303.605 574.524C303.707 574.889 303.737 575.272 303.691 575.649L295.871 642.459C295.779 643.222 295.391 643.919 294.791 644.399C294.277 644.793 293.647 645.004 293.001 644.999ZM253.001 572.819C245.147 572.806 237.586 575.8 231.87 581.186C226.155 586.572 222.717 593.941 222.262 601.781C221.808 609.622 224.372 617.338 229.428 623.348C234.484 629.358 241.648 633.205 249.451 634.099L290.451 638.899L297.601 577.829L256.601 573.029C255.405 572.899 254.203 572.839 253.001 572.849V572.819Z" fill="#0E2C26"/>
<path d="M352.589 664.129L289.299 656.729C276.51 655.23 264.839 648.713 256.854 638.611C248.869 628.509 245.224 615.649 246.719 602.859C247.46 596.526 249.441 590.4 252.55 584.833C255.658 579.265 259.832 574.365 264.835 570.411C269.837 566.457 275.569 563.527 281.704 561.788C287.839 560.05 294.256 559.537 300.589 560.279L363.879 567.689L352.589 664.129Z" fill="#85DDCB"/>
<path d="M300.589 560.279C294.256 559.537 287.838 560.05 281.704 561.788C275.569 563.527 269.836 566.457 264.834 570.411C259.832 574.365 255.657 579.265 252.549 584.833C249.441 590.4 247.46 596.526 246.719 602.859C246.724 602.889 246.724 602.919 246.719 602.949C281.069 620.359 318.779 626.079 357.029 626.149L363.869 567.669L300.589 560.279Z" fill="#A0EEDE"/>
<path d="M326.21 574.704C326.419 572.823 320.866 570.663 313.807 569.878C306.749 569.094 300.857 569.983 300.648 571.864C300.439 573.745 305.992 575.905 313.05 576.69C320.109 577.474 326.001 576.585 326.21 574.704Z" fill="white"/>
<path d="M285.87 575.342C282.38 575.852 279.32 574.672 279.03 572.702C278.74 570.732 281.34 568.702 284.83 568.222C288.32 567.742 291.38 568.892 291.66 570.862C291.94 572.832 289.36 574.832 285.87 575.342Z" fill="white"/>
<path d="M352.589 667H352.259L288.999 659.6C282.289 658.812 275.8 656.71 269.903 653.414C264.005 650.119 258.814 645.694 254.627 640.392C246.17 629.684 242.313 616.056 243.904 602.505C245.495 588.954 252.405 576.59 263.112 568.133C273.819 559.676 287.448 555.819 300.999 557.41L364.289 564.81C365.051 564.9 365.746 565.289 366.222 565.89C366.698 566.492 366.916 567.258 366.829 568.02L355.539 664.47C355.454 665.174 355.114 665.823 354.583 666.295C354.053 666.766 353.369 667.028 352.659 667.03L352.589 667ZM294.849 562.84C283.223 562.887 272.052 567.367 263.615 575.366C255.179 583.366 250.111 594.282 249.447 605.89C248.782 617.497 252.571 628.921 260.039 637.831C267.508 646.741 278.094 652.467 289.639 653.84L350.059 660.91L360.669 570.21L300.249 563.14C298.456 562.935 296.653 562.835 294.849 562.84Z" fill="#0E2C26"/>
<path d="M289.3 659.622C288.613 659.621 287.948 659.377 287.424 658.932C286.9 658.487 286.552 657.87 286.44 657.192C281.092 624.093 285.068 590.159 297.92 559.192C298.066 558.841 298.279 558.523 298.548 558.254C298.817 557.986 299.136 557.774 299.487 557.629C299.838 557.484 300.214 557.41 300.594 557.41C300.974 557.411 301.35 557.486 301.7 557.632C302.051 557.777 302.369 557.991 302.638 558.26C302.906 558.529 303.118 558.848 303.263 559.199C303.408 559.55 303.482 559.926 303.482 560.305C303.481 560.685 303.406 561.061 303.26 561.412C290.822 591.391 286.979 624.241 292.16 656.282C292.281 657.04 292.097 657.816 291.647 658.438C291.197 659.06 290.518 659.479 289.76 659.602C289.608 659.623 289.454 659.63 289.3 659.622Z" fill="#0E2C26"/>
<path d="M372.718 617.685C375.826 591.147 371.271 568.805 362.544 567.783C353.817 566.761 344.222 587.445 341.114 613.984C338.006 640.522 342.561 662.864 351.288 663.886C360.015 664.908 369.61 644.223 372.718 617.685Z" fill="#C2F4EA"/>
<path d="M340.23 625.12C339.41 646.49 343.82 662.97 351.23 663.85C359.62 664.85 368.8 645.77 372.23 620.73C362.11 626.12 350.47 628.85 340.23 625.12Z" fill="#84F4DD"/>
<path d="M351.92 666.781C351.585 666.783 351.251 666.763 350.92 666.721C346.98 666.261 341.7 662.821 338.92 649.041C336.92 639.331 336.69 626.741 338.23 613.611C339.77 600.481 342.909 588.291 347.079 579.291C352.989 566.541 358.919 564.401 362.859 564.871C366.799 565.341 372.069 568.771 374.859 582.551C376.859 592.261 377.089 604.851 375.549 617.981C374.009 631.111 370.87 643.301 366.7 652.301C361.28 664.001 355.82 666.781 351.92 666.781ZM361.92 570.601C358.68 570.601 354.769 576.521 352.359 581.731C348.439 590.181 345.47 601.731 344 614.281C342.53 626.831 342.749 638.751 344.609 647.891C345.799 653.681 348.349 660.591 351.609 660.971C354.869 661.351 358.98 655.231 361.47 649.861C365.39 641.411 368.36 629.861 369.82 617.311C371.29 604.771 371.07 592.831 369.21 583.701C368.03 577.911 365.48 571.001 362.21 570.621C362.107 570.604 362.003 570.597 361.9 570.601H361.92Z" fill="#0E2C26"/>
<path d="M408.85 610.649L361.3 605.089C360.479 604.994 359.685 604.737 358.964 604.334C358.242 603.932 357.607 603.391 357.094 602.743C356.582 602.094 356.202 601.352 355.976 600.557C355.751 599.762 355.684 598.93 355.78 598.109C355.876 597.289 356.132 596.495 356.535 595.773C356.938 595.052 357.479 594.416 358.127 593.904C358.775 593.391 359.518 593.011 360.313 592.786C361.108 592.56 361.939 592.494 362.76 592.589L410.31 598.159C411.148 598.233 411.962 598.475 412.704 598.869C413.447 599.263 414.103 599.803 414.634 600.455C415.165 601.107 415.559 601.859 415.794 602.666C416.03 603.474 416.1 604.32 416.003 605.155C415.905 605.99 415.641 606.797 415.226 607.529C414.811 608.26 414.254 608.901 413.587 609.413C412.92 609.925 412.157 610.299 411.344 610.511C410.53 610.723 409.682 610.77 408.85 610.649ZM404.7 646.149L357.14 640.579C355.515 640.348 354.045 639.49 353.044 638.189C352.043 636.888 351.59 635.247 351.781 633.617C351.973 631.987 352.795 630.496 354.071 629.464C355.346 628.431 356.975 627.938 358.61 628.089L406.16 633.659C406.998 633.733 407.812 633.975 408.554 634.369C409.297 634.763 409.953 635.303 410.484 635.955C411.015 636.607 411.409 637.359 411.644 638.166C411.88 638.974 411.95 639.82 411.853 640.655C411.755 641.49 411.491 642.297 411.076 643.029C410.661 643.76 410.104 644.401 409.437 644.913C408.77 645.425 408.007 645.799 407.194 646.011C406.38 646.223 405.532 646.27 404.7 646.149ZM793.83 729.369C793.471 729.366 793.115 729.298 792.78 729.169C778.36 723.549 770.88 714.039 763.64 704.849C756.4 695.659 749.64 687.049 736.22 683.849C726.16 681.439 719.42 683.669 710.1 686.759C701.7 689.539 691.25 692.999 675.19 693.919C656.482 694.913 637.758 692.278 620.05 686.159C619.69 686.037 619.358 685.845 619.072 685.595C618.787 685.344 618.553 685.04 618.385 684.699C618.217 684.358 618.117 683.988 618.093 683.609C618.068 683.23 618.118 682.849 618.24 682.489C618.362 682.13 618.554 681.797 618.804 681.512C619.055 681.226 619.359 680.992 619.7 680.824C620.041 680.656 620.411 680.557 620.791 680.532C621.17 680.507 621.55 680.557 621.91 680.679C638.911 686.556 656.887 689.093 674.85 688.149C690.16 687.269 699.79 684.079 708.28 681.269C717.74 678.129 725.91 675.429 737.56 678.269C752.94 681.949 760.69 691.799 768.19 701.329C774.94 709.909 781.93 718.789 794.88 723.839C795.509 724.079 796.034 724.531 796.365 725.117C796.697 725.703 796.813 726.386 796.695 727.048C796.576 727.711 796.23 728.311 795.716 728.746C795.202 729.181 794.553 729.422 793.88 729.429L793.83 729.369Z" fill="#0E2C26"/>
<path d="M551.68 707.69L595.4 713.84C604.233 715.084 613.198 712.769 620.324 707.404C627.45 702.038 632.153 694.063 633.4 685.23C634.017 680.856 633.766 676.403 632.661 672.125C631.557 667.848 629.62 663.83 626.963 660.301C624.305 656.772 620.978 653.801 617.172 651.559C613.365 649.316 609.155 647.845 604.78 647.23L561.07 641.07L551.68 707.69Z" fill="#85DDCB"/>
<path d="M604.78 647.23L561.07 641.07L556.26 675.21C581.26 683.21 612.75 688.72 632.89 673.06C631.374 666.414 627.874 660.385 622.854 655.772C617.834 651.159 611.531 648.18 604.78 647.23Z" fill="#A0EEDE"/>
<path d="M600.169 717.069C598.439 717.068 596.712 716.948 594.999 716.709L551.279 710.549C550.52 710.44 549.835 710.034 549.374 709.421C548.913 708.809 548.713 708.038 548.819 707.279L558.199 640.669C558.251 640.292 558.378 639.93 558.571 639.602C558.764 639.275 559.02 638.989 559.323 638.76C559.627 638.532 559.973 638.365 560.341 638.271C560.709 638.176 561.092 638.155 561.469 638.209L605.189 644.359C614.347 645.636 622.68 650.338 628.508 657.518C634.335 664.697 637.223 673.82 636.588 683.045C635.954 692.27 631.845 700.911 625.089 707.225C618.334 713.54 609.436 717.057 600.189 717.069H600.169ZM554.999 705.219L595.799 710.999C603.804 711.992 611.88 709.799 618.284 704.893C624.687 699.987 628.907 692.761 630.033 684.773C631.158 676.785 629.1 668.674 624.301 662.19C619.502 655.706 612.347 651.367 604.379 650.109L563.529 644.359L554.999 705.219Z" fill="#0E2C26"/>
<path d="M488.43 713.84L551.53 722.73C564.281 724.524 577.223 721.179 587.509 713.433C597.795 705.686 604.583 694.171 606.38 681.42C607.269 675.106 606.906 668.678 605.312 662.504C603.717 656.331 600.922 650.531 597.086 645.438C593.25 640.345 588.448 636.057 582.955 632.819C577.461 629.582 571.384 627.458 565.07 626.57L502 617.68L488.43 713.84Z" fill="#85DDCB"/>
<path d="M606.38 681.42C607.27 675.106 606.907 668.678 605.312 662.504C603.718 656.331 600.922 650.531 597.086 645.438C593.25 640.345 588.448 636.057 582.955 632.819C577.462 629.582 571.384 627.458 565.07 626.57L502 617.68L491.91 689.33C519.91 697.58 549 701 578.76 693.76C588.02 691.51 598.7 688.2 606.33 681.93C606.33 681.76 606.39 681.59 606.41 681.42H606.38Z" fill="#A0EEDE"/>
<path d="M542.479 637.732C535.389 636.942 529.819 634.732 530.029 632.882C530.239 631.032 536.159 630.112 543.239 630.882C550.319 631.652 555.899 633.882 555.689 635.732C555.479 637.582 549.559 638.532 542.479 637.732Z" fill="white"/>
<path d="M558.34 726.102C555.927 726.1 553.518 725.929 551.13 725.592L488 716.702C487.623 716.651 487.26 716.526 486.932 716.334C486.604 716.141 486.318 715.886 486.09 715.582C485.629 714.97 485.428 714.201 485.53 713.442L499.08 617.282C499.132 616.906 499.259 616.543 499.452 616.216C499.645 615.888 499.9 615.602 500.204 615.373C500.508 615.145 500.854 614.979 501.222 614.884C501.59 614.789 501.973 614.768 502.35 614.822L565.45 623.712C578.332 625.539 590.043 632.179 598.226 642.295C606.408 652.411 610.454 665.252 609.549 678.231C608.644 691.211 602.855 703.365 593.348 712.248C583.84 721.13 571.321 726.08 558.31 726.102H558.34ZM491.7 711.382L551.93 719.862C557.903 720.779 563.999 720.5 569.864 719.043C575.729 717.586 581.247 714.979 586.096 711.373C590.946 707.768 595.032 703.235 598.117 698.039C601.202 692.842 603.225 687.085 604.068 681.101C604.912 675.116 604.558 669.024 603.029 663.178C601.5 657.331 598.826 651.846 595.161 647.041C591.496 642.235 586.914 638.205 581.68 635.184C576.445 632.163 570.664 630.212 564.67 629.442L504.43 621.002L491.7 711.382Z" fill="#0E2C26"/>
<path d="M551.53 725.622C551.049 725.622 550.576 725.501 550.153 725.272C549.731 725.042 549.372 724.711 549.11 724.307C548.848 723.904 548.69 723.442 548.652 722.963C548.613 722.483 548.695 722.002 548.89 721.562C562.026 691.891 566.639 659.147 562.21 627.002C562.105 626.242 562.307 625.472 562.77 624.86C563.233 624.249 563.92 623.847 564.68 623.742C565.44 623.637 566.21 623.839 566.822 624.302C567.433 624.765 567.835 625.452 567.94 626.212C572.509 659.431 567.745 693.266 554.18 723.932C553.947 724.439 553.574 724.867 553.104 725.167C552.634 725.467 552.087 725.625 551.53 725.622Z" fill="#0E2C26"/>
<path d="M512.294 668.232C516.022 641.774 511.99 619.331 503.289 618.105C494.588 616.879 484.513 637.334 480.785 663.792C477.057 690.251 481.089 712.693 489.79 713.919C498.49 715.145 508.566 694.69 512.294 668.232Z" fill="#C2F4EA"/>
<path d="M484.38 679.999C482.48 678.555 480.871 676.763 479.64 674.719C478.27 696.179 482.3 712.879 489.77 713.929C496.44 714.869 503.92 703.049 508.77 685.549C504.54 686.309 500.2 686.209 496.01 685.256C491.82 684.302 487.864 682.514 484.38 679.999Z" fill="#84F4DD"/>
<path d="M490.53 716.841C490.138 716.841 489.747 716.814 489.36 716.761C485.44 716.211 480.25 712.641 477.76 698.761C476.01 688.991 476.06 676.411 477.9 663.321C479.74 650.231 483.17 638.111 487.56 629.211C493.77 616.601 499.75 614.611 503.67 615.211C507.59 615.811 512.79 619.331 515.27 633.211C517.03 642.971 516.98 655.561 515.13 668.651C513.28 681.741 509.86 693.851 505.48 702.751C499.85 714.131 494.42 716.841 490.53 716.841ZM502.53 620.921C499.3 620.921 495.29 626.711 492.78 631.821C488.66 640.181 485.42 651.671 483.66 664.171C481.9 676.671 481.84 688.611 483.48 697.781C484.53 703.601 486.92 710.571 490.2 711.031C493.48 711.491 497.7 705.461 500.32 700.151C504.43 691.791 507.67 680.301 509.43 667.801C511.19 655.301 511.26 643.361 509.61 634.191C508.56 628.371 506.18 621.411 502.89 620.941L502.53 620.921Z" fill="#0E2C26"/>
<path d="M504.999 648.581C504.269 653.811 500.999 657.671 497.709 657.201C494.419 656.731 492.349 652.131 493.089 646.901C493.829 641.671 497.089 637.811 500.379 638.281C503.669 638.751 505.729 643.351 504.999 648.581Z" fill="#36514B"/>
<path d="M505 648.892C504.32 653.722 501.7 657.352 499.15 657.002C496.6 656.652 495.09 652.432 495.77 647.592C496.45 642.752 499.07 639.122 501.62 639.482C504.17 639.842 505.63 644.052 505 648.892Z" fill="#0E2C26"/>
<path d="M499.801 685.651C500.538 680.423 498.466 675.808 495.174 675.344C491.881 674.881 488.615 678.743 487.879 683.971C487.142 689.199 489.214 693.814 492.506 694.277C495.798 694.741 499.064 690.879 499.801 685.651Z" fill="#36514B"/>
<path d="M515.056 672.484C514.376 677.314 511.756 680.944 509.216 680.594C506.676 680.244 505.156 676.014 505.836 671.184C506.516 666.354 509.136 662.714 511.676 663.074C514.216 663.434 515.736 667.644 515.056 672.484ZM341.086 366.424C340.476 366.58 339.841 366.614 339.218 366.525C338.595 366.435 337.995 366.224 337.454 365.903C336.912 365.581 336.44 365.156 336.063 364.652C335.685 364.148 335.411 363.574 335.256 362.964L327.106 330.864C326.794 329.631 326.984 328.324 327.635 327.231C328.285 326.137 329.343 325.347 330.576 325.034L348.626 320.454C349.86 320.142 351.166 320.332 352.259 320.982C353.353 321.633 354.143 322.691 354.456 323.924L358.786 340.984C359.099 342.218 358.909 343.526 358.258 344.621C357.608 345.716 356.55 346.508 355.316 346.824L341.926 350.224L344.556 360.554C344.717 361.167 344.754 361.806 344.667 362.434C344.579 363.062 344.367 363.666 344.045 364.212C343.722 364.758 343.295 365.234 342.787 365.614C342.279 365.993 341.701 366.269 341.086 366.424ZM339.556 340.924L348.306 338.704L346.306 330.934L337.556 333.154L339.556 340.924ZM312.426 373.314C308.355 374.352 304.068 374.159 300.106 372.759C296.145 371.359 292.688 368.815 290.173 365.45C287.658 362.084 286.199 358.048 285.979 353.852C285.759 349.656 286.79 345.49 288.939 341.88C291.089 338.27 294.261 335.379 298.055 333.573C301.848 331.767 306.093 331.128 310.25 331.735C314.407 332.343 318.291 334.17 321.409 336.986C324.527 339.802 326.74 343.48 327.766 347.554C329.134 353.003 328.288 358.773 325.414 363.6C322.539 368.428 317.869 371.92 312.426 373.314ZM304.426 341.764C302.257 342.315 300.299 343.497 298.801 345.161C297.303 346.824 296.332 348.895 296.011 351.11C295.689 353.326 296.032 355.587 296.995 357.607C297.959 359.628 299.5 361.318 301.424 362.463C303.347 363.608 305.567 364.156 307.803 364.04C310.038 363.923 312.189 363.147 313.983 361.808C315.778 360.469 317.135 358.628 317.883 356.518C318.631 354.408 318.736 352.124 318.186 349.954C317.444 347.043 315.577 344.546 312.995 343.011C310.414 341.475 307.328 341.027 304.416 341.764H304.426ZM257.456 387.264C250.544 389.029 243.233 388.341 236.77 385.319C230.308 382.297 225.093 377.127 222.016 370.691C218.938 364.255 218.188 356.95 219.894 350.023C221.599 343.095 225.654 336.974 231.368 332.701C237.081 328.429 244.1 326.27 251.227 326.594C258.354 326.917 265.148 329.702 270.451 334.474C275.755 339.245 279.239 345.709 280.31 352.762C281.382 359.816 279.974 367.022 276.326 373.154C274.269 376.636 271.542 379.675 268.303 382.097C265.064 384.519 261.378 386.275 257.456 387.264ZM244.726 337.104C240.716 338.123 237.099 340.308 234.331 343.383C231.563 346.458 229.769 350.284 229.175 354.379C228.582 358.473 229.216 362.652 230.997 366.386C232.778 370.12 235.627 373.242 239.182 375.358C242.738 377.473 246.841 378.487 250.972 378.271C255.104 378.054 259.079 376.618 262.394 374.143C265.709 371.668 268.216 368.265 269.598 364.366C270.98 360.466 271.174 356.244 270.156 352.234C268.784 346.859 265.336 342.248 260.569 339.411C255.802 336.575 250.105 335.745 244.726 337.104ZM384.676 350.134C384.922 351.102 384.876 352.121 384.543 353.062C384.209 354.004 383.605 354.825 382.805 355.423C382.004 356.021 381.045 356.368 380.048 356.421C379.05 356.473 378.06 356.229 377.201 355.719C376.343 355.208 375.655 354.455 375.225 353.554C374.794 352.652 374.641 351.644 374.784 350.655C374.927 349.667 375.359 348.743 376.027 348C376.695 347.258 377.568 346.73 378.536 346.484C379.179 346.313 379.85 346.273 380.509 346.365C381.168 346.456 381.801 346.679 382.373 347.019C382.945 347.359 383.443 347.809 383.839 348.344C384.234 348.879 384.519 349.487 384.676 350.134ZM377.726 343.274C377.087 343.437 376.411 343.361 375.824 343.061C375.236 342.761 374.779 342.257 374.536 341.644L359.746 304.234C359.605 303.875 359.542 303.491 359.562 303.106C359.581 302.722 359.682 302.346 359.858 302.003C360.034 301.661 360.281 301.36 360.582 301.12C360.884 300.88 361.233 300.708 361.606 300.614L371.536 298.084C371.91 297.989 372.301 297.974 372.681 298.042C373.061 298.11 373.422 298.258 373.74 298.477C374.058 298.696 374.326 298.98 374.525 299.31C374.725 299.641 374.851 300.01 374.896 300.394L379.746 340.314C379.83 340.969 379.67 341.632 379.298 342.177C378.926 342.723 378.367 343.113 377.726 343.274ZM391.846 464.554C389.921 464.983 387.904 464.63 386.239 463.572C384.573 462.515 383.396 460.839 382.966 458.914L380.126 446.154L333.626 456.554C332.19 456.874 330.691 456.761 329.319 456.23C327.947 455.698 326.764 454.772 325.918 453.568C325.073 452.364 324.603 450.936 324.569 449.465C324.535 447.994 324.938 446.546 325.726 445.304L367.506 379.554C368.296 378.312 369.435 377.332 370.781 376.738C372.127 376.144 373.619 375.963 375.068 376.216C376.517 376.47 377.858 377.148 378.923 378.164C379.987 379.179 380.726 380.488 381.046 381.924L391.406 428.424L404.526 425.504C406.45 425.074 408.466 425.426 410.131 426.483C411.795 427.54 412.972 429.215 413.401 431.139C413.831 433.063 413.479 435.079 412.422 436.743C411.365 438.408 409.69 439.584 407.766 440.014L394.646 442.944L397.486 455.714C397.909 457.634 397.553 459.643 396.495 461.301C395.438 462.958 393.766 464.128 391.846 464.554ZM347.916 438.094L376.916 431.634L370.456 402.634L347.916 438.094Z" fill="white"/>
<path d="M328.936 447.895L370.706 382.155C371.495 380.913 372.634 379.933 373.979 379.339C375.325 378.744 376.817 378.562 378.266 378.815C378.829 378.916 379.379 379.08 379.906 379.305C379.21 378.292 378.274 377.467 377.181 376.905C376.088 376.343 374.873 376.061 373.644 376.083C372.415 376.106 371.211 376.433 370.14 377.036C369.069 377.638 368.164 378.497 367.506 379.535L325.726 445.275C325.146 446.184 324.772 447.209 324.628 448.278C324.485 449.347 324.576 450.434 324.896 451.464C325.216 452.494 325.757 453.442 326.48 454.242C327.204 455.041 328.093 455.674 329.086 456.095C328.256 454.895 327.8 453.476 327.773 452.018C327.746 450.559 328.151 449.125 328.936 447.895Z" fill="#49635E"/>
<path d="M533.956 511.305C532.071 510.74 530.488 509.452 529.551 507.722C528.614 505.993 528.4 503.962 528.956 502.075L532.596 489.555L486.886 476.135C485.472 475.725 484.213 474.903 483.267 473.775C482.321 472.648 481.731 471.264 481.573 469.801C481.414 468.337 481.694 466.86 482.376 465.556C483.059 464.251 484.113 463.179 485.406 462.475L553.766 425.135C555.056 424.427 556.528 424.118 557.994 424.248C559.461 424.377 560.856 424.939 562.002 425.863C563.148 426.786 563.994 428.029 564.433 429.435C564.872 430.84 564.883 432.344 564.466 433.755L551.056 479.465L563.956 483.255C565.791 483.859 567.32 485.152 568.219 486.862C569.118 488.573 569.316 490.566 568.772 492.42C568.227 494.273 566.983 495.843 565.302 496.796C563.622 497.749 561.636 498.01 559.766 497.525L546.866 493.745L543.186 506.295C542.623 508.182 541.336 509.768 539.606 510.707C537.876 511.646 535.844 511.861 533.956 511.305ZM508.326 466.895L536.816 475.245L545.176 446.765L508.326 466.895Z" fill="white"/>
<path d="M481.686 470.414C482.301 468.706 483.521 467.283 485.116 466.414L553.476 429.074C554.502 428.515 555.645 428.206 556.813 428.171C557.981 428.137 559.14 428.378 560.197 428.876C561.254 429.374 562.179 430.114 562.896 431.036C563.614 431.959 564.103 433.037 564.326 434.184L564.456 433.724C564.873 432.312 564.862 430.809 564.423 429.403C563.984 427.998 563.138 426.755 561.992 425.832C560.845 424.908 559.451 424.346 557.984 424.216C556.518 424.087 555.046 424.396 553.756 425.104L485.396 462.444C484.105 463.149 483.053 464.221 482.371 465.524C481.69 466.826 481.409 468.302 481.566 469.764C481.606 469.984 481.636 470.194 481.686 470.414Z" fill="#49635E"/>
<path d="M459.055 461.556C448.754 461.549 438.774 457.97 430.816 451.429C422.858 444.889 417.414 435.791 415.413 425.686C413.411 415.581 414.976 405.095 419.84 396.014C424.704 386.934 432.566 379.821 442.087 375.888C451.608 371.955 462.198 371.446 472.052 374.446C481.906 377.446 490.415 383.771 496.129 392.343C501.842 400.914 504.407 411.201 503.385 421.452C502.363 431.702 497.818 441.281 490.525 448.556C486.399 452.694 481.493 455.974 476.091 458.205C470.69 460.437 464.9 461.575 459.055 461.556ZM459.055 387.396C453.193 387.396 447.462 389.134 442.588 392.391C437.714 395.648 433.915 400.277 431.671 405.693C429.428 411.109 428.841 417.069 429.985 422.818C431.128 428.568 433.951 433.849 438.097 437.994C442.242 442.14 447.523 444.962 453.273 446.106C459.022 447.25 464.982 446.663 470.398 444.419C475.814 442.176 480.443 438.377 483.7 433.503C486.957 428.628 488.695 422.898 488.695 417.036C488.695 409.172 485.573 401.63 480.016 396.066C474.458 390.503 466.919 387.374 459.055 387.366V387.396Z" fill="white"/>
<path d="M415.956 420.807C415.97 410.558 419.517 400.627 426.001 392.69C432.484 384.752 441.507 379.293 451.546 377.234C461.586 375.175 472.029 376.641 481.114 381.385C490.198 386.129 497.369 393.861 501.416 403.277C499.546 397.568 496.539 392.297 492.578 387.781C488.617 383.265 483.783 379.596 478.367 376.997C472.951 374.398 467.066 372.922 461.064 372.657C455.063 372.392 449.07 373.344 443.446 375.456C437.822 377.567 432.684 380.795 428.34 384.945C423.997 389.094 420.537 394.08 418.171 399.602C415.805 405.123 414.58 411.066 414.57 417.074C414.561 423.081 415.767 429.028 418.116 434.557C416.679 430.115 415.95 425.475 415.956 420.807Z" fill="#49635E"/>
<path d="M432.23 595.048C431.631 595.048 431.047 594.862 430.558 594.516C430.07 594.171 429.7 593.682 429.499 593.118L421.999 571.588C421.746 570.864 421.791 570.069 422.124 569.378C422.457 568.687 423.05 568.157 423.774 567.903C424.499 567.65 425.294 567.695 425.985 568.028C426.676 568.361 427.206 568.954 427.459 569.678L434.999 591.208C435.249 591.933 435.202 592.726 434.868 593.415C434.535 594.105 433.942 594.634 433.219 594.888C432.901 594.998 432.566 595.052 432.23 595.048ZM457.209 594.538C457.025 594.538 456.84 594.518 456.66 594.478C456.287 594.408 455.932 594.264 455.615 594.056C455.298 593.847 455.025 593.578 454.812 593.264C454.599 592.95 454.451 592.597 454.375 592.225C454.299 591.854 454.297 591.471 454.369 591.098L458.649 568.698C458.794 567.945 459.232 567.28 459.867 566.85C460.501 566.419 461.281 566.259 462.035 566.403C462.788 566.548 463.453 566.986 463.883 567.621C464.313 568.255 464.474 569.035 464.329 569.788L460.049 592.188C459.92 592.848 459.567 593.442 459.049 593.87C458.531 594.299 457.881 594.535 457.209 594.538ZM477.92 606.478C477.248 606.482 476.596 606.248 476.079 605.818C475.787 605.577 475.544 605.28 475.366 604.945C475.188 604.609 475.077 604.242 475.041 603.864C475.005 603.486 475.044 603.105 475.155 602.742C475.266 602.379 475.448 602.041 475.689 601.748L490.2 584.148C490.688 583.557 491.39 583.184 492.154 583.11C492.532 583.074 492.913 583.113 493.276 583.224C493.639 583.335 493.977 583.517 494.269 583.758C494.562 584 494.805 584.297 494.983 584.632C495.161 584.968 495.271 585.335 495.307 585.713C495.344 586.091 495.305 586.472 495.194 586.835C495.083 587.198 494.901 587.536 494.66 587.828L480.16 605.428C479.886 605.757 479.544 606.022 479.157 606.203C478.769 606.385 478.347 606.479 477.92 606.478ZM456.359 730.668C455.681 730.665 455.026 730.424 454.507 729.987C453.988 729.551 453.639 728.946 453.519 728.278L449.519 705.828C449.413 705.085 449.599 704.329 450.04 703.721C450.48 703.113 451.14 702.7 451.88 702.571C452.619 702.441 453.381 702.603 454.002 703.025C454.624 703.446 455.057 704.093 455.209 704.828L459.209 727.278C459.343 728.033 459.172 728.81 458.733 729.438C458.294 730.066 457.624 730.494 456.869 730.628C456.701 730.656 456.53 730.67 456.359 730.668ZM419.82 726.168C419.479 726.166 419.142 726.108 418.82 725.998C418.463 725.868 418.135 725.668 417.856 725.411C417.576 725.154 417.35 724.844 417.191 724.5C417.031 724.155 416.941 723.783 416.925 723.403C416.909 723.024 416.969 722.645 417.1 722.288L424.899 700.858C425.031 700.501 425.231 700.173 425.489 699.894C425.747 699.614 426.058 699.388 426.403 699.228C426.749 699.068 427.122 698.978 427.502 698.963C427.883 698.947 428.262 699.007 428.619 699.138C428.977 699.27 429.305 699.47 429.584 699.728C429.864 699.986 430.09 700.297 430.25 700.642C430.41 700.988 430.5 701.361 430.515 701.741C430.53 702.122 430.471 702.501 430.339 702.858L422.529 724.288C422.325 724.842 421.955 725.319 421.47 725.655C420.986 725.991 420.409 726.17 419.82 726.168ZM391.999 704.698C391.412 704.696 390.84 704.515 390.358 704.179C389.875 703.844 389.507 703.37 389.299 702.821C389.092 702.271 389.057 701.672 389.198 701.102C389.339 700.532 389.65 700.018 390.089 699.628L407.219 684.628C407.795 684.122 408.548 683.865 409.313 683.913C410.078 683.962 410.793 684.313 411.299 684.888C411.806 685.464 412.063 686.217 412.014 686.982C411.966 687.747 411.615 688.462 411.04 688.968L393.869 703.998C393.349 704.446 392.686 704.694 391.999 704.698Z" fill="#85DDCB"/>
<path d="M330.379 440.612C328.649 444.142 326.379 446.612 325.319 446.062C324.259 445.512 324.789 442.252 326.519 438.732C328.249 435.212 330.519 432.732 331.569 433.282C332.619 433.832 332.099 437.092 330.379 440.612ZM412.309 412.102C410.589 415.632 408.309 418.102 407.259 417.552C406.209 417.002 406.729 413.742 408.449 410.222C410.169 406.702 412.449 404.222 413.509 404.772C414.569 405.322 413.999 408.582 412.309 412.102ZM519.079 457.202C515.679 459.202 512.439 459.922 511.849 458.892C511.259 457.862 513.529 455.442 516.929 453.482C520.329 451.522 523.569 450.762 524.159 451.782C524.749 452.802 522.479 455.242 519.079 457.202Z" fill="white"/>
<path d="M295.84 534H284.944V516.456H295.84V519.288H288.016V523.8H295.024V526.512H288.016V531.168H295.84V534ZM297.827 530.4H300.611C300.635 531.432 301.403 532.08 302.747 532.08C304.115 532.08 304.859 531.528 304.859 530.664C304.859 530.064 304.547 529.632 303.491 529.392L301.355 528.888C299.219 528.408 298.187 527.4 298.187 525.504C298.187 523.176 300.155 521.784 302.891 521.784C305.555 521.784 307.355 523.32 307.379 525.624H304.595C304.571 524.616 303.899 523.968 302.771 523.968C301.619 523.968 300.947 524.496 300.947 525.384C300.947 526.056 301.475 526.488 302.483 526.728L304.619 527.232C306.611 527.688 307.619 528.6 307.619 530.424C307.619 532.824 305.579 534.312 302.651 534.312C299.699 534.312 297.827 532.728 297.827 530.4ZM313.88 534H310.952V524.592H308.672V522.144H310.952V518.448H313.88V522.144H316.184V524.592H313.88V534ZM326.622 517.176L324.27 520.728H322.11L323.91 517.176H326.622ZM321.462 534.312C318.942 534.312 317.406 532.848 317.406 530.616C317.406 528.432 318.99 527.064 321.798 526.848L325.35 526.584V526.32C325.35 524.712 324.39 524.064 322.902 524.064C321.174 524.064 320.214 524.784 320.214 526.032H317.718C317.718 523.464 319.83 521.784 323.046 521.784C326.238 521.784 328.206 523.512 328.206 526.8V534H325.638L325.422 532.248C324.918 533.472 323.31 534.312 321.462 534.312ZM322.422 532.104C324.222 532.104 325.374 531.024 325.374 529.2V528.576L322.902 528.768C321.078 528.936 320.382 529.536 320.382 530.496C320.382 531.576 321.102 532.104 322.422 532.104ZM337.551 539.496V522.144H340.263L340.455 523.944C341.175 522.576 342.735 521.784 344.535 521.784C347.871 521.784 350.079 524.208 350.079 527.928C350.079 531.624 348.063 534.312 344.535 534.312C342.759 534.312 341.223 533.616 340.479 532.416V539.496H337.551ZM340.503 528.072C340.503 530.208 341.823 531.672 343.839 531.672C345.903 531.672 347.127 530.184 347.127 528.072C347.127 525.96 345.903 524.448 343.839 524.448C341.823 524.448 340.503 525.936 340.503 528.072ZM361.098 517.176L358.746 520.728H356.586L358.386 517.176H361.098ZM355.938 534.312C353.418 534.312 351.882 532.848 351.882 530.616C351.882 528.432 353.466 527.064 356.274 526.848L359.826 526.584V526.32C359.826 524.712 358.866 524.064 357.378 524.064C355.65 524.064 354.69 524.784 354.69 526.032H352.194C352.194 523.464 354.306 521.784 357.522 521.784C360.714 521.784 362.682 523.512 362.682 526.8V534H360.114L359.898 532.248C359.394 533.472 357.786 534.312 355.938 534.312ZM356.898 532.104C358.698 532.104 359.85 531.024 359.85 529.2V528.576L357.378 528.768C355.554 528.936 354.858 529.536 354.858 530.496C354.858 531.576 355.578 532.104 356.898 532.104ZM364.887 527.808C364.887 524.352 367.143 521.76 370.527 521.76C372.303 521.76 373.695 522.504 374.391 523.776L374.559 522.144H377.271V533.4C377.271 537.36 374.895 539.832 371.055 539.832C367.647 539.832 365.319 537.888 364.959 534.72H367.887C368.079 536.256 369.255 537.168 371.055 537.168C373.071 537.168 374.367 535.896 374.367 533.928V531.96C373.623 533.064 372.159 533.76 370.455 533.76C367.095 533.76 364.887 531.24 364.887 527.808ZM367.839 527.736C367.839 529.728 369.111 531.216 371.031 531.216C373.047 531.216 374.295 529.8 374.295 527.736C374.295 525.72 373.071 524.328 371.031 524.328C369.087 524.328 367.839 525.792 367.839 527.736ZM381.765 519.768C380.757 519.768 379.965 518.976 379.965 517.992C379.965 517.008 380.757 516.24 381.765 516.24C382.725 516.24 383.517 517.008 383.517 517.992C383.517 518.976 382.725 519.768 381.765 519.768ZM380.301 534V522.144H383.229V534H380.301ZM389.182 534H386.254V522.144H388.966L389.206 523.68C389.95 522.48 391.39 521.784 392.998 521.784C395.974 521.784 397.51 523.632 397.51 526.704V534H394.582V527.4C394.582 525.408 393.598 524.448 392.086 524.448C390.286 524.448 389.182 525.696 389.182 527.616V534ZM403.915 534.312C401.395 534.312 399.859 532.848 399.859 530.616C399.859 528.432 401.443 527.064 404.251 526.848L407.803 526.584V526.32C407.803 524.712 406.843 524.064 405.355 524.064C403.627 524.064 402.667 524.784 402.667 526.032H400.171C400.171 523.464 402.283 521.784 405.499 521.784C408.691 521.784 410.659 523.512 410.659 526.8V534H408.091L407.875 532.248C407.371 533.472 405.763 534.312 403.915 534.312ZM404.875 532.104C406.675 532.104 407.827 531.024 407.827 529.2V528.576L405.355 528.768C403.531 528.936 402.835 529.536 402.835 530.496C402.835 531.576 403.555 532.104 404.875 532.104ZM422.932 534H420.004V522.144H422.716L422.956 523.68C423.7 522.48 425.14 521.784 426.748 521.784C429.724 521.784 431.26 523.632 431.26 526.704V534H428.332V527.4C428.332 525.408 427.348 524.448 425.836 524.448C424.036 524.448 422.932 525.696 422.932 527.616V534ZM433.441 528.048C433.441 524.352 436.105 521.808 439.777 521.808C443.449 521.808 446.113 524.352 446.113 528.048C446.113 531.744 443.449 534.288 439.777 534.288C436.105 534.288 433.441 531.744 433.441 528.048ZM436.369 528.048C436.369 530.208 437.761 531.672 439.777 531.672C441.793 531.672 443.185 530.208 443.185 528.048C443.185 525.888 441.793 524.424 439.777 524.424C437.761 524.424 436.369 525.888 436.369 528.048ZM460.207 534.312C456.679 534.312 454.207 531.744 454.207 528.072C454.207 524.352 456.631 521.784 460.111 521.784C463.663 521.784 465.919 524.16 465.919 527.856V528.744L456.991 528.768C457.207 530.856 458.311 531.912 460.255 531.912C461.863 531.912 462.919 531.288 463.255 530.16H465.967C465.463 532.752 463.303 534.312 460.207 534.312ZM460.135 524.184C458.407 524.184 457.351 525.12 457.063 526.896H463.015C463.015 525.264 461.887 524.184 460.135 524.184ZM469.787 534H466.451L470.531 528.192L466.451 522.144H469.859L472.475 526.176L474.995 522.144H478.283L474.251 528.144L478.163 534H474.803L472.283 530.088L469.787 534ZM481.492 519.768C480.484 519.768 479.692 518.976 479.692 517.992C479.692 517.008 480.484 516.24 481.492 516.24C482.452 516.24 483.244 517.008 483.244 517.992C483.244 518.976 482.452 519.768 481.492 519.768ZM480.028 534V522.144H482.956V534H480.028ZM485.069 530.4H487.853C487.877 531.432 488.645 532.08 489.989 532.08C491.357 532.08 492.101 531.528 492.101 530.664C492.101 530.064 491.789 529.632 490.733 529.392L488.597 528.888C486.461 528.408 485.429 527.4 485.429 525.504C485.429 523.176 487.397 521.784 490.133 521.784C492.797 521.784 494.597 523.32 494.621 525.624H491.837C491.813 524.616 491.141 523.968 490.013 523.968C488.861 523.968 488.189 524.496 488.189 525.384C488.189 526.056 488.717 526.488 489.725 526.728L491.861 527.232C493.853 527.688 494.861 528.6 494.861 530.424C494.861 532.824 492.821 534.312 489.893 534.312C486.941 534.312 485.069 532.728 485.069 530.4ZM501.122 534H498.194V524.592H495.914V522.144H498.194V518.448H501.122V522.144H503.426V524.592H501.122V534ZM510.433 534.312C506.905 534.312 504.433 531.744 504.433 528.072C504.433 524.352 506.857 521.784 510.337 521.784C513.889 521.784 516.145 524.16 516.145 527.856V528.744L507.217 528.768C507.433 530.856 508.537 531.912 510.481 531.912C512.089 531.912 513.145 531.288 513.481 530.16H516.193C515.689 532.752 513.529 534.312 510.433 534.312ZM510.361 524.184C508.633 524.184 507.577 525.12 507.289 526.896H513.241C513.241 525.264 512.113 524.184 510.361 524.184Z" fill="white"/>
<defs>
<linearGradient id="paint0_linear_4569_33192" x1="409.02" y1="267.77" x2="409.02" y2="709.46" gradientUnits="userSpaceOnUse">
<stop stop-color="#9AF8E5"/>
<stop offset="1" stop-color="#5B9287"/>
</linearGradient>
</defs>
</svg>
