<svg width="16" height="16" viewBox="0 0 16 16" fill="none" xmlns="http://www.w3.org/2000/svg">
<path d="M12 3H3C2.44772 3 2 3.44772 2 4C2 4.55228 2.44772 5 3 5H12C12.5523 5 13 4.55228 13 4C13 3.44772 12.5523 3 12 3Z" fill="#37AB93"/>
<path d="M15 7H12C11.4477 7 11 7.44772 11 8C11 8.55228 11.4477 9 12 9H15C15.5523 9 16 8.55228 16 8C16 7.44772 15.5523 7 15 7Z" fill="#37AB93"/>
<path d="M8 7H6C5.44772 7 5 7.44772 5 8C5 8.55228 5.44772 9 6 9H8C8.55228 9 9 8.55228 9 8C9 7.44772 8.55228 7 8 7Z" fill="#37AB93"/>
<path d="M11 11H1C0.447715 11 0 11.4477 0 12C0 12.5523 0.447715 13 1 13H11C11.5523 13 12 12.5523 12 12C12 11.4477 11.5523 11 11 11Z" fill="#37AB93"/>
</svg>
