<svg width="600" height="600" viewBox="0 0 600 600" fill="none" xmlns="http://www.w3.org/2000/svg">
<path d="M97.2611 430.449H105.731V433.536H93.7148V416.52H97.2611V430.449Z" fill="white"/>
<path d="M125.655 427.082H129.992L127.875 420.346H127.824L125.655 427.082ZM123.512 433.536H119.762L125.834 416.52H129.941L135.937 433.536H132.084L130.987 430.041H124.711L123.512 433.536Z" fill="white"/>
<path d="M161.863 416.52H165.154V433.536H161.608L154.668 421.392H154.617V433.536H151.301V416.52H155.051L161.812 428.383H161.863V416.52Z" fill="white"/>
<path d="M190.048 424.354H197.14V433.539H194.767L194.436 431.421C193.122 433.143 191.33 433.998 189.053 433.998C186.769 433.998 184.907 433.194 183.465 431.574C182.018 429.941 181.297 427.773 181.297 425.068C181.297 422.383 182.037 420.215 183.516 418.563C185.009 416.898 187.044 416.062 189.614 416.062C191.808 416.062 193.556 416.624 194.87 417.746C196.177 418.856 196.917 420.208 197.089 421.803H193.543C193.32 420.955 192.867 420.285 192.191 419.787C191.508 419.277 190.711 419.022 189.793 419.022C188.275 419.022 187.088 419.57 186.221 420.655C185.353 421.745 184.92 423.232 184.92 425.119C184.92 426.995 185.334 428.436 186.17 429.457C186.999 430.477 188.236 430.987 189.869 430.987C190.788 430.987 191.629 430.694 192.395 430.094C193.16 429.501 193.696 428.551 194.002 427.237H190.048V424.354Z" fill="white"/>
<path d="M227.519 427.592C227.519 429.684 226.932 431.279 225.758 432.363C224.598 433.453 222.856 433.996 220.528 433.996C218.468 433.996 216.829 433.479 215.604 432.439C214.393 431.387 213.793 429.831 213.793 427.771V416.52H217.416V427.566C217.416 428.676 217.684 429.525 218.232 430.118C218.793 430.698 219.584 430.985 220.605 430.985C221.638 430.985 222.448 430.717 223.028 430.169C223.603 429.627 223.896 428.81 223.896 427.72V416.52H227.519V427.592Z" fill="white"/>
<path d="M248.714 427.082H253.051L250.933 420.346H250.882L248.714 427.082ZM246.571 433.536H242.82L248.892 416.52H253L258.995 433.536H255.143L254.046 430.041H247.77L246.571 433.536Z" fill="white"/>
<path d="M282.423 424.354H289.515V433.539H287.142L286.811 431.421C285.497 433.143 283.705 433.998 281.428 433.998C279.144 433.998 277.282 433.194 275.84 431.574C274.393 429.941 273.672 427.773 273.672 425.068C273.672 422.383 274.412 420.215 275.891 418.563C277.384 416.898 279.419 416.062 281.989 416.062C284.183 416.062 285.931 416.624 287.245 417.746C288.552 418.856 289.292 420.208 289.464 421.803H285.918C285.695 420.955 285.242 420.285 284.566 419.787C283.883 419.277 283.086 419.022 282.168 419.022C280.65 419.022 279.463 419.57 278.596 420.655C277.728 421.745 277.295 423.232 277.295 425.119C277.295 426.995 277.709 428.436 278.545 429.457C279.374 430.477 280.611 430.987 282.244 430.987C283.163 430.987 284.004 430.694 284.77 430.094C285.535 429.501 286.071 428.551 286.377 427.237H282.423V424.354Z" fill="white"/>
<path d="M318.724 419.53H309.718V423.102H318.009V426.112H309.718V430.526H319.132V433.536H306.223V416.52H318.724V419.53Z" fill="white"/>
<path d="M357.62 428.308C357.62 429.144 357.926 429.807 358.538 430.298C359.163 430.796 360.056 431.038 361.217 431.038C362.371 431.038 363.258 430.853 363.87 430.477C364.483 430.107 364.789 429.559 364.789 428.844C364.789 428.404 364.623 428.028 364.304 427.722C363.998 427.403 363.258 427.103 362.084 426.829L359.201 426.165C357.365 425.725 356.114 425.139 355.451 424.405C354.801 423.659 354.482 422.632 354.482 421.318C354.482 419.775 355.024 418.512 356.114 417.542C357.199 416.56 358.832 416.062 361.013 416.062C363.188 416.062 364.84 416.617 365.962 417.721C367.085 418.811 367.646 420.093 367.646 421.573H364.227C364.157 420.744 363.832 420.113 363.258 419.685C362.697 419.245 361.861 419.022 360.758 419.022C359.871 419.022 359.157 419.213 358.615 419.583C358.066 419.94 357.798 420.438 357.798 421.063C357.798 421.49 357.913 421.847 358.155 422.134C358.391 422.428 358.774 422.632 359.304 422.747L363.845 423.869C365.49 424.278 366.632 424.858 367.263 425.604C367.888 426.357 368.207 427.301 368.207 428.436C368.207 430.273 367.557 431.663 366.268 432.595C364.974 433.532 363.386 433.998 361.498 433.998C359.048 433.998 357.218 433.481 356.012 432.442C354.82 431.389 354.227 430.011 354.227 428.308H357.62Z" fill="white"/>
<path d="M395.128 422.083C394.681 420.132 393.425 419.15 391.352 419.15C390.076 419.15 389.056 419.679 388.29 420.731C387.525 421.79 387.142 423.244 387.142 425.094C387.142 426.848 387.506 428.257 388.239 429.329C388.986 430.388 390.025 430.911 391.352 430.911C393.393 430.911 394.649 429.839 395.128 427.696H398.699C398.444 429.45 397.679 430.936 396.403 432.161C395.128 433.385 393.425 433.998 391.301 433.998C388.915 433.998 387.021 433.22 385.612 431.651C384.215 430.069 383.52 427.875 383.52 425.068C383.52 422.364 384.215 420.189 385.612 418.537C387.002 416.892 388.909 416.062 391.326 416.062C393.45 416.062 395.166 416.643 396.48 417.797C397.787 418.939 398.527 420.368 398.699 422.083H395.128Z" fill="white"/>
<path d="M428.439 416.52V433.536H424.892V425.908H418.234V433.536H414.688V416.52H418.234V422.974H424.892V416.52H428.439Z" fill="white"/>
<path d="M448.062 425.043C448.062 427.02 448.496 428.506 449.363 429.508C450.243 430.496 451.366 430.987 452.731 430.987C454.07 430.987 455.167 430.477 456.022 429.457C456.87 428.423 457.297 426.95 457.297 425.043C457.297 423.123 456.87 421.65 456.022 420.629C455.186 419.596 454.07 419.073 452.68 419.073C451.283 419.073 450.16 419.596 449.312 420.629C448.476 421.65 448.062 423.123 448.062 425.043ZM444.516 425.043C444.516 422.122 445.268 419.889 446.786 418.359C448.298 416.828 450.256 416.062 452.654 416.062C455.052 416.062 457.017 416.821 458.547 418.333C460.091 419.851 460.869 422.083 460.869 425.043C460.869 427.919 460.11 430.133 458.599 431.676C457.081 433.226 455.11 433.998 452.68 433.998C450.383 433.998 448.445 433.271 446.863 431.804C445.294 430.343 444.516 428.092 444.516 425.043Z" fill="white"/>
<path d="M479.73 425.043C479.73 427.02 480.164 428.506 481.031 429.508C481.911 430.496 483.034 430.987 484.399 430.987C485.738 430.987 486.835 430.477 487.69 429.457C488.538 428.423 488.965 426.95 488.965 425.043C488.965 423.123 488.538 421.65 487.69 420.629C486.854 419.596 485.738 419.073 484.348 419.073C482.951 419.073 481.828 419.596 480.98 420.629C480.144 421.65 479.73 423.123 479.73 425.043ZM476.184 425.043C476.184 422.122 476.936 419.889 478.454 418.359C479.966 416.828 481.924 416.062 484.322 416.062C486.72 416.062 488.685 416.821 490.215 418.333C491.759 419.851 492.537 422.083 492.537 425.043C492.537 427.919 491.778 430.133 490.266 431.676C488.748 433.226 486.778 433.998 484.348 433.998C482.051 433.998 480.113 433.271 478.531 431.804C476.962 430.343 476.184 428.092 476.184 425.043Z" fill="white"/>
<path d="M512.128 430.449H520.598V433.536H508.582V416.52H512.128V430.449Z" fill="white"/>
<path d="M245.3 321.499C245.3 324.65 246.052 327.571 247.57 330.276C249.082 332.98 251.104 335.174 253.642 336.858C256.194 338.529 259.089 339.358 262.342 339.358C265.589 339.358 268.478 338.529 271.016 336.858C273.568 335.174 275.596 332.98 277.114 330.276C278.626 327.571 279.385 324.65 279.385 321.499C279.385 318.374 278.626 315.453 277.114 312.749C275.596 310.032 273.568 307.838 271.016 306.166C268.478 304.483 265.589 303.641 262.342 303.641C259.089 303.641 256.194 304.483 253.642 306.166C251.104 307.838 249.082 310.032 247.57 312.749C246.052 315.453 245.3 318.374 245.3 321.499ZM245.3 397.807H220.961V285.629H245.3V294.405C248.444 290.495 252.15 287.785 256.423 286.267C260.69 284.755 265.155 283.996 269.817 283.996C276.636 283.996 282.727 285.756 288.084 289.277C293.442 292.798 297.658 297.403 300.738 303.079C303.832 308.762 305.382 314.904 305.382 321.499C305.382 328.101 303.832 334.243 300.738 339.919C297.658 345.602 293.442 350.175 288.084 353.645C282.727 357.115 276.636 358.85 269.817 358.85C265.155 358.85 260.531 358.065 255.939 356.503C251.346 354.921 247.8 352.293 245.3 348.619V397.807Z" fill="white"/>
<path d="M353.095 303.641C350.066 303.641 347.336 304.534 344.906 306.32C342.469 308.105 340.55 310.35 339.14 313.055C337.724 315.759 337.022 318.578 337.022 321.499V357.217H312.684V285.629H337.022V294.405C338.859 291.688 341.34 289.271 344.472 287.16C347.617 285.055 351.412 283.996 355.851 283.996C356.935 283.996 358.179 284.136 359.576 284.404C360.985 284.679 362.184 285.087 363.173 285.629V307.697H362.841C361.648 306.186 360.188 305.133 358.453 304.534C356.718 303.94 354.932 303.641 353.095 303.641Z" fill="white"/>
<path d="M403.252 340.329C407.589 340.329 410.944 339.41 413.329 337.573C415.708 335.737 417.386 333.389 418.355 330.532C419.325 327.662 419.81 324.709 419.81 321.679C419.81 318.637 419.287 315.709 418.253 312.903C417.233 310.084 415.53 307.749 413.151 305.912C410.765 304.076 407.468 303.157 403.252 303.157C399.03 303.157 395.707 304.076 393.277 305.912C390.84 307.749 389.105 310.084 388.072 312.903C387.052 315.709 386.541 318.637 386.541 321.679C386.541 324.709 387.026 327.662 387.996 330.532C388.965 333.389 390.662 335.737 393.098 337.573C395.547 339.41 398.928 340.329 403.252 340.329ZM403.252 284.176C410.714 284.176 417.539 285.751 423.713 288.896C429.887 292.027 434.811 296.384 438.485 301.958C442.159 307.52 443.995 314.038 443.995 321.501C443.995 329.09 442.184 335.673 438.561 341.247C434.938 346.809 430.04 351.108 423.866 354.131C417.705 357.161 410.836 358.672 403.252 358.672C395.681 358.672 388.786 357.161 382.561 354.131C376.336 351.108 371.412 346.809 367.79 341.247C364.167 335.673 362.355 329.09 362.355 321.501C362.355 314.038 364.192 307.52 367.866 301.958C371.54 296.384 376.489 292.027 382.714 288.896C388.939 285.751 395.783 284.176 403.252 284.176Z" fill="white"/>
<path d="M517.537 307.391H493.683C493.236 304.145 491.801 301.951 489.371 300.809C486.935 299.674 484.53 299.099 482.151 299.099C479.766 299.099 477.546 299.674 475.492 300.809C473.432 301.951 472.405 303.602 472.405 305.758C472.405 307.378 473.509 308.59 475.722 309.407C477.948 310.223 480.812 310.88 484.32 311.371C487.84 311.849 491.572 312.468 495.52 313.233C499.48 313.986 503.224 315.172 506.745 316.805C510.266 318.425 513.13 320.721 515.343 323.694C517.55 326.672 518.659 330.703 518.659 335.786C518.659 341.418 517.167 345.908 514.195 349.257C511.216 352.612 507.077 355.048 501.77 356.579C496.476 358.091 490.372 358.85 483.452 358.85C476.411 358.85 470.045 357.906 464.369 356.018C458.686 354.117 454.113 351.081 450.643 346.91C447.186 342.745 445.241 337.304 444.801 330.582H468.987C468.987 334.154 469.854 336.73 471.589 338.312C473.324 339.881 475.377 340.883 477.763 341.323C480.142 341.75 482.202 341.96 483.937 341.96C486.743 341.96 489.148 341.45 491.157 340.43C493.16 339.396 494.167 337.898 494.167 335.939C494.167 333.458 493.051 331.57 490.825 330.276C488.612 328.968 485.748 327.992 482.228 327.342C478.707 326.698 474.969 326.053 471.028 325.403C467.08 324.759 463.348 323.815 459.828 322.571C456.307 321.314 453.43 319.446 451.204 316.958C448.991 314.477 447.888 311.065 447.888 306.728C447.888 299.367 450.752 293.735 456.485 289.838C462.232 285.948 471.002 283.996 482.789 283.996C492.209 283.996 500.086 285.846 506.413 289.532C512.741 293.206 516.446 299.163 517.537 307.391Z" fill="white"/>
<path d="M268.278 252.972H221.438V174.113H268.278V181.665H229.55V209.729H267.13V217.382H229.55V245.446H268.278V252.972Z" fill="white"/>
<path d="M315.133 252.969V221.079C315.133 217.762 314.393 214.905 312.914 212.507C311.364 210.179 308.857 209.011 305.387 209.011C301.899 209.011 299.073 209.675 296.917 211.001C294.755 212.315 293.014 214.012 291.687 216.104C289.219 219.969 287.988 225.148 287.988 231.641V252.969H279.875V201.944H287.988V210.772C289.685 207.902 291.853 205.535 294.494 203.679C297.262 201.83 300.47 200.898 304.112 200.898C307.735 200.898 310.669 201.402 312.914 202.404C315.159 203.494 317.053 204.929 318.603 206.715C321.696 210.338 323.246 215.128 323.246 221.079V252.969H315.133Z" fill="white"/>
<path d="M374.378 227.461C374.378 222.512 372.675 218.188 369.276 214.475C365.787 210.77 361.494 208.914 356.392 208.914C351.455 208.914 347.207 210.77 343.636 214.475C340.166 218.117 338.431 222.448 338.431 227.461C338.431 232.5 340.166 236.824 343.636 240.447C347.207 244.159 351.455 246.009 356.392 246.009C361.494 246.009 365.787 244.159 369.276 240.447C372.675 236.741 374.378 232.411 374.378 227.461ZM338.201 259.939C338.967 263.102 340.625 265.915 343.176 268.383C346.729 272.019 351.021 273.843 356.06 273.843C361.073 273.843 365.404 272.019 369.046 268.383C372.599 264.824 374.378 260.538 374.378 255.525V244.402C373.983 244.931 373.562 245.467 373.103 246.009C368.236 251.418 362.285 254.122 355.244 254.122C348.132 254.122 342.181 251.418 337.385 246.009C332.672 240.753 330.318 234.573 330.318 227.461C330.318 220.356 332.672 214.169 337.385 208.914C342.181 203.505 348.132 200.801 355.244 200.801C362.043 200.801 368 203.505 373.103 208.914C373.562 209.462 373.983 210.004 374.378 210.547V201.949H382.491V255.525C382.491 262.783 379.902 269.008 374.735 274.2C369.544 279.366 363.319 281.956 356.06 281.956C348.796 281.956 342.57 279.366 337.385 274.2C333.284 270.099 330.809 265.347 329.961 259.939H338.201Z" fill="white"/>
<path d="M402.203 252.972H394.09V166H402.203V252.972Z" fill="white"/>
<path d="M422.038 184.318C423.04 185.325 423.543 186.525 423.543 187.915C423.543 189.395 423.04 190.638 422.038 191.64C421.018 192.648 419.819 193.145 418.441 193.145C416.961 193.145 415.718 192.648 414.716 191.64C413.708 190.638 413.211 189.395 413.211 187.915C413.211 186.525 413.708 185.325 414.716 184.318C415.718 183.316 416.961 182.812 418.441 182.812C419.819 182.812 421.018 183.316 422.038 184.318ZM422.497 252.972H414.385V201.947H422.497V252.972Z" fill="white"/>
<path d="M441.978 245.677C443.981 247.055 446.609 247.744 449.861 247.744C457.273 247.744 460.985 244.963 460.985 239.401C460.985 236.155 458.319 233.68 452.999 231.977C450.754 231.212 448.356 230.523 445.805 229.911C443.164 229.285 440.728 228.469 438.483 227.461C435.861 226.224 433.897 224.674 432.589 222.818C431.263 220.968 430.599 218.762 430.599 216.21C430.599 211.108 432.373 207.281 435.932 204.73C439.484 202.115 443.738 200.801 448.688 200.801C453.637 200.801 457.732 201.809 460.985 203.811C464.231 205.82 466.432 209.418 467.593 214.603H458.893C457.974 211.733 456.622 209.832 454.836 208.914C453.133 207.983 451.009 207.511 448.458 207.511C445.907 207.511 443.745 208.059 441.978 209.143C440.122 210.304 439.197 212.001 439.197 214.246C439.197 216.561 439.969 218.264 441.519 219.348C442.979 220.356 444.835 221.236 447.081 222.002C449.326 222.703 451.756 223.322 454.377 223.864C456.928 224.495 459.358 225.344 461.674 226.415C466.929 228.903 469.557 232.883 469.557 238.355C469.557 243.853 467.593 247.916 463.664 250.55C461.635 251.864 459.435 252.865 457.056 253.561C454.722 254.173 452.17 254.479 449.402 254.479C437.564 254.479 430.759 249.223 428.992 238.712H437.564C438.413 242.029 439.886 244.351 441.978 245.677Z" fill="white"/>
<path d="M483.492 252.972H475.379V166H483.492V210.774C485.188 207.904 487.357 205.538 489.998 203.682C492.766 201.832 495.974 200.901 499.616 200.901C503.239 200.901 506.172 201.405 508.418 202.406C510.663 203.497 512.557 204.932 514.107 206.718C517.2 210.341 518.75 215.131 518.75 221.081V252.972H510.637V221.081C510.637 217.765 509.897 214.907 508.418 212.509C506.868 210.181 504.361 209.014 500.891 209.014C497.403 209.014 494.577 209.563 492.421 210.647C490.259 211.808 488.518 213.389 487.191 215.392C484.723 219.117 483.492 224.538 483.492 231.644V252.972Z" fill="white"/>
<path d="M189.606 353.114V318.57L166.619 353.114H189.606ZM230.12 375.948H214.251V397.939H189.606V375.948H129.422L191.927 285.48H214.251V353.114H230.12V375.948Z" fill="white"/>
<mask id="mask0_1975_1982" style="mask-type:luminance" maskUnits="userSpaceOnUse" x="80" y="174" width="98" height="127">
<path d="M80 174.48H177.203V300.691H80V174.48Z" fill="white"/>
</mask>
<g mask="url(#mask0_1975_1982)">
<path d="M177.107 174.195V209.269C177.107 227.65 174.352 242.735 168.822 254.502C163.299 266.27 153.859 276.277 140.503 284.499C127.147 292.726 112.133 298.211 95.4609 300.954V272.986C107.375 267.469 114.142 260.102 115.756 250.879H95.4609V174.195H177.107ZM67.9393 174.195V209.269C67.9393 227.65 65.1839 242.735 59.6605 254.502C54.1307 266.27 44.7484 276.277 31.4883 284.499C18.2346 292.726 3.16948 298.211 -13.707 300.954V272.986C-1.78632 267.469 4.97448 260.102 6.59452 250.879H-13.707V174.195H67.9393Z" fill="white"/>
</g>
<mask id="mask1_1975_1982" style="mask-type:luminance" maskUnits="userSpaceOnUse" x="111" y="209" width="98" height="127">
<path d="M111.039 209H208.242V335.217H111.039V209Z" fill="white"/>
</mask>
<g mask="url(#mask1_1975_1982)">
<path d="M208.146 208.715V243.788C208.146 262.17 205.391 277.254 199.867 289.022C194.344 300.796 184.904 310.797 171.549 319.024C158.193 327.246 143.179 332.731 126.5 335.474V307.506C138.421 301.995 145.188 294.628 146.801 285.399H126.5V208.715H208.146ZM98.9847 208.715V243.788C98.9847 262.17 96.2294 277.254 90.6995 289.022C85.1761 300.796 75.7875 310.797 62.5274 319.024C49.28 327.246 34.2085 332.731 17.332 335.474V307.506C29.2527 301.995 36.0199 294.628 37.6336 285.399H17.332V208.715H98.9847Z" fill="#68BA2D"/>
</g>
</svg>
