<svg width="122" height="122" viewBox="0 0 122 122" fill="none" xmlns="http://www.w3.org/2000/svg">
<path d="M111.038 1.42969H74.8242C69.5603 1.42969 65.293 5.69697 65.293 10.9609V47.1749C65.293 52.4389 69.5603 56.7062 74.8242 56.7062H111.038C116.302 56.7062 120.569 52.4389 120.569 47.1749V10.9609C120.569 5.69697 116.302 1.42969 111.038 1.42969Z" fill="#19262A"/>
<path d="M111.038 65.293H74.8242C69.5603 65.293 65.293 69.5603 65.293 74.8242V111.038C65.293 116.302 69.5603 120.569 74.8242 120.569H111.038C116.302 120.569 120.569 116.302 120.569 111.038V74.8242C120.569 69.5603 116.302 65.293 111.038 65.293Z" fill="#85DDCB"/>
<path d="M47.1749 1.42969H10.9609C5.69697 1.42969 1.42969 5.69697 1.42969 10.9609V47.1749C1.42969 52.4389 5.69697 56.7062 10.9609 56.7062H47.1749C52.4389 56.7062 56.7062 52.4389 56.7062 47.1749V10.9609C56.7062 5.69697 52.4389 1.42969 47.1749 1.42969Z" fill="#85DDCB"/>
<path d="M47.1749 65.293H10.9609C5.69697 65.293 1.42969 69.5603 1.42969 74.8242V111.038C1.42969 116.302 5.69697 120.569 10.9609 120.569H47.1749C52.4389 120.569 56.7062 116.302 56.7062 111.038V74.8242C56.7062 69.5603 52.4389 65.293 47.1749 65.293Z" fill="#19262A"/>
<path d="M87.8125 98.7031H97.8885" stroke="#19262A" stroke-width="2" stroke-linecap="round" stroke-linejoin="round"/>
<path d="M84.2928 90.7604C84.2928 94.0921 82.8254 96.793 81.015 96.793C79.2045 96.793 77.7369 94.0921 77.7369 90.7604C77.7232 89.5315 77.9427 88.3112 78.3836 87.1641H83.6458C84.0869 88.3112 84.3064 89.5315 84.2928 90.7604ZM107.857 90.7604C107.857 94.0921 106.39 96.793 104.58 96.793C102.769 96.793 101.302 94.0921 101.302 90.7604C101.288 89.5315 101.507 88.3112 101.948 87.1641H107.211C107.652 88.3112 107.871 89.5315 107.857 90.7604Z" fill="#19262A" stroke="#19262A" stroke-width="2" stroke-linecap="round" stroke-linejoin="round"/>
<path d="M75.2984 87.1624H86.9995M98.863 87.1624H110.564M23 34.5039C23.3014 34.8656 25.394 37.2911 28.9261 37.354C32.6254 37.42 34.8538 34.8401 35.1342 34.5039" stroke="#19262A" stroke-width="2" stroke-linecap="round" stroke-linejoin="round"/>
<path d="M15.2595 34.8594C17.3714 34.8594 19.0834 31.7079 19.0834 27.8203C19.0834 23.9327 17.3714 20.7812 15.2595 20.7812C13.1476 20.7812 11.4355 23.9327 11.4355 27.8203C11.4355 31.7079 13.1476 34.8594 15.2595 34.8594Z" fill="#19262A" stroke="#19262A" stroke-width="2" stroke-linecap="round" stroke-linejoin="round"/>
<path d="M42.8767 34.8594C44.9886 34.8594 46.7006 31.7079 46.7006 27.8203C46.7006 23.9327 44.9886 20.7812 42.8767 20.7812C40.7648 20.7812 39.0527 23.9327 39.0527 27.8203C39.0527 31.7079 40.7648 34.8594 42.8767 34.8594Z" fill="#19262A" stroke="#19262A" stroke-width="2" stroke-linecap="round" stroke-linejoin="round"/>
</svg>
