<svg width="46" height="46" viewBox="0 0 46 46" fill="none" xmlns="http://www.w3.org/2000/svg">
<path d="M32.5 20C36.0899 20 39 17.0899 39 13.5C39 9.91015 36.0899 7 32.5 7C28.9101 7 26 9.91015 26 13.5C26 17.0899 28.9101 20 32.5 20Z" fill="#85DDCB"/>
<path d="M33 32H30C29.4477 32 29 32.4477 29 33C29 33.5523 29.4477 34 30 34H33C33.5523 34 34 33.5523 34 33C34 32.4477 33.5523 32 33 32Z" fill="#85DDCB"/>
<path d="M14.5 7C13.0166 7 11.5666 7.43987 10.3332 8.26398C9.09986 9.08809 8.13856 10.2594 7.57091 11.6299C7.00325 13.0003 6.85472 14.5083 7.14411 15.9632C7.4335 17.418 8.14781 18.7544 9.1967 19.8033C10.2456 20.8522 11.582 21.5665 13.0368 21.8559C14.4917 22.1453 15.9997 21.9968 17.3701 21.4291C18.7406 20.8614 19.9119 19.9001 20.736 18.6668C21.5601 17.4334 22 15.9834 22 14.5C22 12.5109 21.2098 10.6032 19.8033 9.1967C18.3968 7.79018 16.4891 7 14.5 7ZM14.5 20C13.4122 20 12.3488 19.6774 11.4444 19.0731C10.5399 18.4687 9.83495 17.6098 9.41867 16.6048C9.00238 15.5998 8.89347 14.4939 9.10568 13.427C9.3179 12.3601 9.84173 11.3801 10.6109 10.6109C11.3801 9.84172 12.3601 9.3179 13.427 9.10568C14.4939 8.89346 15.5998 9.00238 16.6048 9.41866C17.6098 9.83494 18.4687 10.5399 19.0731 11.4444C19.6774 12.3488 20 13.4122 20 14.5C19.9974 15.9579 19.417 17.3553 18.3862 18.3862C17.3553 19.417 15.9579 19.9974 14.5 20ZM33 10H27C26.2044 10 25.4413 10.3161 24.8787 10.8787C24.3161 11.4413 24 12.2044 24 13V22H33C33.7957 22 34.5587 21.6839 35.1213 21.1213C35.6839 20.5587 36 19.7956 36 19V13C36 12.2044 35.6839 11.4413 35.1213 10.8787C34.5587 10.3161 33.7957 10 33 10ZM34 19C34 19.2652 33.8946 19.5196 33.7071 19.7071C33.5196 19.8946 33.2652 20 33 20H26V13C26 12.7348 26.1054 12.4804 26.2929 12.2929C26.4804 12.1054 26.7348 12 27 12H33C33.2652 12 33.5196 12.1054 33.7071 12.2929C33.8946 12.4804 34 12.7348 34 13V19ZM12.54 24C11.8664 24 11.2203 24.2676 10.744 24.7439C10.2676 25.2203 10 25.8664 10 26.54V33.46C10 34.1336 10.2676 34.7797 10.744 35.2561C11.2203 35.7324 11.8664 36 12.54 36H19.46C20.1337 36 20.7797 35.7324 21.2561 35.2561C21.7324 34.7797 22 34.1336 22 33.46V24H12.54ZM20 33.46C20 33.6032 19.9431 33.7406 19.8418 33.8418C19.7406 33.9431 19.6032 34 19.46 34H12.54C12.3968 34 12.2594 33.9431 12.1582 33.8418C12.0569 33.7406 12 33.6032 12 33.46V26.54C12 26.3968 12.0569 26.2594 12.1582 26.1582C12.2594 26.0569 12.3968 26 12.54 26H20V33.46ZM36 24H24V36C24 36.7956 24.3161 37.5587 24.8787 38.1213C25.4413 38.6839 26.2044 39 27 39H36C36.7957 39 37.5587 38.6839 38.1213 38.1213C38.6839 37.5587 39 36.7956 39 36V27C39 26.2044 38.6839 25.4413 38.1213 24.8787C37.5587 24.3161 36.7957 24 36 24ZM37 36C37 36.2652 36.8946 36.5196 36.7071 36.7071C36.5196 36.8946 36.2652 37 36 37H27C26.7348 37 26.4804 36.8946 26.2929 36.7071C26.1054 36.5196 26 36.2652 26 36V26H36C36.2652 26 36.5196 26.1054 36.7071 26.2929C36.8946 26.4804 37 26.7348 37 27V36Z" fill="black"/>
</svg>
