<svg width="16" height="16" viewBox="0 0 16 16" fill="none" xmlns="http://www.w3.org/2000/svg">
<path d="M14 5.76536C14 12.5987 8 14.6654 8 14.6654C8 14.6654 2 12.5987 2 5.76536C2 4.93203 2.06667 4.23203 2.13333 3.66536C2.23333 2.83203 2.8 2.16536 3.6 1.96536C4.63333 1.66536 6.26667 1.33203 8 1.33203C9.73333 1.33203 11.3667 1.66536 12.4333 1.96536C13.2333 2.16536 13.8 2.86536 13.9 3.66536C13.9333 4.23203 14 4.96536 14 5.76536Z" fill="#5D4037"/>
<path d="M8 2.33203C9.63333 2.33203 11.1667 2.66536 12.1667 2.93203C12.5667 3.03203 12.8333 3.36536 12.9 3.7987C12.9667 4.43203 13 5.0987 13 5.76536C13 10.9654 9.16667 13.0654 8 13.5654C6.83333 13.032 3 10.932 3 5.76536C3 5.0987 3.03333 4.43203 3.1 3.7987C3.13333 3.36536 3.43333 3.03203 3.83333 2.93203C4.83333 2.66536 6.36667 2.33203 8 2.33203ZM8 1.33203C6.26667 1.33203 4.63333 1.66536 3.56667 1.96536C2.8 2.16536 2.2 2.86536 2.13333 3.66536C2.06667 4.23203 2 4.96536 2 5.76536C2 12.5987 8 14.6654 8 14.6654C8 14.6654 14 12.5987 14 5.76536C14 4.93203 13.9333 4.23203 13.8667 3.66536C13.7667 2.83203 13.2 2.16536 12.4 1.96536C11.3667 1.66536 9.73333 1.33203 8 1.33203Z" fill="#4CAF50"/>
<path d="M7.6665 9.33203H8.33317V11.9987H7.6665V9.33203Z" fill="#DCEDC8"/>
<path d="M8 3.33203C8 3.33203 6 4.9987 6 7.66536C6 9.3987 7.1 10.4987 7.66667 10.9987L8 9.9987L8.33333 10.9987C8.9 10.4987 10 9.3987 10 7.66536C10 4.9987 8 3.33203 8 3.33203Z" fill="#4CAF50"/>
<path d="M8 3.33203C8 3.33203 6 4.9987 6 7.66536C6 9.3987 7.1 10.4987 7.66667 10.9987L8 9.9987V3.33203Z" fill="#81C784"/>
</svg>
