<svg width="600" height="600" viewBox="0 0 600 600" fill="none" xmlns="http://www.w3.org/2000/svg">
<path d="M184.433 347.032L142.218 370.927L105.742 350.48L85.3047 337.409V262.268L142.218 229L162.757 240.915L162.47 263.996L141.423 253.052L106.547 274.294V326.428L142.624 348.964L173.452 330.856L184.433 347.032Z" fill="#95BF48"/>
<path d="M140.984 271.63L154.979 264.513L174.603 275.512V253.947L185.603 247.477V317.996L154.979 335.901L124.133 317.996V295.784L134.92 295.978V310.879L155.404 322.96L174.169 311.526V288.454L154.757 277.454L146.53 282.408L140.984 271.63Z" fill="#95BF48" stroke="#95BF48" stroke-miterlimit="10"/>
<path d="M133.837 271.188H126.008C125.306 271.186 124.617 271.37 124.01 271.72C123.403 272.071 122.899 272.576 122.551 273.184L118.631 279.969C118.282 280.576 118.098 281.265 118.098 281.966C118.098 282.666 118.282 283.355 118.631 283.962L122.551 290.747C122.901 291.353 123.406 291.855 124.013 292.204C124.619 292.553 125.308 292.736 126.008 292.734H133.837C134.537 292.735 135.225 292.552 135.831 292.203C136.438 291.854 136.943 291.352 137.294 290.747L141.213 283.962C141.563 283.355 141.747 282.666 141.747 281.966C141.747 281.265 141.563 280.576 141.213 279.969L137.294 273.184C136.944 272.577 136.441 272.072 135.834 271.722C135.227 271.371 134.538 271.187 133.837 271.188V271.188Z" fill="#2BA75E"/>
<path d="M115.511 245.035H109.364C108.661 245.042 107.971 245.234 107.366 245.593C106.76 245.951 106.26 246.464 105.917 247.078L102.838 252.402C102.489 253.008 102.305 253.695 102.305 254.394C102.305 255.094 102.489 255.781 102.838 256.386L105.917 261.711C106.266 262.316 106.769 262.819 107.374 263.17C107.979 263.52 108.665 263.705 109.364 263.707H115.511C116.212 263.706 116.9 263.521 117.507 263.171C118.113 262.82 118.617 262.317 118.969 261.711L122.037 256.322C122.387 255.716 122.571 255.029 122.571 254.33C122.571 253.63 122.387 252.943 122.037 252.338L118.969 247.078C118.623 246.463 118.122 245.95 117.515 245.592C116.908 245.233 116.217 245.041 115.511 245.035Z" fill="#009FCF" stroke="white" stroke-miterlimit="10"/>
<path d="M96.1462 260.023H88.6589C87.9593 260.023 87.2721 260.208 86.6667 260.559C86.0613 260.909 85.5592 261.413 85.211 262.02L81.4673 268.491C81.1177 269.096 80.9336 269.783 80.9336 270.483C80.9336 271.182 81.1177 271.869 81.4673 272.475L85.211 278.945C85.5592 279.552 86.0613 280.056 86.6667 280.407C87.2721 280.757 87.9593 280.942 88.6589 280.942H96.1462C96.8458 280.942 97.533 280.757 98.1384 280.407C98.7438 280.056 99.2459 279.552 99.5941 278.945L103.292 272.475C103.641 271.869 103.825 271.182 103.825 270.483C103.825 269.783 103.641 269.096 103.292 268.491L99.5941 262.02C99.2459 261.413 98.7438 260.909 98.1384 260.559C97.533 260.208 96.8458 260.023 96.1462 260.023V260.023Z" fill="#C8D42F" stroke="white" stroke-miterlimit="10"/>
<path d="M81.2021 242.344H75.4248C75.3322 242.344 75.2414 242.369 75.1617 242.416C75.082 242.463 75.0165 242.531 74.9718 242.612L72.0693 247.64C72.0239 247.719 72 247.808 72 247.899C72 247.99 72.0239 248.079 72.0693 248.158L74.9718 253.187C75.0169 253.267 75.0828 253.333 75.1626 253.378C75.2423 253.424 75.3329 253.447 75.4248 253.445H81.2021C81.2925 253.446 81.3816 253.423 81.4597 253.377C81.5379 253.332 81.6022 253.266 81.6457 253.187L84.5482 248.158C84.5937 248.079 84.6176 247.99 84.6176 247.899C84.6176 247.808 84.5937 247.719 84.5482 247.64L81.6457 242.612C81.6026 242.531 81.5387 242.464 81.4606 242.417C81.3826 242.37 81.2933 242.345 81.2021 242.344V242.344Z" fill="#C8D42F"/>
<path d="M97.3642 236.668H92.5945C92.205 236.669 91.8225 236.771 91.4851 236.966C91.1478 237.161 90.8673 237.44 90.6718 237.777L88.2869 241.909C88.0913 242.246 87.9883 242.629 87.9883 243.018C87.9883 243.408 88.0913 243.791 88.2869 244.128L90.6718 248.259C90.8673 248.596 91.1478 248.876 91.4851 249.071C91.8225 249.265 92.205 249.368 92.5945 249.369H97.3642C97.7527 249.369 98.1343 249.267 98.4704 249.072C98.8065 248.877 99.085 248.597 99.2776 248.259L101.672 244.128C101.867 243.791 101.97 243.408 101.97 243.018C101.97 242.629 101.867 242.246 101.672 241.909L99.2776 237.777C99.085 237.44 98.8065 237.159 98.4704 236.965C98.1343 236.77 97.7527 236.667 97.3642 236.668V236.668Z" fill="#2BA75E"/>
<path d="M82.1286 231.766H81.0194C80.6316 231.763 80.2502 231.864 79.914 232.057C79.5778 232.25 79.299 232.529 79.1059 232.866L78.5513 233.79C78.3565 234.126 78.2539 234.507 78.2539 234.895C78.2539 235.283 78.3565 235.664 78.5513 235.999L79.1059 236.924C79.2985 237.261 79.577 237.541 79.9131 237.736C80.2492 237.931 80.6309 238.033 81.0194 238.033H82.1286C82.5167 238.031 82.8976 237.928 83.2334 237.734C83.5692 237.539 83.848 237.26 84.042 236.924L84.5967 235.999C84.7915 235.664 84.8941 235.283 84.8941 234.895C84.8941 234.507 84.7915 234.126 84.5967 233.79L84.042 232.866C83.8475 232.531 83.5684 232.253 83.2325 232.06C82.8967 231.867 82.516 231.765 82.1286 231.766V231.766Z" fill="#2BA75E"/>
<path d="M263.886 283.685C263.249 286.311 261.711 288.631 259.539 290.24C257.367 291.849 254.7 292.644 252.002 292.488C242.921 292.488 238.145 285.266 238.145 276.365C238.145 267.822 242.84 260.062 252.05 260.062C258.865 260.062 262.892 263.861 263.935 269.143H261.49C260.952 267.061 259.698 265.235 257.948 263.986C256.198 262.737 254.064 262.144 251.92 262.312C244.062 262.312 240.753 269.502 240.753 276.316C240.753 283.13 244.013 290.238 252.165 290.238C257.316 290.238 259.925 287.565 261.506 283.717L263.886 283.685Z" fill="white" stroke="white" stroke-width="0.5" stroke-miterlimit="10"/>
<path d="M297.319 276.104C297.319 284.727 292.706 292.585 282.957 292.585C274.056 292.585 268.855 285.396 268.855 276.283C268.855 267.17 273.877 259.98 283.267 259.98C291.94 260.062 297.319 266.876 297.319 276.104ZM271.48 276.104C271.48 283.374 275.491 290.238 283.087 290.238C291.239 290.238 294.695 283.554 294.695 276.055C294.695 268.556 290.815 262.23 283.169 262.23C275.05 262.312 271.48 269.045 271.48 276.185V276.104Z" fill="white" stroke="white" stroke-width="0.5" stroke-miterlimit="10"/>
<path d="M304.281 260.504H306.71V289.848H323.697L323.257 292.098H304.281V260.504Z" fill="white" stroke="white" stroke-width="0.5" stroke-miterlimit="10"/>
<path d="M328.59 260.504H331.019V289.848H348.006L347.55 292.098H328.59V260.504Z" fill="white" stroke="white" stroke-width="0.5" stroke-miterlimit="10"/>
<path d="M371.443 276.594H355.32V289.881H372.976L372.601 292.131H352.875V260.504H372.242V262.77H355.32V274.328H371.443V276.594Z" fill="white" stroke="white" stroke-width="0.5" stroke-miterlimit="10"/>
<path d="M402.89 283.685C402.256 286.313 400.718 288.635 398.546 290.244C396.373 291.853 393.704 292.647 391.005 292.488C381.941 292.488 377.148 285.266 377.148 276.365C377.148 267.822 381.844 260.062 391.054 260.062C397.885 260.062 401.895 263.861 402.939 269.143H400.493C399.956 267.061 398.702 265.235 396.952 263.986C395.202 262.737 393.068 262.144 390.924 262.312C383.066 262.312 379.773 269.502 379.773 276.316C379.773 283.13 383.034 290.238 391.185 290.238C396.336 290.238 398.961 287.565 400.542 283.717L402.89 283.685Z" fill="white" stroke="white" stroke-width="0.5" stroke-miterlimit="10"/>
<path d="M416.418 262.77H405.805V260.504H429.557V262.77H418.895V292.114H416.418V262.77Z" fill="white" stroke="white" stroke-width="0.5" stroke-miterlimit="10"/>
<path d="M437.144 260.504V279.659C437.144 288.071 441.888 290.239 446.355 290.239C451.637 290.239 455.582 288.022 455.582 279.659V260.504H458.06V279.529C458.06 289.424 452.827 292.489 446.273 292.489C440.03 292.489 434.617 289.115 434.617 279.936V260.504H437.144Z" fill="white" stroke="white" stroke-width="0.5" stroke-miterlimit="10"/>
<path d="M494.56 277.589C494.56 271.394 494.56 265.476 494.74 262.313H494.609C493.338 266.568 486.931 282.153 482.904 292.131H480.573C477.557 284.403 470.906 267.057 469.471 262.281H469.373C469.601 265.884 469.699 273.252 469.699 278.665V292.131H467.254V260.504H470.792C475.128 271.361 480.573 285.544 481.779 289.115C482.513 286.8 488.822 271.035 493.191 260.504H496.81V292.131H494.365L494.56 277.589Z" fill="white" stroke="white" stroke-width="0.5" stroke-miterlimit="10"/>
<path d="M226.91 305.789H237.882C239.964 305.796 242.034 306.103 244.028 306.702C246.043 307.288 247.929 308.251 249.587 309.539C251.286 310.898 252.661 312.619 253.613 314.576C254.691 316.845 255.216 319.336 255.146 321.847C255.21 324.31 254.685 326.752 253.613 328.971C252.643 330.875 251.269 332.544 249.587 333.862C247.931 335.179 246.046 336.179 244.028 336.812C242.04 337.443 239.967 337.767 237.882 337.774H226.91V305.789ZM231.377 333.845H236.985C238.799 333.861 240.605 333.585 242.332 333.03C243.893 332.54 245.34 331.742 246.587 330.683C247.79 329.646 248.739 328.347 249.359 326.884C250.047 325.273 250.386 323.534 250.353 321.782C250.394 319.987 250.055 318.204 249.359 316.549C248.743 315.089 247.794 313.793 246.587 312.766C245.337 311.723 243.89 310.941 242.332 310.468C240.602 309.926 238.798 309.657 236.985 309.669H231.377V333.845Z" fill="white" stroke="white" stroke-miterlimit="10"/>
<path d="M261.523 337.774H256.551L270.424 305.789H274.483L288.21 337.774H283.156L279.896 329.917H264.718L261.523 337.774ZM266.3 325.988H278.282L272.315 310.99L266.3 325.988Z" fill="white" stroke="white" stroke-miterlimit="10"/>
<path d="M300.827 337.776H296.36V309.687H286.09V305.758H311.032V309.687H300.827V337.776Z" fill="white" stroke="white" stroke-miterlimit="10"/>
<path d="M346.223 321.729C346.254 324.058 345.816 326.37 344.935 328.527C344.131 330.534 342.925 332.357 341.392 333.882C339.858 335.407 338.03 336.602 336.018 337.395C333.857 338.239 331.555 338.659 329.236 338.634C326.911 338.669 324.601 338.248 322.438 337.395C320.43 336.614 318.606 335.428 317.077 333.91C315.548 332.393 314.349 330.577 313.553 328.576C311.857 324.191 311.857 319.332 313.553 314.947C314.367 312.964 315.583 311.171 317.123 309.681C318.648 308.181 320.454 306.995 322.438 306.193C324.589 305.36 326.88 304.945 329.187 304.97C331.504 304.948 333.805 305.362 335.969 306.193C337.965 306.961 339.788 308.119 341.332 309.6C342.869 311.102 344.079 312.906 344.886 314.898C345.786 317.062 346.24 319.385 346.223 321.729ZM341.332 321.729C341.34 320.061 341.053 318.406 340.484 316.838C339.94 315.33 339.109 313.94 338.039 312.746C336.974 311.567 335.675 310.623 334.224 309.975C332.639 309.272 330.92 308.922 329.187 308.948C327.469 308.922 325.766 309.272 324.198 309.975C322.747 310.614 321.452 311.559 320.4 312.746C319.345 313.946 318.527 315.334 317.987 316.838C317.406 318.403 317.113 320.06 317.123 321.729C317.106 323.441 317.399 325.142 317.987 326.75C318.536 328.273 319.377 329.675 320.465 330.874C321.526 332.039 322.82 332.967 324.264 333.597C325.805 334.269 327.472 334.608 329.154 334.591C330.879 334.616 332.59 334.277 334.175 333.597C335.66 332.981 336.995 332.053 338.088 330.874C339.165 329.685 339.996 328.294 340.533 326.782C341.112 325.161 341.399 323.45 341.381 321.729H341.332Z" fill="white" stroke="white" stroke-miterlimit="10"/>
<path d="M368.219 311.709C367.549 310.803 366.671 310.071 365.66 309.573C364.525 308.995 363.266 308.704 361.992 308.725C361.254 308.728 360.52 308.826 359.807 309.019C359.082 309.21 358.397 309.53 357.786 309.964C357.19 310.402 356.691 310.957 356.319 311.595C355.932 312.309 355.741 313.114 355.764 313.926C355.735 314.686 355.909 315.441 356.27 316.11C356.626 316.704 357.104 317.215 357.672 317.61C358.321 318.045 359.022 318.395 359.759 318.654L362.302 319.534C363.394 319.86 364.486 320.235 365.562 320.659C366.64 321.055 367.656 321.604 368.578 322.289C369.493 322.992 370.249 323.881 370.795 324.897C371.41 326.119 371.707 327.476 371.659 328.843C371.696 330.336 371.378 331.817 370.73 333.163C370.146 334.345 369.305 335.381 368.268 336.195C367.209 337.01 366.002 337.613 364.714 337.972C363.375 338.364 361.986 338.562 360.59 338.559C358.58 338.56 356.591 338.161 354.737 337.385C352.91 336.64 351.301 335.445 350.059 333.913L353.547 330.978C354.324 332.106 355.358 333.034 356.563 333.684C357.823 334.372 359.236 334.731 360.671 334.728C361.438 334.724 362.201 334.615 362.937 334.402C363.677 334.198 364.373 333.861 364.992 333.407C365.604 332.975 366.121 332.42 366.508 331.777C366.916 331.022 367.118 330.173 367.095 329.315C367.127 328.47 366.918 327.633 366.491 326.903C366.077 326.244 365.52 325.687 364.861 325.272C364.108 324.787 363.298 324.398 362.448 324.115L359.53 323.153C358.506 322.837 357.5 322.467 356.514 322.045C355.546 321.638 354.645 321.089 353.841 320.414C353.044 319.717 352.4 318.862 351.95 317.904C351.431 316.741 351.186 315.475 351.232 314.203C351.187 312.773 351.519 311.356 352.194 310.095C352.825 308.976 353.686 308.003 354.721 307.242C355.784 306.486 356.978 305.934 358.242 305.612C359.535 305.27 360.867 305.095 362.204 305.09C363.996 305.081 365.773 305.419 367.437 306.084C368.938 306.655 370.284 307.571 371.366 308.758L368.219 311.709Z" fill="white" stroke="white" stroke-miterlimit="10"/>
<path d="M389.281 305.79H399.063C400.643 305.776 402.219 305.951 403.758 306.312C405.059 306.613 406.289 307.167 407.377 307.942C408.358 308.661 409.153 309.606 409.692 310.697C410.257 311.962 410.53 313.338 410.491 314.724C410.53 316.144 410.228 317.552 409.61 318.832C409.044 319.952 408.209 320.915 407.181 321.636C406.054 322.405 404.794 322.958 403.464 323.266C401.948 323.63 400.393 323.805 398.834 323.788H393.781V337.84H389.281V305.79ZM393.748 319.94H398.492C399.5 319.951 400.507 319.847 401.492 319.631C402.333 319.478 403.139 319.174 403.872 318.734C404.516 318.333 405.044 317.771 405.404 317.104C405.783 316.346 405.968 315.505 405.942 314.658C405.974 313.819 405.782 312.987 405.388 312.246C405.014 311.583 404.482 311.023 403.839 310.615C403.131 310.18 402.345 309.886 401.524 309.751C400.555 309.584 399.573 309.502 398.59 309.507H393.699L393.748 319.94Z" fill="white" stroke="white" stroke-miterlimit="10"/>
<path d="M414.809 337.774H409.918L423.791 305.789H427.851L441.447 337.774H436.377L433.116 329.917H417.922L414.809 337.774ZM419.585 325.988H431.568L425.601 310.99L419.585 325.988Z" fill="white" stroke="white" stroke-miterlimit="10"/>
<path d="M468.167 331.367H468.249V305.789H472.716V337.774H467.075L450.186 311.691H450.088V337.774H445.621V305.789H451.441L468.167 331.367Z" fill="white" stroke="white" stroke-miterlimit="10"/>
<path d="M484.96 333.797H501.767V337.774H480.574V305.789H501.083V309.685H485.041V319.271H500.137V323.102H485.041L484.96 333.797Z" fill="white" stroke="white" stroke-miterlimit="10"/>
<path d="M512.119 333.797H526.4V337.774H507.652V305.789H512.119V333.797Z" fill="white" stroke="white" stroke-miterlimit="10"/>
</svg>
