<svg width="39" height="38" viewBox="0 0 39 38" fill="none" xmlns="http://www.w3.org/2000/svg">
<path d="M20.047 7.3167e-05C18.492 0.00507317 17.4139 0.142073 16.111 0.367073C12.263 1.03707 11.562 2.44407 11.562 5.03707V9.00007H20.562V11.0001H11.22H6.86995C4.23395 11.0001 1.92695 12.2421 1.19595 15.2191C0.369951 18.6361 0.332951 20.7761 1.19595 24.3441C1.85095 27.0051 3.29395 29.0001 5.93095 29.0001H9.56295V23.8961C9.56295 20.9301 12.249 18.0001 15.327 18.0001H22.563C25.086 18.0001 27.563 16.1381 27.563 13.6231V5.03707C27.563 2.59807 25.8039 0.774073 23.3449 0.365073C23.406 0.359073 21.589 -0.00592683 20.047 7.3167e-05ZM15.063 4.00007C15.884 4.00007 16.563 4.67707 16.563 5.50207C16.563 6.33507 15.884 7.00007 15.063 7.00007C14.226 7.00007 13.563 6.33607 13.563 5.50207C13.563 4.68007 14.226 4.00007 15.063 4.00007Z" fill="#0277BD"/>
<path d="M19.078 38C20.633 37.995 21.711 37.858 23.014 37.633C26.862 36.963 27.563 35.556 27.563 32.963V29H18.563V27H27.906H32.256C34.892 27 37.199 25.758 37.93 22.781C38.756 19.364 38.793 17.224 37.93 13.656C37.274 10.995 35.831 9 33.194 9H29.562V14.104C29.562 17.07 26.876 20 23.798 20H16.562C14.039 20 11.562 21.862 11.562 24.377V32.963C11.562 35.402 13.321 37.226 15.78 37.635C15.719 37.641 17.536 38.006 19.078 38ZM24.063 34C23.242 34 22.563 33.323 22.563 32.498C22.563 31.665 23.242 31 24.063 31C24.9 31 25.563 31.664 25.563 32.498C25.563 33.32 24.899 34 24.063 34Z" fill="#FFC107"/>
</svg>
