<svg width="90" height="102" viewBox="0 0 90 102" fill="none" xmlns="http://www.w3.org/2000/svg">
<g filter="url(#filter0_dd_3889_34689)">
<path fill-rule="evenodd" clip-rule="evenodd" d="M76.9251 72.6042C77.6497 81.9838 77.6497 86.3805 77.6497 91.1799H56.1142C56.1142 90.1342 56.1327 89.178 56.1512 88.2082C56.2095 85.1937 56.2703 82.0504 55.7856 75.7021C55.1452 66.4085 51.1737 64.3431 43.8709 64.3431H37.4009H10V47.4337H44.8959C54.1203 47.4337 58.7322 44.6057 58.7322 37.1191C58.7322 30.5361 54.1203 26.5465 44.8959 26.5465H10V10H48.7391C69.6223 10 80 19.9393 80 35.8162C80 47.6917 72.6973 55.4363 62.8321 56.7272C71.1598 58.4054 76.028 63.1814 76.9251 72.6042Z" fill="#E8F2FF"/>
<path d="M10 91.1761V78.5703H32.7709C36.5744 78.5703 37.4 81.4133 37.4 83.1082V91.1761H10Z" fill="#E8F2FF"/>
</g>
<defs>
<filter id="filter0_dd_3889_34689" x="0" y="0" width="90" height="101.18" filterUnits="userSpaceOnUse" color-interpolation-filters="sRGB">
<feFlood flood-opacity="0" result="BackgroundImageFix"/>
<feColorMatrix in="SourceAlpha" type="matrix" values="0 0 0 0 0 0 0 0 0 0 0 0 0 0 0 0 0 0 127 0" result="hardAlpha"/>
<feOffset/>
<feGaussianBlur stdDeviation="5"/>
<feComposite in2="hardAlpha" operator="out"/>
<feColorMatrix type="matrix" values="0 0 0 0 0.223529 0 0 0 0 0.572549 0 0 0 0 1 0 0 0 1 0"/>
<feBlend mode="normal" in2="BackgroundImageFix" result="effect1_dropShadow_3889_34689"/>
<feColorMatrix in="SourceAlpha" type="matrix" values="0 0 0 0 0 0 0 0 0 0 0 0 0 0 0 0 0 0 127 0" result="hardAlpha"/>
<feOffset/>
<feGaussianBlur stdDeviation="3.5"/>
<feComposite in2="hardAlpha" operator="out"/>
<feColorMatrix type="matrix" values="0 0 0 0 0.223529 0 0 0 0 0.572549 0 0 0 0 1 0 0 0 0.9 0"/>
<feBlend mode="normal" in2="effect1_dropShadow_3889_34689" result="effect2_dropShadow_3889_34689"/>
<feBlend mode="normal" in="SourceGraphic" in2="effect2_dropShadow_3889_34689" result="shape"/>
</filter>
</defs>
</svg>
