<svg width="1280" height="1075" viewBox="0 0 1280 1075" fill="none" xmlns="http://www.w3.org/2000/svg">
<rect width="1280" height="1075" rx="40" fill="url(#paint0_linear_4531_32786)"/>
<g clip-path="url(#clip0_4531_32786)">
<path d="M60.1807 225.979C63.6007 226.929 66.0707 229.589 67.0207 232.819C67.2107 233.199 67.5907 233.199 67.7807 232.819C68.7307 229.399 71.3907 226.929 74.6207 225.979C75.0007 225.789 75.0007 225.409 74.6207 225.219C71.3907 224.269 68.7307 221.609 67.7807 218.379C67.5907 217.999 67.2107 217.999 67.0207 218.379C66.0707 221.609 63.4107 224.269 60.1807 225.219C59.6107 225.409 59.6107 225.789 60.1807 225.979ZM93.6207 236.429C88.4907 235.099 84.5007 231.109 83.1707 225.979C82.9807 225.409 82.2207 225.409 82.0307 225.979C80.7007 231.109 76.7107 235.099 71.5807 236.429C71.0107 236.619 71.0107 237.379 71.5807 237.569C76.5207 238.899 80.5107 242.889 82.0307 248.019C82.2207 248.589 82.9807 248.589 83.1707 248.019C84.5007 243.079 88.4907 239.089 93.6207 237.569C94.1907 237.379 94.1907 236.619 93.6207 236.429ZM70.8207 248.019C67.4007 247.069 64.9307 244.409 63.9807 241.179C63.7907 240.799 63.4107 240.799 63.2207 241.179C62.2707 244.599 59.6107 247.069 56.3807 248.019C56.0007 248.209 56.0007 248.589 56.3807 248.779C59.8007 249.729 62.2707 252.389 63.2207 255.619C63.4107 255.999 63.7907 255.999 63.9807 255.619C64.9307 252.199 67.5907 249.729 70.8207 248.779C71.3907 248.589 71.3907 248.209 70.8207 248.019Z" fill="#2A4241" fill-opacity="0.4"/>
</g>
<g clip-path="url(#clip1_4531_32786)">
<path d="M1149.18 901.979C1152.6 902.929 1155.07 905.589 1156.02 908.819C1156.21 909.199 1156.59 909.199 1156.78 908.819C1157.73 905.399 1160.39 902.929 1163.62 901.979C1164 901.789 1164 901.409 1163.62 901.219C1160.39 900.269 1157.73 897.609 1156.78 894.379C1156.59 893.999 1156.21 893.999 1156.02 894.379C1155.07 897.609 1152.41 900.269 1149.18 901.219C1148.61 901.409 1148.61 901.789 1149.18 901.979ZM1182.62 912.429C1177.49 911.099 1173.5 907.109 1172.17 901.979C1171.98 901.409 1171.22 901.409 1171.03 901.979C1169.7 907.109 1165.71 911.099 1160.58 912.429C1160.01 912.619 1160.01 913.379 1160.58 913.569C1165.52 914.899 1169.51 918.889 1171.03 924.019C1171.22 924.589 1171.98 924.589 1172.17 924.019C1173.5 919.079 1177.49 915.089 1182.62 913.569C1183.19 913.379 1183.19 912.619 1182.62 912.429ZM1159.82 924.019C1156.4 923.069 1153.93 920.409 1152.98 917.179C1152.79 916.799 1152.41 916.799 1152.22 917.179C1151.27 920.599 1148.61 923.069 1145.38 924.019C1145 924.209 1145 924.589 1145.38 924.779C1148.8 925.729 1151.27 928.389 1152.22 931.619C1152.41 931.999 1152.79 931.999 1152.98 931.619C1153.93 928.199 1156.59 925.729 1159.82 924.779C1160.39 924.589 1160.39 924.209 1159.82 924.019Z" fill="#2A4241" fill-opacity="0.4"/>
</g>
<g clip-path="url(#clip2_4531_32786)">
<path d="M235.181 707.979C238.601 708.929 241.071 711.589 242.021 714.819C242.211 715.199 242.591 715.199 242.781 714.819C243.731 711.399 246.391 708.929 249.621 707.979C250.001 707.789 250.001 707.409 249.621 707.219C246.391 706.269 243.731 703.609 242.781 700.379C242.591 699.999 242.211 699.999 242.021 700.379C241.071 703.609 238.411 706.269 235.181 707.219C234.611 707.409 234.611 707.789 235.181 707.979ZM268.621 718.429C263.491 717.099 259.501 713.109 258.171 707.979C257.981 707.409 257.221 707.409 257.031 707.979C255.701 713.109 251.711 717.099 246.581 718.429C246.011 718.619 246.011 719.379 246.581 719.569C251.521 720.899 255.511 724.889 257.031 730.019C257.221 730.589 257.981 730.589 258.171 730.019C259.501 725.079 263.491 721.089 268.621 719.569C269.191 719.379 269.191 718.619 268.621 718.429Z" fill="#2A4241" fill-opacity="0.4"/>
</g>
<path d="M883.425 454.663C886.827 455.763 889.283 458.843 890.228 462.584C890.417 463.024 890.795 463.024 890.984 462.584C891.929 458.623 894.575 455.763 897.787 454.663C898.165 454.443 898.165 454.003 897.787 453.783C894.575 452.682 891.929 449.602 890.984 445.861C890.795 445.421 890.417 445.421 890.228 445.861C889.283 449.602 886.638 452.682 883.425 453.783C882.858 454.003 882.858 454.443 883.425 454.663Z" fill="#2A4241" fill-opacity="0.4"/>
<path d="M329.256 254.263C331.307 254.926 332.788 256.783 333.358 259.038C333.472 259.303 333.699 259.303 333.813 259.038C334.383 256.65 335.978 254.926 337.915 254.263C338.142 254.13 338.142 253.865 337.915 253.732C335.978 253.069 334.383 251.212 333.813 248.957C333.699 248.691 333.472 248.691 333.358 248.957C332.788 251.212 331.193 253.069 329.256 253.732C328.915 253.865 328.915 254.13 329.256 254.263Z" fill="#2A4241" fill-opacity="0.4"/>
<path d="M59.2563 539.528C61.307 540.192 62.788 542.049 63.3576 544.304C63.4715 544.569 63.6994 544.569 63.8133 544.304C64.3829 541.916 65.9778 540.192 67.9146 539.528C68.1424 539.396 68.1424 539.13 67.9146 538.998C65.9778 538.334 64.3829 536.477 63.8133 534.222C63.6994 533.957 63.4715 533.957 63.3576 534.222C62.788 536.477 61.193 538.334 59.2563 538.998C58.9146 539.13 58.9146 539.396 59.2563 539.528Z" fill="#2A4241" fill-opacity="0.4"/>
<path d="M349.256 766.579C351.307 767.242 352.788 769.099 353.358 771.354C353.472 771.62 353.699 771.62 353.813 771.354C354.383 768.967 355.978 767.242 357.915 766.579C358.142 766.446 358.142 766.181 357.915 766.049C355.978 765.385 354.383 763.528 353.813 761.273C353.699 761.008 353.472 761.008 353.358 761.273C352.788 763.528 351.193 765.385 349.256 766.049C348.915 766.181 348.915 766.446 349.256 766.579Z" fill="#2A4241" fill-opacity="0.4"/>
<path d="M63.2563 817.81C65.307 818.473 66.788 820.33 67.3576 822.585C67.4715 822.85 67.6994 822.85 67.8133 822.585C68.3829 820.197 69.9778 818.473 71.9146 817.81C72.1424 817.677 72.1424 817.412 71.9146 817.279C69.9778 816.616 68.3829 814.759 67.8133 812.504C67.6994 812.238 67.4715 812.238 67.3576 812.504C66.788 814.759 65.193 816.616 63.2563 817.279C62.9146 817.412 62.9146 817.677 63.2563 817.81Z" fill="#2A4241" fill-opacity="0.4"/>
<path d="M58.2563 830.618C60.307 831.281 61.788 833.138 62.3576 835.393C62.4715 835.659 62.6994 835.659 62.8133 835.393C63.3829 833.006 64.9778 831.281 66.9146 830.618C67.1424 830.486 67.1424 830.22 66.9146 830.088C64.9778 829.424 63.3829 827.567 62.8133 825.312C62.6994 825.047 62.4715 825.047 62.3576 825.312C61.788 827.567 60.193 829.424 58.2563 830.088C57.9146 830.22 57.9146 830.486 58.2563 830.618Z" fill="#2A4241" fill-opacity="0.4"/>
<path d="M1072.26 342.755C1074.31 343.418 1075.79 345.275 1076.36 347.53C1076.47 347.795 1076.7 347.795 1076.81 347.53C1077.38 345.143 1078.98 343.418 1080.91 342.755C1081.14 342.622 1081.14 342.357 1080.91 342.224C1078.98 341.561 1077.38 339.704 1076.81 337.449C1076.7 337.184 1076.47 337.184 1076.36 337.449C1075.79 339.704 1074.19 341.561 1072.26 342.224C1071.91 342.357 1071.91 342.622 1072.26 342.755Z" fill="#2A4241" fill-opacity="0.4"/>
<path d="M41.2563 191.388C43.307 192.051 44.788 193.908 45.3576 196.163C45.4715 196.428 45.6994 196.428 45.8133 196.163C46.3829 193.775 47.9778 192.051 49.9146 191.388C50.1424 191.255 50.1424 190.99 49.9146 190.857C47.9778 190.194 46.3829 188.337 45.8133 186.082C45.6994 185.816 45.4715 185.816 45.3576 186.082C44.788 188.337 43.193 190.194 41.2563 190.857C40.9146 190.99 40.9146 191.255 41.2563 191.388Z" fill="#2A4241" fill-opacity="0.4"/>
<path d="M997.256 156.458C999.307 157.121 1000.79 158.978 1001.36 161.233C1001.47 161.499 1001.7 161.499 1001.81 161.233C1002.38 158.846 1003.98 157.121 1005.91 156.458C1006.14 156.325 1006.14 156.06 1005.91 155.927C1003.98 155.264 1002.38 153.407 1001.81 151.152C1001.7 150.887 1001.47 150.887 1001.36 151.152C1000.79 153.407 999.193 155.264 997.256 155.927C996.915 156.06 996.915 156.325 997.256 156.458Z" fill="#2A4241" fill-opacity="0.4"/>
<path d="M1145.26 574.458C1147.31 575.121 1148.79 576.978 1149.36 579.233C1149.47 579.499 1149.7 579.499 1149.81 579.233C1150.38 576.846 1151.98 575.121 1153.91 574.458C1154.14 574.325 1154.14 574.06 1153.91 573.927C1151.98 573.264 1150.38 571.407 1149.81 569.152C1149.7 568.887 1149.47 568.887 1149.36 569.152C1148.79 571.407 1147.19 573.264 1145.26 573.927C1144.91 574.06 1144.91 574.325 1145.26 574.458Z" fill="#2A4241" fill-opacity="0.4"/>
<path d="M956.256 706.032C958.307 706.695 959.788 708.553 960.358 710.808C960.472 711.073 960.699 711.073 960.813 710.808C961.383 708.42 962.978 706.695 964.915 706.032C965.142 705.9 965.142 705.634 964.915 705.502C962.978 704.838 961.383 702.981 960.813 700.726C960.699 700.461 960.472 700.461 960.358 700.726C959.788 702.981 958.193 704.838 956.256 705.502C955.915 705.634 955.915 705.9 956.256 706.032Z" fill="#2A4241" fill-opacity="0.4"/>
<path d="M898.256 1008.76C900.307 1009.43 901.788 1011.28 902.358 1013.54C902.472 1013.8 902.699 1013.8 902.813 1013.54C903.383 1011.15 904.978 1009.43 906.915 1008.76C907.142 1008.63 907.142 1008.36 906.915 1008.23C904.978 1007.57 903.383 1005.71 902.813 1003.46C902.699 1003.19 902.472 1003.19 902.358 1003.46C901.788 1005.71 900.193 1007.57 898.256 1008.23C897.915 1008.36 897.915 1008.63 898.256 1008.76Z" fill="#2A4241" fill-opacity="0.4"/>
<path d="M1184.26 318.302C1186.31 318.965 1187.79 320.822 1188.36 323.077C1188.47 323.342 1188.7 323.342 1188.81 323.077C1189.38 320.689 1190.98 318.965 1192.91 318.302C1193.14 318.169 1193.14 317.904 1192.91 317.771C1190.98 317.108 1189.38 315.251 1188.81 312.996C1188.7 312.731 1188.47 312.731 1188.36 312.996C1187.79 315.251 1186.19 317.108 1184.26 317.771C1183.91 317.904 1183.91 318.169 1184.26 318.302Z" fill="#2A4241" fill-opacity="0.4"/>
<path d="M294.425 514.046C297.827 515.146 300.283 518.226 301.228 521.967C301.417 522.407 301.795 522.407 301.984 521.967C302.929 518.006 305.575 515.146 308.787 514.046C309.165 513.826 309.165 513.385 308.787 513.165C305.575 512.065 302.929 508.985 301.984 505.244C301.795 504.804 301.417 504.804 301.228 505.244C300.283 508.985 297.638 512.065 294.425 513.165C293.858 513.385 293.858 513.826 294.425 514.046Z" fill="#2A4241" fill-opacity="0.4"/>
<path d="M94.4252 1050.61C97.8268 1052.11 100.283 1056.3 101.228 1061.38C101.417 1061.98 101.795 1061.98 101.984 1061.38C102.929 1056 105.575 1052.11 108.787 1050.61C109.165 1050.31 109.165 1049.71 108.787 1049.41C105.575 1047.91 102.929 1043.72 101.984 1038.64C101.795 1038.04 101.417 1038.04 101.228 1038.64C100.283 1043.72 97.6378 1047.91 94.4252 1049.41C93.8583 1049.71 93.8583 1050.31 94.4252 1050.61Z" fill="#2A4241" fill-opacity="0.4"/>
<path d="M101.425 689.659C104.827 691.156 107.283 695.346 108.228 700.434C108.417 701.033 108.795 701.033 108.984 700.434C109.929 695.047 112.575 691.156 115.787 689.659C116.165 689.36 116.165 688.762 115.787 688.462C112.575 686.966 109.929 682.775 108.984 677.687C108.795 677.089 108.417 677.089 108.228 677.687C107.283 682.775 104.638 686.966 101.425 688.462C100.858 688.762 100.858 689.36 101.425 689.659Z" fill="#2A4241" fill-opacity="0.4"/>
<path d="M380.425 626.784C383.827 628.281 386.283 632.471 387.228 637.559C387.417 638.158 387.795 638.158 387.984 637.559C388.929 632.172 391.575 628.281 394.787 626.784C395.165 626.485 395.165 625.887 394.787 625.587C391.575 624.091 388.929 619.9 387.984 614.812C387.795 614.214 387.417 614.214 387.228 614.812C386.283 619.9 383.638 624.091 380.425 625.587C379.858 625.887 379.858 626.485 380.425 626.784Z" fill="#2A4241" fill-opacity="0.4"/>
<path d="M269.425 1042.46C272.827 1043.96 275.283 1048.15 276.228 1053.24C276.417 1053.83 276.795 1053.83 276.984 1053.24C277.929 1047.85 280.575 1043.96 283.787 1042.46C284.165 1042.16 284.165 1041.56 283.787 1041.26C280.575 1039.77 277.929 1035.58 276.984 1030.49C276.795 1029.89 276.417 1029.89 276.228 1030.49C275.283 1035.58 272.638 1039.77 269.425 1041.26C268.858 1041.56 268.858 1042.16 269.425 1042.46Z" fill="#2A4241" fill-opacity="0.4"/>
<path d="M179.425 457.952C182.827 459.449 185.283 463.639 186.228 468.727C186.417 469.326 186.795 469.326 186.984 468.727C187.929 463.34 190.575 459.449 193.787 457.952C194.165 457.653 194.165 457.054 193.787 456.755C190.575 455.259 187.929 451.068 186.984 445.98C186.795 445.382 186.417 445.382 186.228 445.98C185.283 451.068 182.638 455.259 179.425 456.755C178.858 457.054 178.858 457.653 179.425 457.952Z" fill="#2A4241" fill-opacity="0.4"/>
<path d="M1006.43 505.691C1009.83 507.187 1012.28 511.377 1013.23 516.466C1013.42 517.064 1013.8 517.064 1013.98 516.466C1014.93 511.078 1017.57 507.187 1020.79 505.691C1021.17 505.391 1021.17 504.793 1020.79 504.493C1017.57 502.997 1014.93 498.807 1013.98 493.718C1013.8 493.12 1013.42 493.12 1013.23 493.718C1012.28 498.807 1009.64 502.997 1006.43 504.493C1005.86 504.793 1005.86 505.391 1006.43 505.691Z" fill="#2A4241" fill-opacity="0.4"/>
<path d="M1169.43 868.972C1172.83 870.468 1175.28 874.659 1176.23 879.747C1176.42 880.346 1176.8 880.346 1176.98 879.747C1177.93 874.359 1180.57 870.468 1183.79 868.972C1184.17 868.673 1184.17 868.074 1183.79 867.775C1180.57 866.278 1177.93 862.088 1176.98 857C1176.8 856.401 1176.42 856.401 1176.23 857C1175.28 862.088 1172.64 866.278 1169.43 867.775C1168.86 868.074 1168.86 868.673 1169.43 868.972Z" fill="#2A4241" fill-opacity="0.4"/>
<path d="M1046.43 941.159C1049.83 942.656 1052.28 946.846 1053.23 951.934C1053.42 952.533 1053.8 952.533 1053.98 951.934C1054.93 946.547 1057.57 942.656 1060.79 941.159C1061.17 940.86 1061.17 940.262 1060.79 939.962C1057.57 938.466 1054.93 934.275 1053.98 929.187C1053.8 928.589 1053.42 928.589 1053.23 929.187C1052.28 934.275 1049.64 938.466 1046.43 939.962C1045.86 940.262 1045.86 940.86 1046.43 941.159Z" fill="#2A4241" fill-opacity="0.4"/>
<defs>
<linearGradient id="paint0_linear_4531_32786" x1="640" y1="0" x2="640" y2="1075" gradientUnits="userSpaceOnUse">
<stop stop-color="#85DDCB"/>
<stop offset="1" stop-color="#186656"/>
</linearGradient>
<clipPath id="clip0_4531_32786">
<rect width="38" height="38" fill="white" transform="translate(56 218)"/>
</clipPath>
<clipPath id="clip1_4531_32786">
<rect width="38" height="38" fill="white" transform="translate(1145 894)"/>
</clipPath>
<clipPath id="clip2_4531_32786">
<rect width="38" height="38" fill="white" transform="translate(231 700)"/>
</clipPath>
</defs>
</svg>
