<svg width="15" height="24" viewBox="0 0 15 24" fill="none" xmlns="http://www.w3.org/2000/svg">
<path d="M5.25633 5.50488C7.30696 6.16812 8.78797 8.02519 9.35759 10.2802C9.47152 10.5455 9.69937 10.5455 9.81329 10.2802C10.3829 7.89254 11.9778 6.16812 13.9146 5.50488C14.1424 5.37223 14.1424 5.10694 13.9146 4.97429C11.9778 4.31105 10.3829 2.45398 9.81329 0.198972C9.69937 -0.0663239 9.47152 -0.0663239 9.35759 0.198972C8.78797 2.45398 7.19304 4.31105 5.25633 4.97429C4.91456 5.10694 4.91456 5.37223 5.25633 5.50488Z" fill="#85DDCB"/>
<path d="M0.256329 18.3135C2.30696 18.9767 3.78797 20.8338 4.35759 23.0888C4.47152 23.3541 4.69937 23.3541 4.81329 23.0888C5.38291 20.7011 6.97785 18.9767 8.91456 18.3135C9.14241 18.1808 9.14241 17.9155 8.91456 17.7829C6.97785 17.1196 5.38291 15.2626 4.81329 13.0076C4.69937 12.7423 4.47152 12.7423 4.35759 13.0076C3.78797 15.2626 2.19304 17.1196 0.256329 17.7829C-0.085443 17.9155 -0.085443 18.1808 0.256329 18.3135Z" fill="#85DDCB"/>
</svg>
