<svg width="48" height="48" viewBox="0 0 48 48" fill="none" xmlns="http://www.w3.org/2000/svg">
<path d="M24 9.60547C17.6 9.60547 13.6 12.8045 12 19.2025C14.4 16.0035 17.2 14.8045 20.4 15.6035C22.226 16.0595 23.531 17.3845 24.976 18.8505C27.328 21.2375 30.051 24.0015 36 24.0015C42.4 24.0015 46.4 20.8025 48 14.4035C45.6 17.6025 42.8 18.8025 39.6 18.0035C37.775 17.5475 36.47 16.2225 35.025 14.7565C32.672 12.3685 29.948 9.60547 24 9.60547ZM12 24.0015C5.6 24.0015 1.6 27.2005 0 33.5995C2.4 30.4005 5.2 29.2005 8.4 30.0005C10.225 30.4575 11.53 31.7815 12.975 33.2465C15.328 35.6345 18.052 38.3985 24 38.3985C30.4 38.3985 34.4 35.1995 36 28.8005C33.6 31.9995 30.8 33.1995 27.6 32.3995C25.774 31.9435 24.469 30.6185 23.024 29.1535C20.672 26.7655 17.949 24.0015 12 24.0015Z" fill="#00ACC1"/>
</svg>
