<svg width="24" height="24" viewBox="0 0 24 24" fill="none" xmlns="http://www.w3.org/2000/svg">
<circle cx="12" cy="12" r="12" fill="#1976D2"/>
<path d="M11.9998 8.39844H4.7998V9.92164H7.38221V16.7984H9.42826V9.92164H11.9998V8.39844Z" fill="white"/>
<path d="M17.5629 10.3052C17.5629 10.3052 16.6185 9.74749 15.551 9.74749C14.4834 9.74749 14.0992 10.1966 14.0992 10.6767C14.0992 11.9156 18 11.7916 18 14.2848C18 18.1255 12.0523 16.422 12.0523 16.422V14.5796C12.0523 14.5796 13.1896 15.3384 14.5537 15.3384C15.9177 15.3384 15.8659 14.5487 15.8659 14.4401C15.8659 13.2944 12 13.2944 12 10.7543C12 7.30104 17.6327 8.66346 17.6327 8.66346L17.5629 10.3052Z" fill="white"/>
</svg>
